<?xml version="1.0" encoding="UTF-8" standalone="no"?>
<!DOCTYPE svg PUBLIC "-//W3C//DTD SVG 1.1//EN"
 "http://www.w3.org/Graphics/SVG/1.1/DTD/svg11.dtd">
<!-- Generated by graphviz version 2.48.0 (0)
 -->
<!-- Pages: 1 -->
<svg width="1557pt" height="524pt"
 viewBox="0.00 0.00 1556.94 524.00" xmlns="http://www.w3.org/2000/svg" xmlns:xlink="http://www.w3.org/1999/xlink">
<g id="graph0" class="graph" transform="scale(1 1) rotate(0) translate(4 520)">
<polygon fill="white" stroke="transparent" points="-4,4 -4,-520 1552.94,-520 1552.94,4 -4,4"/>
<!-- main -->
<g id="node1" class="node">
<title>main</title>
<ellipse fill="none" stroke="black" cx="77.5" cy="-139" rx="34" ry="18"/>
<text text-anchor="middle" x="77.5" y="-135.3" font-family="Times,serif" font-size="14.00">main</text>
</g>
<!-- perform_task -->
<g id="node2" class="node">
<title>perform_task</title>
<ellipse fill="none" stroke="black" cx="336.74" cy="-174" rx="72.29" ry="18"/>
<text text-anchor="middle" x="336.74" y="-170.3" font-family="Times,serif" font-size="14.00">perform_task</text>
</g>
<!-- main&#45;&gt;perform_task -->
<g id="edge1" class="edge">
<title>main&#45;&gt;perform_task</title>
<path fill="none" stroke="black" d="M110.56,-143.36C148.42,-148.51 212.6,-157.25 262.77,-164.07"/>
<polygon fill="black" stroke="black" points="262.55,-167.57 272.93,-165.45 263.49,-160.64 262.55,-167.57"/>
<text text-anchor="middle" x="182.5" y="-158.8" font-family="Times,serif" font-size="14.00">0</text>
</g>
<!-- closeout_task -->
<g id="node3" class="node">
<title>closeout_task</title>
<ellipse fill="none" stroke="black" cx="336.74" cy="-120" rx="73.5" ry="18"/>
<text text-anchor="middle" x="336.74" y="-116.3" font-family="Times,serif" font-size="14.00">closeout_task</text>
</g>
<!-- main&#45;&gt;closeout_task -->
<g id="edge2" class="edge">
<title>main&#45;&gt;closeout_task</title>
<path fill="none" stroke="black" d="M110.83,-135.17C129.06,-133.12 152.28,-130.67 173,-129 199.27,-126.89 227.96,-125.12 253.84,-123.73"/>
<polygon fill="black" stroke="black" points="254.19,-127.22 263.99,-123.19 253.82,-120.23 254.19,-127.22"/>
<text text-anchor="middle" x="182.5" y="-132.8" font-family="Times,serif" font-size="14.00">23</text>
</g>
<!-- train_and_predict_embedding_model -->
<g id="node4" class="node">
<title>train_and_predict_embedding_model</title>
<ellipse fill="none" stroke="black" cx="690.16" cy="-250" rx="180.87" ry="18"/>
<text text-anchor="middle" x="690.16" y="-246.3" font-family="Times,serif" font-size="14.00">train_and_predict_embedding_model</text>
</g>
<!-- perform_task&#45;&gt;train_and_predict_embedding_model -->
<g id="edge3" class="edge">
<title>perform_task&#45;&gt;train_and_predict_embedding_model</title>
<path fill="none" stroke="black" d="M406.17,-178.95C425.93,-182.86 446.68,-189.58 463.48,-201 475.4,-209.11 469.14,-220.53 481.48,-228 490.03,-233.17 499.14,-237.49 508.61,-241.07"/>
<polygon fill="black" stroke="black" points="507.58,-244.42 518.17,-244.41 509.88,-237.81 507.58,-244.42"/>
<text text-anchor="middle" x="486.48" y="-236.8" font-family="Times,serif" font-size="14.00">1</text>
</g>
<!-- write_raw_tfrecords -->
<g id="node5" class="node">
<title>write_raw_tfrecords</title>
<ellipse fill="none" stroke="black" cx="690.16" cy="-91" rx="104" ry="18"/>
<text text-anchor="middle" x="690.16" y="-87.3" font-family="Times,serif" font-size="14.00">write_raw_tfrecords</text>
</g>
<!-- perform_task&#45;&gt;write_raw_tfrecords -->
<g id="edge4" class="edge">
<title>perform_task&#45;&gt;write_raw_tfrecords</title>
<path fill="none" stroke="black" d="M392.91,-162.55C414.9,-157.88 440.42,-152.33 463.48,-147 516.68,-134.69 576.67,-119.75 621.42,-108.4"/>
<polygon fill="black" stroke="black" points="622.47,-111.74 631.3,-105.89 620.75,-104.96 622.47,-111.74"/>
<text text-anchor="middle" x="486.48" y="-146.8" font-family="Times,serif" font-size="14.00">4</text>
</g>
<!-- transform_tfrecords -->
<g id="node6" class="node">
<title>transform_tfrecords</title>
<ellipse fill="none" stroke="black" cx="690.16" cy="-26" rx="104" ry="18"/>
<text text-anchor="middle" x="690.16" y="-22.3" font-family="Times,serif" font-size="14.00">transform_tfrecords</text>
</g>
<!-- perform_task&#45;&gt;transform_tfrecords -->
<g id="edge5" class="edge">
<title>perform_task&#45;&gt;transform_tfrecords</title>
<path fill="none" stroke="black" d="M407.1,-169.83C426.78,-165.94 447.25,-159.04 463.48,-147 480.42,-134.44 492.52,-76.53 509.48,-64 530.19,-48.69 555.72,-39.26 580.97,-33.52"/>
<polygon fill="black" stroke="black" points="581.92,-36.9 590.99,-31.42 580.49,-30.04 581.92,-36.9"/>
<text text-anchor="middle" x="486.48" y="-119.8" font-family="Times,serif" font-size="14.00">7</text>
</g>
<!-- train_and_predict_embedding_model&#45;&gt;perform_task -->
<g id="edge6" class="edge">
<title>train_and_predict_embedding_model&#45;&gt;perform_task</title>
<path fill="none" stroke="black" d="M613.94,-233.62C570.06,-224.08 513.64,-211.83 463.48,-201 443.41,-196.67 421.53,-191.96 401.74,-187.71"/>
<polygon fill="black" stroke="black" points="402.41,-184.27 391.9,-185.6 400.94,-191.12 402.41,-184.27"/>
<text text-anchor="middle" x="486.48" y="-209.8" font-family="Times,serif" font-size="14.00">3</text>
</g>
<!-- train_and_predict_embedding_model&#45;&gt;perform_task -->
<g id="edge7" class="edge">
<title>train_and_predict_embedding_model&#45;&gt;perform_task</title>
<path fill="none" stroke="black" d="M646.02,-232.39C606.51,-217.09 546.06,-195.76 491.48,-185 468.26,-180.43 442.75,-177.7 419.29,-176.09"/>
<polygon fill="black" stroke="black" points="419.22,-172.58 409.02,-175.45 418.78,-179.57 419.22,-172.58"/>
<text text-anchor="middle" x="486.48" y="-188.8" font-family="Times,serif" font-size="14.00">6</text>
</g>
<!-- check_prerequisites -->
<g id="node7" class="node">
<title>check_prerequisites</title>
<ellipse fill="none" stroke="black" cx="1068.8" cy="-390" rx="103.5" ry="18"/>
<text text-anchor="middle" x="1068.8" y="-386.3" font-family="Times,serif" font-size="14.00">check_prerequisites</text>
</g>
<!-- train_and_predict_embedding_model&#45;&gt;check_prerequisites -->
<g id="edge8" class="edge">
<title>train_and_predict_embedding_model&#45;&gt;check_prerequisites</title>
<path fill="none" stroke="black" d="M713.92,-267.97C749.15,-294.72 820.03,-344.41 888.85,-368 910.87,-375.55 935.21,-380.57 958.66,-383.89"/>
<polygon fill="black" stroke="black" points="958.27,-387.37 968.64,-385.22 959.19,-380.43 958.27,-387.37"/>
<text text-anchor="middle" x="898.35" y="-376.8" font-family="Times,serif" font-size="14.00">2</text>
</g>
<!-- train_and_predict_embedding_model&#45;&gt;check_prerequisites -->
<g id="edge9" class="edge">
<title>train_and_predict_embedding_model&#45;&gt;check_prerequisites</title>
<path fill="none" stroke="black" d="M737.54,-267.53C782.52,-285.36 851.96,-315.13 907.85,-349 916.51,-354.25 916.61,-358.83 925.85,-363 940.01,-369.4 955.63,-374.28 971.17,-378.01"/>
<polygon fill="black" stroke="black" points="970.84,-381.52 981.36,-380.3 972.37,-374.69 970.84,-381.52"/>
<text text-anchor="middle" x="898.35" y="-352.8" font-family="Times,serif" font-size="14.00">9</text>
</g>
<!-- build_raw_inputs -->
<g id="node8" class="node">
<title>build_raw_inputs</title>
<ellipse fill="none" stroke="black" cx="1068.8" cy="-336" rx="89.88" ry="18"/>
<text text-anchor="middle" x="1068.8" y="-332.3" font-family="Times,serif" font-size="14.00">build_raw_inputs</text>
</g>
<!-- train_and_predict_embedding_model&#45;&gt;build_raw_inputs -->
<g id="edge10" class="edge">
<title>train_and_predict_embedding_model&#45;&gt;build_raw_inputs</title>
<path fill="none" stroke="black" d="M754.18,-266.9C801.29,-279.28 867.38,-296.1 925.85,-309 947,-313.67 970.04,-318.26 991.28,-322.29"/>
<polygon fill="black" stroke="black" points="990.72,-325.75 1001.2,-324.16 992.02,-318.87 990.72,-325.75"/>
<text text-anchor="middle" x="898.35" y="-307.8" font-family="Times,serif" font-size="14.00">10</text>
</g>
<!-- get_single_batched_example -->
<g id="node9" class="node">
<title>get_single_batched_example</title>
<ellipse fill="none" stroke="black" cx="1068.8" cy="-282" rx="143" ry="18"/>
<text text-anchor="middle" x="1068.8" y="-278.3" font-family="Times,serif" font-size="14.00">get_single_batched_example</text>
</g>
<!-- train_and_predict_embedding_model&#45;&gt;get_single_batched_example -->
<g id="edge11" class="edge">
<title>train_and_predict_embedding_model&#45;&gt;get_single_batched_example</title>
<path fill="none" stroke="black" d="M828.22,-261.64C864.66,-264.74 903.86,-268.07 939.8,-271.12"/>
<polygon fill="black" stroke="black" points="939.58,-274.61 949.84,-271.98 940.18,-267.64 939.58,-274.61"/>
<text text-anchor="middle" x="898.35" y="-270.8" font-family="Times,serif" font-size="14.00">11</text>
</g>
<!-- get_tft_transform_output -->
<g id="node10" class="node">
<title>get_tft_transform_output</title>
<ellipse fill="none" stroke="black" cx="1407.9" cy="-363" rx="127.5" ry="18"/>
<text text-anchor="middle" x="1407.9" y="-359.3" font-family="Times,serif" font-size="14.00">get_tft_transform_output</text>
</g>
<!-- train_and_predict_embedding_model&#45;&gt;get_tft_transform_output -->
<g id="edge12" class="edge">
<title>train_and_predict_embedding_model&#45;&gt;get_tft_transform_output</title>
<path fill="none" stroke="black" d="M772.03,-233.91C876.09,-216.47 1061.4,-196.51 1211.8,-240 1278.1,-259.14 1343.4,-308.18 1379.2,-338.24"/>
<polygon fill="black" stroke="black" points="1377.32,-341.24 1387.2,-345.08 1381.87,-335.92 1377.32,-341.24"/>
<text text-anchor="middle" x="1068.8" y="-243.8" font-family="Times,serif" font-size="14.00">13</text>
</g>
<!-- build_transformed_inputs -->
<g id="node11" class="node">
<title>build_transformed_inputs</title>
<ellipse fill="none" stroke="black" cx="1068.8" cy="-177" rx="130" ry="18"/>
<text text-anchor="middle" x="1068.8" y="-173.3" font-family="Times,serif" font-size="14.00">build_transformed_inputs</text>
</g>
<!-- train_and_predict_embedding_model&#45;&gt;build_transformed_inputs -->
<g id="edge13" class="edge">
<title>train_and_predict_embedding_model&#45;&gt;build_transformed_inputs</title>
<path fill="none" stroke="black" d="M754.02,-233.04C792.7,-223.03 843.4,-210.67 888.85,-202 911.9,-197.6 936.77,-193.64 960.42,-190.23"/>
<polygon fill="black" stroke="black" points="961.07,-193.67 970.48,-188.81 960.09,-186.74 961.07,-193.67"/>
<text text-anchor="middle" x="898.35" y="-205.8" font-family="Times,serif" font-size="14.00">14</text>
</g>
<!-- build_dnn_and_keras_inputs -->
<g id="node12" class="node">
<title>build_dnn_and_keras_inputs</title>
<ellipse fill="none" stroke="black" cx="1407.9" cy="-105" rx="141.07" ry="18"/>
<text text-anchor="middle" x="1407.9" y="-101.3" font-family="Times,serif" font-size="14.00">build_dnn_and_keras_inputs</text>
</g>
<!-- train_and_predict_embedding_model&#45;&gt;build_dnn_and_keras_inputs -->
<g id="edge14" class="edge">
<title>train_and_predict_embedding_model&#45;&gt;build_dnn_and_keras_inputs</title>
<path fill="none" stroke="black" d="M718.64,-232.03C761.08,-205.35 846.02,-156.15 925.85,-135 957.82,-126.53 1133.8,-117.08 1263.7,-111.09"/>
<polygon fill="black" stroke="black" points="1263.97,-114.58 1273.8,-110.63 1263.65,-107.59 1263.97,-114.58"/>
<text text-anchor="middle" x="1068.8" y="-138.8" font-family="Times,serif" font-size="14.00">15</text>
</g>
<!-- build_embedding_model -->
<g id="node13" class="node">
<title>build_embedding_model</title>
<ellipse fill="none" stroke="black" cx="1068.8" cy="-72" rx="123" ry="18"/>
<text text-anchor="middle" x="1068.8" y="-68.3" font-family="Times,serif" font-size="14.00">build_embedding_model</text>
</g>
<!-- train_and_predict_embedding_model&#45;&gt;build_embedding_model -->
<g id="edge15" class="edge">
<title>train_and_predict_embedding_model&#45;&gt;build_embedding_model</title>
<path fill="none" stroke="black" d="M719.46,-232.15C756.2,-208.32 821.47,-163.81 870.85,-118 879.86,-109.64 878.06,-102.9 888.85,-97 904.29,-88.55 921.57,-82.61 939.13,-78.47"/>
<polygon fill="black" stroke="black" points="939.87,-81.89 948.9,-76.36 938.39,-75.05 939.87,-81.89"/>
<text text-anchor="middle" x="898.35" y="-100.8" font-family="Times,serif" font-size="14.00">16</text>
</g>
<!-- get_transformed_dataset -->
<g id="node14" class="node">
<title>get_transformed_dataset</title>
<ellipse fill="none" stroke="black" cx="1068.8" cy="-498" rx="126.98" ry="18"/>
<text text-anchor="middle" x="1068.8" y="-494.3" font-family="Times,serif" font-size="14.00">get_transformed_dataset</text>
</g>
<!-- train_and_predict_embedding_model&#45;&gt;get_transformed_dataset -->
<g id="edge16" class="edge">
<title>train_and_predict_embedding_model&#45;&gt;get_transformed_dataset</title>
<path fill="none" stroke="black" d="M704.4,-268.18C736.81,-311.2 824.89,-419.51 925.85,-471 936.32,-476.34 947.73,-480.64 959.36,-484.08"/>
<polygon fill="black" stroke="black" points="958.61,-487.5 969.18,-486.78 960.47,-480.75 958.61,-487.5"/>
<text text-anchor="middle" x="898.35" y="-461.8" font-family="Times,serif" font-size="14.00">18</text>
</g>
<!-- build_end_to_end_model -->
<g id="node15" class="node">
<title>build_end_to_end_model</title>
<ellipse fill="none" stroke="black" cx="1068.8" cy="-444" rx="123.5" ry="18"/>
<text text-anchor="middle" x="1068.8" y="-440.3" font-family="Times,serif" font-size="14.00">build_end_to_end_model</text>
</g>
<!-- train_and_predict_embedding_model&#45;&gt;build_end_to_end_model -->
<g id="edge17" class="edge">
<title>train_and_predict_embedding_model&#45;&gt;build_end_to_end_model</title>
<path fill="none" stroke="black" d="M710.01,-268.13C747.63,-303.18 836.16,-380.02 925.85,-417 938.45,-422.2 952.09,-426.4 965.77,-429.8"/>
<polygon fill="black" stroke="black" points="965.19,-433.26 975.73,-432.14 966.8,-426.45 965.19,-433.26"/>
<text text-anchor="middle" x="898.35" y="-410.8" font-family="Times,serif" font-size="14.00">21</text>
</g>
<!-- pipeline_function -->
<g id="node16" class="node">
<title>pipeline_function</title>
<ellipse fill="none" stroke="black" cx="1068.8" cy="-18" rx="90.5" ry="18"/>
<text text-anchor="middle" x="1068.8" y="-14.3" font-family="Times,serif" font-size="14.00">pipeline_function</text>
</g>
<!-- write_raw_tfrecords&#45;&gt;pipeline_function -->
<g id="edge18" class="edge">
<title>write_raw_tfrecords&#45;&gt;pipeline_function</title>
<path fill="none" stroke="black" d="M759.43,-77.51C806.25,-68.29 869.79,-55.82 925.85,-45 947.44,-40.83 970.88,-36.35 992.38,-32.27"/>
<polygon fill="black" stroke="black" points="993.23,-35.67 1002.4,-30.36 991.92,-28.79 993.23,-35.67"/>
<text text-anchor="middle" x="898.35" y="-55.8" font-family="Times,serif" font-size="14.00">5</text>
</g>
<!-- transform_tfrecords&#45;&gt;pipeline_function -->
<g id="edge19" class="edge">
<title>transform_tfrecords&#45;&gt;pipeline_function</title>
<path fill="none" stroke="black" d="M793,-23.26C823.79,-22.47 857.7,-21.66 888.85,-21 914.49,-20.46 942.21,-19.96 968,-19.52"/>
<polygon fill="black" stroke="black" points="968.22,-23.02 978.16,-19.35 968.1,-16.02 968.22,-23.02"/>
<text text-anchor="middle" x="898.35" y="-24.8" font-family="Times,serif" font-size="14.00">8</text>
</g>
<!-- get_single_batched_example&#45;&gt;get_tft_transform_output -->
<g id="edge20" class="edge">
<title>get_single_batched_example&#45;&gt;get_tft_transform_output</title>
<path fill="none" stroke="black" d="M1153.1,-296.64C1172.4,-300.37 1192.9,-304.59 1211.8,-309 1255.8,-319.25 1304.8,-332.82 1342.7,-343.79"/>
<polygon fill="black" stroke="black" points="1341.92,-347.21 1352.5,-346.66 1343.89,-340.49 1341.92,-347.21"/>
<text text-anchor="middle" x="1239.3" y="-319.8" font-family="Times,serif" font-size="14.00">12</text>
</g>
<!-- build_embedding_model&#45;&gt;build_dnn_and_keras_inputs -->
<g id="edge21" class="edge">
<title>build_embedding_model&#45;&gt;build_dnn_and_keras_inputs</title>
<path fill="none" stroke="black" d="M1171.4,-81.95C1207.2,-85.45 1247.8,-89.42 1285.1,-93.08"/>
<polygon fill="black" stroke="black" points="1285.21,-96.6 1295.5,-94.1 1285.89,-89.64 1285.21,-96.6"/>
<text text-anchor="middle" x="1239.3" y="-93.8" font-family="Times,serif" font-size="14.00">17</text>
</g>
<!-- get_transformed_dataset&#45;&gt;get_tft_transform_output -->
<g id="edge22" class="edge">
<title>get_transformed_dataset&#45;&gt;get_tft_transform_output</title>
<path fill="none" stroke="black" d="M1159.6,-485.41C1177.2,-481.69 1195.3,-476.97 1211.8,-471 1271.7,-449.38 1335,-411.02 1372.8,-386.31"/>
<polygon fill="black" stroke="black" points="1374.92,-389.11 1381.3,-380.65 1371.04,-383.28 1374.92,-389.11"/>
<text text-anchor="middle" x="1239.3" y="-465.8" font-family="Times,serif" font-size="14.00">19</text>
</g>
<!-- build_end_to_end_model&#45;&gt;get_tft_transform_output -->
<g id="edge23" class="edge">
<title>build_end_to_end_model&#45;&gt;get_tft_transform_output</title>
<path fill="none" stroke="black" d="M1148.6,-430.22C1169.2,-426.28 1191.4,-421.76 1211.8,-417 1255.8,-406.75 1304.8,-393.18 1342.7,-382.21"/>
<polygon fill="black" stroke="black" points="1343.89,-385.51 1352.5,-379.34 1341.92,-378.79 1343.89,-385.51"/>
<text text-anchor="middle" x="1239.3" y="-414.8" font-family="Times,serif" font-size="14.00">22</text>
</g>
<!-- converted_call -->
<g id="node17" class="node">
<title>converted_call</title>
<ellipse fill="none" stroke="orange" cx="77.5" cy="-228" rx="77.5" ry="18"/>
<text text-anchor="middle" x="77.5" y="-224.3" font-family="Times,serif" font-size="14.00">converted_call</text>
</g>
<!-- map_features_and_labels -->
<g id="node18" class="node">
<title>map_features_and_labels</title>
<ellipse fill="none" stroke="black" cx="336.74" cy="-228" rx="126.98" ry="18"/>
<text text-anchor="middle" x="336.74" y="-224.3" font-family="Times,serif" font-size="14.00">map_features_and_labels</text>
</g>
<!-- converted_call&#45;&gt;map_features_and_labels -->
<g id="edge24" class="edge">
<title>converted_call&#45;&gt;map_features_and_labels</title>
<path fill="none" stroke="black" d="M155.33,-228C169.42,-228 184.5,-228 199.72,-228"/>
<polygon fill="black" stroke="black" points="199.74,-231.5 209.74,-228 199.74,-224.5 199.74,-231.5"/>
<text text-anchor="middle" x="182.5" y="-231.8" font-family="Times,serif" font-size="14.00">20</text>
</g>
</g>
</svg>
