<?xml version="1.0" encoding="UTF-8" standalone="no"?>
<!DOCTYPE svg PUBLIC "-//W3C//DTD SVG 1.1//EN"
 "http://www.w3.org/Graphics/SVG/1.1/DTD/svg11.dtd">
<!-- Generated by graphviz version 2.48.0 (0)
 -->
<!-- Pages: 1 -->
<svg width="2109pt" height="392pt"
 viewBox="0.00 0.00 2108.74 392.00" xmlns="http://www.w3.org/2000/svg" xmlns:xlink="http://www.w3.org/1999/xlink">
<g id="graph0" class="graph" transform="scale(1 1) rotate(0) translate(4 388)">
<polygon fill="white" stroke="transparent" points="-4,4 -4,-388 2104.74,-388 2104.74,4 -4,4"/>
<!-- main -->
<g id="node1" class="node">
<title>main</title>
<ellipse fill="none" stroke="black" cx="1622" cy="-366" rx="34" ry="18"/>
<text text-anchor="middle" x="1622" y="-362.3" font-family="Times,serif" font-size="14.00">main</text>
</g>
<!-- perform_task -->
<g id="node2" class="node">
<title>perform_task</title>
<ellipse fill="none" stroke="black" cx="1540" cy="-279" rx="72.29" ry="18"/>
<text text-anchor="middle" x="1540" y="-275.3" font-family="Times,serif" font-size="14.00">perform_task</text>
</g>
<!-- main&#45;&gt;perform_task -->
<g id="edge1" class="edge">
<title>main&#45;&gt;perform_task</title>
<path fill="none" stroke="black" d="M1607,-349.41C1594.7,-336.68 1577.1,-318.47 1563.1,-303.89"/>
<polygon fill="black" stroke="black" points="1565.57,-301.41 1556.1,-296.65 1560.53,-306.27 1565.57,-301.41"/>
<text text-anchor="middle" x="1591" y="-318.8" font-family="Times,serif" font-size="14.00">0</text>
</g>
<!-- closeout_task -->
<g id="node3" class="node">
<title>closeout_task</title>
<ellipse fill="none" stroke="black" cx="1704" cy="-279" rx="73.5" ry="18"/>
<text text-anchor="middle" x="1704" y="-275.3" font-family="Times,serif" font-size="14.00">closeout_task</text>
</g>
<!-- main&#45;&gt;closeout_task -->
<g id="edge2" class="edge">
<title>main&#45;&gt;closeout_task</title>
<path fill="none" stroke="black" d="M1637,-349.41C1649.3,-336.68 1666.9,-318.47 1680.9,-303.89"/>
<polygon fill="black" stroke="black" points="1683.47,-306.27 1687.9,-296.65 1678.43,-301.41 1683.47,-306.27"/>
<text text-anchor="middle" x="1677.5" y="-318.8" font-family="Times,serif" font-size="14.00">22</text>
</g>
<!-- train_and_predict_embedding_model -->
<g id="node4" class="node">
<title>train_and_predict_embedding_model</title>
<ellipse fill="none" stroke="black" cx="1192" cy="-192" rx="180.87" ry="18"/>
<text text-anchor="middle" x="1192" y="-188.3" font-family="Times,serif" font-size="14.00">train_and_predict_embedding_model</text>
</g>
<!-- perform_task&#45;&gt;train_and_predict_embedding_model -->
<g id="edge3" class="edge">
<title>perform_task&#45;&gt;train_and_predict_embedding_model</title>
<path fill="none" stroke="black" d="M1490.1,-265.82C1431.7,-251.54 1334.1,-227.71 1266.6,-211.23"/>
<polygon fill="black" stroke="black" points="1267.45,-207.83 1256.9,-208.85 1265.78,-214.63 1267.45,-207.83"/>
<text text-anchor="middle" x="1392" y="-231.8" font-family="Times,serif" font-size="14.00">1</text>
</g>
<!-- write_raw_tfrecords -->
<g id="node5" class="node">
<title>write_raw_tfrecords</title>
<ellipse fill="none" stroke="black" cx="1940" cy="-192" rx="104" ry="18"/>
<text text-anchor="middle" x="1940" y="-188.3" font-family="Times,serif" font-size="14.00">write_raw_tfrecords</text>
</g>
<!-- perform_task&#45;&gt;write_raw_tfrecords -->
<g id="edge4" class="edge">
<title>perform_task&#45;&gt;write_raw_tfrecords</title>
<path fill="none" stroke="black" d="M1593.1,-266.71C1663.5,-251.75 1788.1,-225.28 1867.2,-208.47"/>
<polygon fill="black" stroke="black" points="1868.04,-211.87 1877.1,-206.37 1866.59,-205.02 1868.04,-211.87"/>
<text text-anchor="middle" x="1768" y="-231.8" font-family="Times,serif" font-size="14.00">4</text>
</g>
<!-- transform_tfrecords -->
<g id="node6" class="node">
<title>transform_tfrecords</title>
<ellipse fill="none" stroke="black" cx="1643" cy="-192" rx="104" ry="18"/>
<text text-anchor="middle" x="1643" y="-188.3" font-family="Times,serif" font-size="14.00">transform_tfrecords</text>
</g>
<!-- perform_task&#45;&gt;transform_tfrecords -->
<g id="edge5" class="edge">
<title>perform_task&#45;&gt;transform_tfrecords</title>
<path fill="none" stroke="black" d="M1559.9,-261.61C1575.3,-248.84 1597,-230.94 1614.4,-216.62"/>
<polygon fill="black" stroke="black" points="1617.03,-218.99 1622.5,-209.92 1612.56,-213.6 1617.03,-218.99"/>
<text text-anchor="middle" x="1603" y="-231.8" font-family="Times,serif" font-size="14.00">7</text>
</g>
<!-- train_and_predict_embedding_model&#45;&gt;perform_task -->
<g id="edge6" class="edge">
<title>train_and_predict_embedding_model&#45;&gt;perform_task</title>
<path fill="none" stroke="black" d="M1296.4,-206.72C1330.1,-212.14 1367.4,-219.21 1401,-228 1433,-236.37 1468.1,-249.02 1495,-259.5"/>
<polygon fill="black" stroke="black" points="1494.01,-262.87 1504.6,-263.25 1496.56,-256.35 1494.01,-262.87"/>
<text text-anchor="middle" x="1453" y="-231.8" font-family="Times,serif" font-size="14.00">6</text>
</g>
<!-- check_prerequisites -->
<g id="node7" class="node">
<title>check_prerequisites</title>
<ellipse fill="none" stroke="black" cx="1597" cy="-105" rx="103.5" ry="18"/>
<text text-anchor="middle" x="1597" y="-101.3" font-family="Times,serif" font-size="14.00">check_prerequisites</text>
</g>
<!-- train_and_predict_embedding_model&#45;&gt;check_prerequisites -->
<g id="edge7" class="edge">
<title>train_and_predict_embedding_model&#45;&gt;check_prerequisites</title>
<path fill="none" stroke="black" d="M1265.8,-175.51C1339,-160.14 1450.6,-136.73 1523.6,-121.4"/>
<polygon fill="black" stroke="black" points="1524.63,-124.76 1533.7,-119.29 1523.2,-117.91 1524.63,-124.76"/>
<text text-anchor="middle" x="1424" y="-144.8" font-family="Times,serif" font-size="14.00">9</text>
</g>
<!-- build_raw_inputs -->
<g id="node8" class="node">
<title>build_raw_inputs</title>
<ellipse fill="none" stroke="black" cx="1808" cy="-105" rx="89.88" ry="18"/>
<text text-anchor="middle" x="1808" y="-101.3" font-family="Times,serif" font-size="14.00">build_raw_inputs</text>
</g>
<!-- train_and_predict_embedding_model&#45;&gt;build_raw_inputs -->
<g id="edge8" class="edge">
<title>train_and_predict_embedding_model&#45;&gt;build_raw_inputs</title>
<path fill="none" stroke="black" d="M1302.6,-177.73C1407.4,-164.85 1569.1,-144.2 1709,-123 1716.8,-121.81 1725,-120.51 1733.2,-119.17"/>
<polygon fill="black" stroke="black" points="1733.81,-122.62 1743.1,-117.52 1732.66,-115.71 1733.81,-122.62"/>
<text text-anchor="middle" x="1591.5" y="-144.8" font-family="Times,serif" font-size="14.00">10</text>
</g>
<!-- get_single_batched_example -->
<g id="node9" class="node">
<title>get_single_batched_example</title>
<ellipse fill="none" stroke="black" cx="143" cy="-105" rx="143" ry="18"/>
<text text-anchor="middle" x="143" y="-101.3" font-family="Times,serif" font-size="14.00">get_single_batched_example</text>
</g>
<!-- train_and_predict_embedding_model&#45;&gt;get_single_batched_example -->
<g id="edge9" class="edge">
<title>train_and_predict_embedding_model&#45;&gt;get_single_batched_example</title>
<path fill="none" stroke="black" d="M1011.8,-190.2C788.95,-188.13 422.6,-180.91 289,-156 255.19,-149.7 218.58,-137.14 190.47,-126.19"/>
<polygon fill="black" stroke="black" points="191.5,-122.83 180.91,-122.4 188.92,-129.34 191.5,-122.83"/>
<text text-anchor="middle" x="298.5" y="-144.8" font-family="Times,serif" font-size="14.00">11</text>
</g>
<!-- get_tft_transform_output -->
<g id="node10" class="node">
<title>get_tft_transform_output</title>
<ellipse fill="none" stroke="black" cx="441" cy="-18" rx="127.5" ry="18"/>
<text text-anchor="middle" x="441" y="-14.3" font-family="Times,serif" font-size="14.00">get_tft_transform_output</text>
</g>
<!-- train_and_predict_embedding_model&#45;&gt;get_tft_transform_output -->
<g id="edge10" class="edge">
<title>train_and_predict_embedding_model&#45;&gt;get_tft_transform_output</title>
<path fill="none" stroke="black" d="M1012.8,-189.54C774.02,-185.71 376.24,-171.95 331,-123 302.81,-92.5 351.35,-60.02 392.63,-39.63"/>
<polygon fill="black" stroke="black" points="394.33,-42.7 401.83,-35.22 391.3,-36.38 394.33,-42.7"/>
<text text-anchor="middle" x="340.5" y="-101.3" font-family="Times,serif" font-size="14.00">13</text>
</g>
<!-- build_transformed_inputs -->
<g id="node11" class="node">
<title>build_transformed_inputs</title>
<ellipse fill="none" stroke="black" cx="489" cy="-105" rx="130" ry="18"/>
<text text-anchor="middle" x="489" y="-101.3" font-family="Times,serif" font-size="14.00">build_transformed_inputs</text>
</g>
<!-- train_and_predict_embedding_model&#45;&gt;build_transformed_inputs -->
<g id="edge11" class="edge">
<title>train_and_predict_embedding_model&#45;&gt;build_transformed_inputs</title>
<path fill="none" stroke="black" d="M1081.5,-177.73C967.78,-164.07 785.51,-142.13 628,-123 616.59,-121.61 604.66,-120.16 592.78,-118.71"/>
<polygon fill="black" stroke="black" points="593.18,-115.23 582.83,-117.5 592.33,-122.18 593.18,-115.23"/>
<text text-anchor="middle" x="900.5" y="-144.8" font-family="Times,serif" font-size="14.00">14</text>
</g>
<!-- build_dnn_and_keras_inputs -->
<g id="node12" class="node">
<title>build_dnn_and_keras_inputs</title>
<ellipse fill="none" stroke="black" cx="1240" cy="-18" rx="141.07" ry="18"/>
<text text-anchor="middle" x="1240" y="-14.3" font-family="Times,serif" font-size="14.00">build_dnn_and_keras_inputs</text>
</g>
<!-- train_and_predict_embedding_model&#45;&gt;build_dnn_and_keras_inputs -->
<g id="edge12" class="edge">
<title>train_and_predict_embedding_model&#45;&gt;build_dnn_and_keras_inputs</title>
<path fill="none" stroke="black" d="M1191.3,-174C1190.8,-153.04 1191.7,-116.57 1201,-87 1205.7,-72.06 1214,-56.81 1221.8,-44.55"/>
<polygon fill="black" stroke="black" points="1224.72,-46.47 1227.3,-36.2 1218.88,-42.62 1224.72,-46.47"/>
<text text-anchor="middle" x="1210.5" y="-101.3" font-family="Times,serif" font-size="14.00">15</text>
</g>
<!-- build_embedding_model -->
<g id="node13" class="node">
<title>build_embedding_model</title>
<ellipse fill="none" stroke="black" cx="1352" cy="-105" rx="123" ry="18"/>
<text text-anchor="middle" x="1352" y="-101.3" font-family="Times,serif" font-size="14.00">build_embedding_model</text>
</g>
<!-- train_and_predict_embedding_model&#45;&gt;build_embedding_model -->
<g id="edge13" class="edge">
<title>train_and_predict_embedding_model&#45;&gt;build_embedding_model</title>
<path fill="none" stroke="black" d="M1223.6,-174.21C1249,-160.73 1284.7,-141.73 1312.1,-127.21"/>
<polygon fill="black" stroke="black" points="1313.82,-130.26 1321,-122.47 1310.53,-124.08 1313.82,-130.26"/>
<text text-anchor="middle" x="1291.5" y="-144.8" font-family="Times,serif" font-size="14.00">16</text>
</g>
<!-- get_transformed_dataset -->
<g id="node14" class="node">
<title>get_transformed_dataset</title>
<ellipse fill="none" stroke="black" cx="764" cy="-105" rx="126.98" ry="18"/>
<text text-anchor="middle" x="764" y="-101.3" font-family="Times,serif" font-size="14.00">get_transformed_dataset</text>
</g>
<!-- train_and_predict_embedding_model&#45;&gt;get_transformed_dataset -->
<g id="edge14" class="edge">
<title>train_and_predict_embedding_model&#45;&gt;get_transformed_dataset</title>
<path fill="none" stroke="black" d="M1115,-175.71C1038.6,-160.54 922.14,-137.41 844.57,-122"/>
<polygon fill="black" stroke="black" points="844.85,-118.49 834.36,-119.97 843.49,-125.35 844.85,-118.49"/>
<text text-anchor="middle" x="1013.5" y="-144.8" font-family="Times,serif" font-size="14.00">18</text>
</g>
<!-- build_end_to_end_model -->
<g id="node15" class="node">
<title>build_end_to_end_model</title>
<ellipse fill="none" stroke="black" cx="1032" cy="-105" rx="123.5" ry="18"/>
<text text-anchor="middle" x="1032" y="-101.3" font-family="Times,serif" font-size="14.00">build_end_to_end_model</text>
</g>
<!-- train_and_predict_embedding_model&#45;&gt;build_end_to_end_model -->
<g id="edge15" class="edge">
<title>train_and_predict_embedding_model&#45;&gt;build_end_to_end_model</title>
<path fill="none" stroke="black" d="M1160.4,-174.21C1135,-160.73 1099.3,-141.73 1071.9,-127.21"/>
<polygon fill="black" stroke="black" points="1073.47,-124.08 1063,-122.47 1070.18,-130.26 1073.47,-124.08"/>
<text text-anchor="middle" x="1131.5" y="-144.8" font-family="Times,serif" font-size="14.00">20</text>
</g>
<!-- pipeline_function -->
<g id="node16" class="node">
<title>pipeline_function</title>
<ellipse fill="none" stroke="black" cx="2006" cy="-105" rx="90.5" ry="18"/>
<text text-anchor="middle" x="2006" y="-101.3" font-family="Times,serif" font-size="14.00">pipeline_function</text>
</g>
<!-- write_raw_tfrecords&#45;&gt;pipeline_function -->
<g id="edge16" class="edge">
<title>write_raw_tfrecords&#45;&gt;pipeline_function</title>
<path fill="none" stroke="black" d="M1953.4,-173.8C1962.9,-161.51 1975.9,-144.77 1986.6,-131.01"/>
<polygon fill="black" stroke="black" points="1989.54,-132.94 1992.9,-122.89 1984,-128.65 1989.54,-132.94"/>
<text text-anchor="middle" x="1981" y="-144.8" font-family="Times,serif" font-size="14.00">5</text>
</g>
<!-- transform_tfrecords&#45;&gt;pipeline_function -->
<g id="edge17" class="edge">
<title>transform_tfrecords&#45;&gt;pipeline_function</title>
<path fill="none" stroke="black" d="M1716.1,-179.04C1751,-172.91 1793.4,-164.86 1831,-156 1871,-146.58 1915.6,-133.81 1949.7,-123.54"/>
<polygon fill="black" stroke="black" points="1950.94,-126.82 1959.5,-120.57 1948.91,-120.12 1950.94,-126.82"/>
<text text-anchor="middle" x="1894" y="-144.8" font-family="Times,serif" font-size="14.00">8</text>
</g>
<!-- get_single_batched_example&#45;&gt;get_tft_transform_output -->
<g id="edge18" class="edge">
<title>get_single_batched_example&#45;&gt;get_tft_transform_output</title>
<path fill="none" stroke="black" d="M186.39,-87.82C215.23,-77.39 254.09,-63.97 289,-54 312.7,-47.23 338.75,-40.86 362.5,-35.45"/>
<polygon fill="black" stroke="black" points="363.53,-38.8 372.52,-33.19 362,-31.97 363.53,-38.8"/>
<text text-anchor="middle" x="298.5" y="-57.8" font-family="Times,serif" font-size="14.00">12</text>
</g>
<!-- build_embedding_model&#45;&gt;build_dnn_and_keras_inputs -->
<g id="edge19" class="edge">
<title>build_embedding_model&#45;&gt;build_dnn_and_keras_inputs</title>
<path fill="none" stroke="black" d="M1329.9,-87.21C1312.9,-74.31 1289.2,-56.35 1270.4,-42.1"/>
<polygon fill="black" stroke="black" points="1272.57,-39.35 1262.5,-36.05 1268.31,-44.91 1272.57,-39.35"/>
<text text-anchor="middle" x="1312.5" y="-57.8" font-family="Times,serif" font-size="14.00">17</text>
</g>
<!-- get_transformed_dataset&#45;&gt;get_tft_transform_output -->
<g id="edge20" class="edge">
<title>get_transformed_dataset&#45;&gt;get_tft_transform_output</title>
<path fill="none" stroke="black" d="M706.63,-88.9C651.1,-74.29 566.95,-52.15 508.3,-36.71"/>
<polygon fill="black" stroke="black" points="508.94,-33.26 498.38,-34.1 507.16,-40.03 508.94,-33.26"/>
<text text-anchor="middle" x="631.5" y="-57.8" font-family="Times,serif" font-size="14.00">19</text>
</g>
<!-- build_end_to_end_model&#45;&gt;get_tft_transform_output -->
<g id="edge21" class="edge">
<title>build_end_to_end_model&#45;&gt;get_tft_transform_output</title>
<path fill="none" stroke="black" d="M947.32,-91.82C838.73,-76.2 650.88,-49.19 537.06,-32.81"/>
<polygon fill="black" stroke="black" points="537.36,-29.32 526.96,-31.36 536.36,-36.25 537.36,-29.32"/>
<text text-anchor="middle" x="781.5" y="-57.8" font-family="Times,serif" font-size="14.00">21</text>
</g>
<!-- converted_call -->
<g id="node17" class="node">
<title>converted_call</title>
<ellipse fill="none" stroke="orange" cx="1752" cy="-366" rx="77.5" ry="18"/>
<text text-anchor="middle" x="1752" y="-362.3" font-family="Times,serif" font-size="14.00">converted_call</text>
</g>
<!-- map_features_and_labels -->
<g id="node18" class="node">
<title>map_features_and_labels</title>
<ellipse fill="none" stroke="black" cx="1974" cy="-366" rx="126.98" ry="18"/>
<text text-anchor="middle" x="1974" y="-362.3" font-family="Times,serif" font-size="14.00">map_features_and_labels</text>
</g>
</g>
</svg>
