<?xml version="1.0" encoding="UTF-8" standalone="no"?>
<!DOCTYPE svg PUBLIC "-//W3C//DTD SVG 1.1//EN"
 "http://www.w3.org/Graphics/SVG/1.1/DTD/svg11.dtd">
<!-- Generated by graphviz version 2.48.0 (0)
 -->
<!-- Pages: 1 -->
<svg width="1626pt" height="1242pt"
 viewBox="0.00 0.00 1625.94 1242.31" xmlns="http://www.w3.org/2000/svg" xmlns:xlink="http://www.w3.org/1999/xlink">
<g id="graph0" class="graph" transform="scale(1 1) rotate(0) translate(4 1238.31)">
<polygon fill="white" stroke="transparent" points="-4,4 -4,-1238.31 1621.94,-1238.31 1621.94,4 -4,4"/>
<!-- main -->
<g id="node1" class="node">
<title>main</title>
<ellipse fill="none" stroke="black" cx="77.5" cy="-966.33" rx="34" ry="18"/>
<text text-anchor="middle" x="77.5" y="-962.63" font-family="Times,serif" font-size="14.00">main</text>
</g>
<!-- perform_task -->
<g id="node2" class="node">
<title>perform_task</title>
<ellipse fill="none" stroke="black" cx="336.74" cy="-985.33" rx="72.29" ry="18"/>
<text text-anchor="middle" x="336.74" y="-981.63" font-family="Times,serif" font-size="14.00">perform_task</text>
</g>
<!-- main&#45;&gt;perform_task -->
<g id="edge1" class="edge">
<title>main&#45;&gt;perform_task</title>
<path fill="none" stroke="black" d="M111.34,-968.75C147.89,-971.45 208.23,-975.91 257.14,-979.52"/>
<polygon fill="black" stroke="black" points="257.16,-983.03 267.39,-980.28 257.68,-976.05 257.16,-983.03"/>
<text text-anchor="middle" x="182.5" y="-979.13" font-family="Times,serif" font-size="14.00">0</text>
</g>
<!-- main&#45;&gt;perform_task -->
<g id="edge2" class="edge">
<title>main&#45;&gt;perform_task</title>
<path fill="none" stroke="black" d="M110.78,-961.63C129.01,-959.22 152.22,-956.53 173,-955.33 209.62,-953.2 250.19,-960.66 281.67,-968.67"/>
<polygon fill="black" stroke="black" points="280.99,-972.11 291.55,-971.28 282.78,-965.34 280.99,-972.11"/>
<text text-anchor="middle" x="182.5" y="-959.13" font-family="Times,serif" font-size="14.00">2</text>
</g>
<!-- main&#45;&gt;perform_task -->
<g id="edge3" class="edge">
<title>main&#45;&gt;perform_task</title>
<path fill="none" stroke="black" d="M104.86,-955.55C123.53,-948.52 149.36,-939.99 173,-936.33 217.19,-929.48 266.09,-947.91 298.63,-964.09"/>
<polygon fill="black" stroke="black" points="297.29,-967.33 307.78,-968.79 300.48,-961.11 297.29,-967.33"/>
<text text-anchor="middle" x="182.5" y="-940.13" font-family="Times,serif" font-size="14.00">5</text>
</g>
<!-- main&#45;&gt;perform_task -->
<g id="edge4" class="edge">
<title>main&#45;&gt;perform_task</title>
<path fill="none" stroke="black" d="M95.86,-950.75C117.52,-933.21 156.1,-908.16 192,-916.33 231.7,-925.36 273.23,-946.79 301.38,-963.39"/>
<polygon fill="black" stroke="black" points="299.66,-966.44 310.03,-968.59 303.26,-960.44 299.66,-966.44"/>
<text text-anchor="middle" x="182.5" y="-920.13" font-family="Times,serif" font-size="14.00">8</text>
</g>
<!-- main&#45;&gt;perform_task -->
<g id="edge5" class="edge">
<title>main&#45;&gt;perform_task</title>
<path fill="none" stroke="black" d="M87.14,-983.95C101.06,-1010.06 131.18,-1058.01 173,-1077.31 226.19,-1101.91 285.29,-1046.11 315.51,-1011.01"/>
<polygon fill="black" stroke="black" points="318.46,-1012.94 322.21,-1003.03 313.1,-1008.44 318.46,-1012.94"/>
<text text-anchor="middle" x="182.5" y="-1086.11" font-family="Times,serif" font-size="14.00">18</text>
</g>
<!-- main&#45;&gt;perform_task -->
<g id="edge6" class="edge">
<title>main&#45;&gt;perform_task</title>
<path fill="none" stroke="black" d="M92.94,-982.61C110,-1000.49 140.23,-1028.11 173,-1039.31 218.58,-1054.91 271.55,-1029.21 304.36,-1008.2"/>
<polygon fill="black" stroke="black" points="306.65,-1010.88 313.06,-1002.44 302.79,-1005.04 306.65,-1010.88"/>
<text text-anchor="middle" x="182.5" y="-1048.11" font-family="Times,serif" font-size="14.00">29</text>
</g>
<!-- main&#45;&gt;perform_task -->
<g id="edge7" class="edge">
<title>main&#45;&gt;perform_task</title>
<path fill="none" stroke="black" d="M105.74,-976.67C124.37,-983.18 149.8,-990.96 173,-994.33 202.68,-998.63 235.68,-997.83 264.16,-995.41"/>
<polygon fill="black" stroke="black" points="264.8,-998.86 274.43,-994.45 264.15,-991.89 264.8,-998.86"/>
<text text-anchor="middle" x="182.5" y="-1000.13" font-family="Times,serif" font-size="14.00">42</text>
</g>
<!-- closeout_task -->
<g id="node3" class="node">
<title>closeout_task</title>
<ellipse fill="none" stroke="black" cx="336.74" cy="-833.33" rx="73.5" ry="18"/>
<text text-anchor="middle" x="336.74" y="-829.63" font-family="Times,serif" font-size="14.00">closeout_task</text>
</g>
<!-- main&#45;&gt;closeout_task -->
<g id="edge8" class="edge">
<title>main&#45;&gt;closeout_task</title>
<path fill="none" stroke="black" d="M95.99,-951.11C114.25,-935.78 144.21,-912.19 173,-896.33 207.15,-877.52 248.09,-861.7 280.36,-850.62"/>
<polygon fill="black" stroke="black" points="281.73,-853.85 290.08,-847.33 279.49,-847.22 281.73,-853.85"/>
<text text-anchor="middle" x="182.5" y="-900.13" font-family="Times,serif" font-size="14.00">58</text>
</g>
<!-- clean_directory -->
<g id="node4" class="node">
<title>clean_directory</title>
<ellipse fill="none" stroke="black" cx="699.16" cy="-1147.31" rx="82" ry="18"/>
<text text-anchor="middle" x="699.16" y="-1143.61" font-family="Times,serif" font-size="14.00">clean_directory</text>
</g>
<!-- perform_task&#45;&gt;clean_directory -->
<g id="edge9" class="edge">
<title>perform_task&#45;&gt;clean_directory</title>
<path fill="none" stroke="black" d="M354.84,-1002.84C384.9,-1032.41 450.53,-1092.01 518.48,-1120.31 546.47,-1132.01 578.79,-1138.71 608.23,-1142.51"/>
<polygon fill="black" stroke="black" points="608.15,-1146.03 618.51,-1143.81 609.03,-1139.08 608.15,-1146.03"/>
<text text-anchor="middle" x="490.98" y="-1113.11" font-family="Times,serif" font-size="14.00">1</text>
</g>
<!-- write_raw_tfrecords -->
<g id="node5" class="node">
<title>write_raw_tfrecords</title>
<ellipse fill="none" stroke="black" cx="699.16" cy="-1039.31" rx="104" ry="18"/>
<text text-anchor="middle" x="699.16" y="-1035.61" font-family="Times,serif" font-size="14.00">write_raw_tfrecords</text>
</g>
<!-- perform_task&#45;&gt;write_raw_tfrecords -->
<g id="edge10" class="edge">
<title>perform_task&#45;&gt;write_raw_tfrecords</title>
<path fill="none" stroke="black" d="M398.88,-994.49C456.86,-1003.17 544.6,-1016.32 610.11,-1026.11"/>
<polygon fill="black" stroke="black" points="609.61,-1029.57 620.02,-1027.61 610.66,-1022.65 609.61,-1029.57"/>
<text text-anchor="middle" x="490.98" y="-1013.13" font-family="Times,serif" font-size="14.00">3</text>
</g>
<!-- transform_tfrecords -->
<g id="node6" class="node">
<title>transform_tfrecords</title>
<ellipse fill="none" stroke="black" cx="699.16" cy="-1093.31" rx="104" ry="18"/>
<text text-anchor="middle" x="699.16" y="-1089.61" font-family="Times,serif" font-size="14.00">transform_tfrecords</text>
</g>
<!-- perform_task&#45;&gt;transform_tfrecords -->
<g id="edge11" class="edge">
<title>perform_task&#45;&gt;transform_tfrecords</title>
<path fill="none" stroke="black" d="M367.48,-1001.7C402.53,-1020.27 463.04,-1050.11 518.48,-1066.31 543.71,-1073.71 571.56,-1079.21 597.65,-1083.11"/>
<polygon fill="black" stroke="black" points="597.14,-1086.57 607.55,-1084.61 598.19,-1079.65 597.14,-1086.57"/>
<text text-anchor="middle" x="490.98" y="-1063.11" font-family="Times,serif" font-size="14.00">6</text>
</g>
<!-- view_transformed_sample_data -->
<g id="node7" class="node">
<title>view_transformed_sample_data</title>
<ellipse fill="none" stroke="black" cx="699.16" cy="-985.33" rx="156.77" ry="18"/>
<text text-anchor="middle" x="699.16" y="-981.63" font-family="Times,serif" font-size="14.00">view_transformed_sample_data</text>
</g>
<!-- perform_task&#45;&gt;view_transformed_sample_data -->
<g id="edge12" class="edge">
<title>perform_task&#45;&gt;view_transformed_sample_data</title>
<path fill="none" stroke="black" d="M408.95,-985.33C444.44,-985.33 488.98,-985.33 532.39,-985.33"/>
<polygon fill="black" stroke="black" points="532.5,-988.83 542.5,-985.33 532.5,-981.83 532.5,-988.83"/>
<text text-anchor="middle" x="490.98" y="-989.13" font-family="Times,serif" font-size="14.00">9</text>
</g>
<!-- train_non_embedding_model -->
<g id="node8" class="node">
<title>train_non_embedding_model</title>
<ellipse fill="none" stroke="black" cx="699.16" cy="-207.33" rx="143.77" ry="18"/>
<text text-anchor="middle" x="699.16" y="-203.63" font-family="Times,serif" font-size="14.00">train_non_embedding_model</text>
</g>
<!-- perform_task&#45;&gt;train_non_embedding_model -->
<g id="edge13" class="edge">
<title>perform_task&#45;&gt;train_non_embedding_model</title>
<path fill="none" stroke="black" d="M362.49,-968.47C391.82,-947.03 439.7,-907.11 463.48,-860.33 481.76,-824.35 504.63,-539.23 518.48,-501.33 557.87,-393.51 639.17,-282.13 677.42,-233.11"/>
<polygon fill="black" stroke="black" points="680.17,-235.27 683.6,-225.25 674.67,-230.95 680.17,-235.27"/>
<text text-anchor="middle" x="490.98" y="-770.13" font-family="Times,serif" font-size="14.00">19</text>
</g>
<!-- train_embedding_model -->
<g id="node9" class="node">
<title>train_embedding_model</title>
<ellipse fill="none" stroke="black" cx="699.16" cy="-528.33" rx="122.38" ry="18"/>
<text text-anchor="middle" x="699.16" y="-524.63" font-family="Times,serif" font-size="14.00">train_embedding_model</text>
</g>
<!-- perform_task&#45;&gt;train_embedding_model -->
<g id="edge14" class="edge">
<title>perform_task&#45;&gt;train_embedding_model</title>
<path fill="none" stroke="black" d="M357.58,-967.7C383.33,-944.36 429.05,-901.35 463.48,-860.33 490.98,-827.56 493.87,-816.32 518.48,-781.33 576.85,-698.32 646.6,-600.49 679.38,-554.6"/>
<polygon fill="black" stroke="black" points="682.28,-556.56 685.25,-546.39 676.59,-552.49 682.28,-556.56"/>
<text text-anchor="middle" x="490.98" y="-841.13" font-family="Times,serif" font-size="14.00">30</text>
</g>
<!-- train_and_predict_embedding_model -->
<g id="node10" class="node">
<title>train_and_predict_embedding_model</title>
<ellipse fill="none" stroke="black" cx="699.16" cy="-808.33" rx="180.87" ry="18"/>
<text text-anchor="middle" x="699.16" y="-804.63" font-family="Times,serif" font-size="14.00">train_and_predict_embedding_model</text>
</g>
<!-- perform_task&#45;&gt;train_and_predict_embedding_model -->
<g id="edge15" class="edge">
<title>perform_task&#45;&gt;train_and_predict_embedding_model</title>
<path fill="none" stroke="black" d="M370.36,-969.31C435,-937.56 579.47,-866.62 653.12,-830.45"/>
<polygon fill="black" stroke="black" points="654.74,-833.55 662.17,-826 651.65,-827.27 654.74,-833.55"/>
<text text-anchor="middle" x="490.98" y="-917.13" font-family="Times,serif" font-size="14.00">43</text>
</g>
<!-- pipeline_function -->
<g id="node11" class="node">
<title>pipeline_function</title>
<ellipse fill="none" stroke="black" cx="1107.8" cy="-1216.31" rx="90.5" ry="18"/>
<text text-anchor="middle" x="1107.8" y="-1212.61" font-family="Times,serif" font-size="14.00">pipeline_function</text>
</g>
<!-- write_raw_tfrecords&#45;&gt;pipeline_function -->
<g id="edge16" class="edge">
<title>write_raw_tfrecords&#45;&gt;pipeline_function</title>
<path fill="none" stroke="black" d="M798.04,-1033.61C827.6,-1036.81 857.98,-1045.81 879.85,-1066.31 907.38,-1092.11 879.77,-1116.21 897.85,-1149.31 908.98,-1169.71 914.21,-1175.61 934.85,-1186.31 957.88,-1198.31 984.75,-1205.61 1010.3,-1210.01"/>
<polygon fill="black" stroke="black" points="1009.96,-1213.5 1020.4,-1211.71 1011.12,-1206.6 1009.96,-1213.5"/>
<text text-anchor="middle" x="907.35" y="-1178.11" font-family="Times,serif" font-size="14.00">4</text>
</g>
<!-- transform_tfrecords&#45;&gt;pipeline_function -->
<g id="edge17" class="edge">
<title>transform_tfrecords&#45;&gt;pipeline_function</title>
<path fill="none" stroke="black" d="M798.31,-1087.91C827.72,-1091.11 857.94,-1100.11 879.85,-1120.31 905.68,-1144.11 871.33,-1174.31 897.85,-1197.31 933.8,-1228.61 987.58,-1232.91 1031.6,-1229.61"/>
<polygon fill="black" stroke="black" points="1032.05,-1233.08 1041.7,-1228.71 1031.43,-1226.11 1032.05,-1233.08"/>
<text text-anchor="middle" x="907.35" y="-1213.11" font-family="Times,serif" font-size="14.00">7</text>
</g>
<!-- check_prerequisites -->
<g id="node12" class="node">
<title>check_prerequisites</title>
<ellipse fill="none" stroke="black" cx="1107.8" cy="-652.33" rx="103.5" ry="18"/>
<text text-anchor="middle" x="1107.8" y="-648.63" font-family="Times,serif" font-size="14.00">check_prerequisites</text>
</g>
<!-- view_transformed_sample_data&#45;&gt;check_prerequisites -->
<g id="edge18" class="edge">
<title>view_transformed_sample_data&#45;&gt;check_prerequisites</title>
<path fill="none" stroke="black" d="M722.54,-967.38C776.58,-923.93 910.27,-815.93 916.85,-805.33 935.14,-775.83 912.72,-756.07 934.85,-729.33 959.53,-699.49 998.16,-680.78 1032.6,-669.29"/>
<polygon fill="black" stroke="black" points="1033.65,-672.63 1042.1,-666.24 1031.51,-665.96 1033.65,-672.63"/>
<text text-anchor="middle" x="907.35" y="-826.13" font-family="Times,serif" font-size="14.00">10</text>
</g>
<!-- view_transformed_sample_data&#45;&gt;check_prerequisites -->
<g id="edge19" class="edge">
<title>view_transformed_sample_data&#45;&gt;check_prerequisites</title>
<path fill="none" stroke="black" d="M729.77,-967.67C769.18,-942.77 838.66,-893.8 879.85,-835.33 893.21,-816.36 887.46,-807.08 897.85,-786.33 899.53,-782.95 931.98,-731.78 934.85,-729.33 966.2,-702.49 1008.4,-683.4 1043.2,-670.95"/>
<polygon fill="black" stroke="black" points="1044.51,-674.2 1052.8,-667.61 1042.21,-667.59 1044.51,-674.2"/>
<text text-anchor="middle" x="907.35" y="-790.13" font-family="Times,serif" font-size="14.00">11</text>
</g>
<!-- build_raw_inputs -->
<g id="node13" class="node">
<title>build_raw_inputs</title>
<ellipse fill="none" stroke="black" cx="1107.8" cy="-946.33" rx="89.88" ry="18"/>
<text text-anchor="middle" x="1107.8" y="-942.63" font-family="Times,serif" font-size="14.00">build_raw_inputs</text>
</g>
<!-- view_transformed_sample_data&#45;&gt;build_raw_inputs -->
<g id="edge20" class="edge">
<title>view_transformed_sample_data&#45;&gt;build_raw_inputs</title>
<path fill="none" stroke="black" d="M843.22,-992.42C868.01,-991.08 893.36,-988.04 916.85,-982.33 925.54,-980.21 926.33,-976.05 934.85,-973.33 960.63,-965.08 989.42,-959.3 1016,-955.26"/>
<polygon fill="black" stroke="black" points="1016.61,-958.71 1026,-953.8 1015.6,-951.78 1016.61,-958.71"/>
<text text-anchor="middle" x="907.35" y="-990.13" font-family="Times,serif" font-size="14.00">12</text>
</g>
<!-- get_single_batched_example -->
<g id="node14" class="node">
<title>get_single_batched_example</title>
<ellipse fill="none" stroke="black" cx="1107.8" cy="-756.33" rx="143" ry="18"/>
<text text-anchor="middle" x="1107.8" y="-752.63" font-family="Times,serif" font-size="14.00">get_single_batched_example</text>
</g>
<!-- view_transformed_sample_data&#45;&gt;get_single_batched_example -->
<g id="edge21" class="edge">
<title>view_transformed_sample_data&#45;&gt;get_single_batched_example</title>
<path fill="none" stroke="black" d="M828.09,-975.02C860.35,-966.89 892.65,-953.18 916.85,-930.33 936.16,-912.09 918.99,-894.64 934.85,-873.33 966.88,-830.27 1019.7,-797.78 1058.3,-778.1"/>
<polygon fill="black" stroke="black" points="1059.91,-781.21 1067.3,-773.61 1056.79,-774.94 1059.91,-781.21"/>
<text text-anchor="middle" x="907.35" y="-949.13" font-family="Times,serif" font-size="14.00">13</text>
</g>
<!-- get_tft_transform_output -->
<g id="node15" class="node">
<title>get_tft_transform_output</title>
<ellipse fill="none" stroke="black" cx="1476.9" cy="-642.33" rx="127.5" ry="18"/>
<text text-anchor="middle" x="1476.9" y="-638.63" font-family="Times,serif" font-size="14.00">get_tft_transform_output</text>
</g>
<!-- view_transformed_sample_data&#45;&gt;get_tft_transform_output -->
<g id="edge22" class="edge">
<title>view_transformed_sample_data&#45;&gt;get_tft_transform_output</title>
<path fill="none" stroke="black" d="M834.22,-994.55C850.17,-998.77 865.77,-1004.53 879.85,-1012.33 890.6,-1018.28 886.68,-1028.21 897.85,-1033.31 905.52,-1036.81 908.4,-1033.41 916.85,-1033.31 1078.6,-1032.01 1138,-1103.31 1280.8,-1027.31 1418,-954.37 1460.9,-747.11 1472.3,-670.9"/>
<polygon fill="black" stroke="black" points="1475.82,-671.02 1473.7,-660.64 1468.88,-670.07 1475.82,-671.02"/>
<text text-anchor="middle" x="1107.8" y="-1066.11" font-family="Times,serif" font-size="14.00">15</text>
</g>
<!-- build_raw_to_preprocessing_model -->
<g id="node16" class="node">
<title>build_raw_to_preprocessing_model</title>
<ellipse fill="none" stroke="black" cx="1107.8" cy="-1159.31" rx="173" ry="18"/>
<text text-anchor="middle" x="1107.8" y="-1155.61" font-family="Times,serif" font-size="14.00">build_raw_to_preprocessing_model</text>
</g>
<!-- view_transformed_sample_data&#45;&gt;build_raw_to_preprocessing_model -->
<g id="edge23" class="edge">
<title>view_transformed_sample_data&#45;&gt;build_raw_to_preprocessing_model</title>
<path fill="none" stroke="black" d="M847.47,-991.18C859.41,-996.3 870.47,-1003.19 879.85,-1012.33 912.81,-1044.41 870.12,-1077.61 897.85,-1114.31 909.12,-1129.31 924.05,-1140.11 940.77,-1147.81"/>
<polygon fill="black" stroke="black" points="939.65,-1151.13 950.23,-1151.71 942.32,-1144.66 939.65,-1151.13"/>
<text text-anchor="middle" x="907.35" y="-1134.11" font-family="Times,serif" font-size="14.00">16</text>
</g>
<!-- inspect_example -->
<g id="node17" class="node">
<title>inspect_example</title>
<ellipse fill="none" stroke="black" cx="1107.8" cy="-1105.31" rx="87.99" ry="18"/>
<text text-anchor="middle" x="1107.8" y="-1101.61" font-family="Times,serif" font-size="14.00">inspect_example</text>
</g>
<!-- view_transformed_sample_data&#45;&gt;inspect_example -->
<g id="edge24" class="edge">
<title>view_transformed_sample_data&#45;&gt;inspect_example</title>
<path fill="none" stroke="black" d="M846.33,-991.74C858.59,-996.73 870.02,-1003.43 879.85,-1012.33 903.98,-1034.21 873.24,-1062.01 897.85,-1083.31 933.28,-1114.01 985.8,-1119.41 1029.3,-1117.21"/>
<polygon fill="black" stroke="black" points="1029.53,-1120.7 1039.3,-1116.61 1029.11,-1113.71 1029.53,-1120.7"/>
<text text-anchor="middle" x="907.35" y="-1099.11" font-family="Times,serif" font-size="14.00">17</text>
</g>
<!-- train_non_embedding_model&#45;&gt;check_prerequisites -->
<g id="edge25" class="edge">
<title>train_non_embedding_model&#45;&gt;check_prerequisites</title>
<path fill="none" stroke="black" d="M743.49,-224.51C794.71,-247.35 877.89,-292.95 916.85,-361.33 940.8,-403.37 906.59,-539.05 934.85,-578.33 956.1,-607.87 991.65,-625.72 1024.9,-636.47"/>
<polygon fill="black" stroke="black" points="1024.11,-639.89 1034.7,-639.44 1026.14,-633.19 1024.11,-639.89"/>
<text text-anchor="middle" x="907.35" y="-365.13" font-family="Times,serif" font-size="14.00">20</text>
</g>
<!-- train_non_embedding_model&#45;&gt;check_prerequisites -->
<g id="edge26" class="edge">
<title>train_non_embedding_model&#45;&gt;check_prerequisites</title>
<path fill="none" stroke="black" d="M767.76,-223.22C817.85,-238.8 883.06,-267.93 916.85,-319.33 948.54,-367.54 901.47,-531.27 934.85,-578.33 955.9,-608.01 991.43,-625.88 1024.8,-636.6"/>
<polygon fill="black" stroke="black" points="1023.91,-639.99 1034.5,-639.57 1025.96,-633.29 1023.91,-639.99"/>
<text text-anchor="middle" x="907.35" y="-323.13" font-family="Times,serif" font-size="14.00">21</text>
</g>
<!-- train_non_embedding_model&#45;&gt;get_tft_transform_output -->
<g id="edge27" class="edge">
<title>train_non_embedding_model&#45;&gt;get_tft_transform_output</title>
<path fill="none" stroke="black" d="M758.42,-190.83C797.49,-180.64 850.31,-168.55 897.85,-163.33 982.46,-154.02 1218.2,-111.73 1280.8,-169.33 1310.1,-196.23 1286.3,-309.6 1298.8,-347.33 1335,-456.11 1416.4,-567.56 1454.9,-616.56"/>
<polygon fill="black" stroke="black" points="1452.22,-618.81 1461.2,-624.43 1457.68,-614.43 1452.22,-618.81"/>
<text text-anchor="middle" x="1107.8" y="-173.13" font-family="Times,serif" font-size="14.00">22</text>
</g>
<!-- build_transformed_inputs -->
<g id="node18" class="node">
<title>build_transformed_inputs</title>
<ellipse fill="none" stroke="black" cx="1107.8" cy="-211.33" rx="130" ry="18"/>
<text text-anchor="middle" x="1107.8" y="-207.63" font-family="Times,serif" font-size="14.00">build_transformed_inputs</text>
</g>
<!-- train_non_embedding_model&#45;&gt;build_transformed_inputs -->
<g id="edge28" class="edge">
<title>train_non_embedding_model&#45;&gt;build_transformed_inputs</title>
<path fill="none" stroke="black" d="M742.42,-190.14C786.32,-174.6 856.86,-156.17 916.85,-170.33 925.55,-172.38 926.37,-176.48 934.85,-179.33 956.67,-186.65 980.64,-192.44 1003.6,-196.97"/>
<polygon fill="black" stroke="black" points="1003.22,-200.46 1013.7,-198.89 1004.53,-193.58 1003.22,-200.46"/>
<text text-anchor="middle" x="907.35" y="-174.13" font-family="Times,serif" font-size="14.00">23</text>
</g>
<!-- build_dnn_and_keras_inputs -->
<g id="node19" class="node">
<title>build_dnn_and_keras_inputs</title>
<ellipse fill="none" stroke="black" cx="1476.9" cy="-292.33" rx="141.07" ry="18"/>
<text text-anchor="middle" x="1476.9" y="-288.63" font-family="Times,serif" font-size="14.00">build_dnn_and_keras_inputs</text>
</g>
<!-- train_non_embedding_model&#45;&gt;build_dnn_and_keras_inputs -->
<g id="edge29" class="edge">
<title>train_non_embedding_model&#45;&gt;build_dnn_and_keras_inputs</title>
<path fill="none" stroke="black" d="M720.59,-189.37C759.19,-156.79 846.88,-89.02 934.85,-64.33 1082.9,-22.77 1141.2,0 1280.8,-64.33 1372,-106.29 1436.4,-214.15 1462.7,-265.01"/>
<polygon fill="black" stroke="black" points="1459.66,-266.76 1467.3,-274.1 1465.91,-263.6 1459.66,-266.76"/>
<text text-anchor="middle" x="1107.8" y="-68.13" font-family="Times,serif" font-size="14.00">24</text>
</g>
<!-- build_non_embedding_model -->
<g id="node20" class="node">
<title>build_non_embedding_model</title>
<ellipse fill="none" stroke="black" cx="1107.8" cy="-106.33" rx="144.5" ry="18"/>
<text text-anchor="middle" x="1107.8" y="-102.63" font-family="Times,serif" font-size="14.00">build_non_embedding_model</text>
</g>
<!-- train_non_embedding_model&#45;&gt;build_non_embedding_model -->
<g id="edge30" class="edge">
<title>train_non_embedding_model&#45;&gt;build_non_embedding_model</title>
<path fill="none" stroke="black" d="M725.5,-189.6C761.72,-165.45 831.29,-123.37 897.85,-107.33 921.33,-101.66 946.74,-98.88 971.47,-97.86"/>
<polygon fill="black" stroke="black" points="971.77,-101.35 981.65,-97.53 971.54,-94.35 971.77,-101.35"/>
<text text-anchor="middle" x="907.35" y="-111.13" font-family="Times,serif" font-size="14.00">25</text>
</g>
<!-- get_transformed_dataset -->
<g id="node21" class="node">
<title>get_transformed_dataset</title>
<ellipse fill="none" stroke="black" cx="1107.8" cy="-498.33" rx="126.98" ry="18"/>
<text text-anchor="middle" x="1107.8" y="-494.63" font-family="Times,serif" font-size="14.00">get_transformed_dataset</text>
</g>
<!-- train_non_embedding_model&#45;&gt;get_transformed_dataset -->
<g id="edge31" class="edge">
<title>train_non_embedding_model&#45;&gt;get_transformed_dataset</title>
<path fill="none" stroke="black" d="M818.2,-217.49C854.73,-226.47 891.88,-242.61 916.85,-271.33 952.52,-312.36 904.91,-346.94 934.85,-392.33 961.64,-432.95 1009.9,-460.68 1048.5,-477.55"/>
<polygon fill="black" stroke="black" points="1047.53,-480.94 1058.1,-481.61 1050.25,-474.49 1047.53,-480.94"/>
<text text-anchor="middle" x="907.35" y="-275.13" font-family="Times,serif" font-size="14.00">26</text>
</g>
<!-- train_embedding_model&#45;&gt;check_prerequisites -->
<g id="edge32" class="edge">
<title>train_embedding_model&#45;&gt;check_prerequisites</title>
<path fill="none" stroke="black" d="M815.12,-534.05C849.07,-538.96 885.51,-547.53 916.85,-562.33 926.52,-566.9 925.81,-572.58 934.85,-578.33 970.7,-601.13 1014.8,-619.94 1049.3,-632.89"/>
<polygon fill="black" stroke="black" points="1048.21,-636.22 1058.8,-636.38 1050.62,-629.65 1048.21,-636.22"/>
<text text-anchor="middle" x="907.35" y="-566.13" font-family="Times,serif" font-size="14.00">31</text>
</g>
<!-- train_embedding_model&#45;&gt;check_prerequisites -->
<g id="edge33" class="edge">
<title>train_embedding_model&#45;&gt;check_prerequisites</title>
<path fill="none" stroke="black" d="M753.33,-544.54C828.69,-567.52 966.24,-609.45 1045.7,-633.69"/>
<polygon fill="black" stroke="black" points="1045.01,-637.14 1055.6,-636.7 1047.05,-630.44 1045.01,-637.14"/>
<text text-anchor="middle" x="907.35" y="-598.13" font-family="Times,serif" font-size="14.00">32</text>
</g>
<!-- train_embedding_model&#45;&gt;build_raw_inputs -->
<g id="edge34" class="edge">
<title>train_embedding_model&#45;&gt;build_raw_inputs</title>
<path fill="none" stroke="black" d="M741.77,-545.23C792.89,-568.45 877.65,-615.43 916.85,-685.33 941.81,-729.85 900.7,-876.38 934.85,-914.33 954.11,-935.74 982.7,-945.68 1011.1,-949.71"/>
<polygon fill="black" stroke="black" points="1010.76,-953.19 1021.1,-950.89 1011.58,-946.24 1010.76,-953.19"/>
<text text-anchor="middle" x="907.35" y="-689.13" font-family="Times,serif" font-size="14.00">33</text>
</g>
<!-- train_embedding_model&#45;&gt;get_tft_transform_output -->
<g id="edge35" class="edge">
<title>train_embedding_model&#45;&gt;get_tft_transform_output</title>
<path fill="none" stroke="black" d="M800.61,-538.44C837.24,-542.4 878.96,-547.21 916.85,-552.33 1079.2,-574.24 1119.1,-584.18 1280.8,-610.33 1314.3,-615.74 1351,-621.74 1383.4,-627.07"/>
<polygon fill="black" stroke="black" points="1382.86,-630.53 1393.3,-628.7 1384,-623.62 1382.86,-630.53"/>
<text text-anchor="middle" x="1107.8" y="-614.13" font-family="Times,serif" font-size="14.00">34</text>
</g>
<!-- train_embedding_model&#45;&gt;build_transformed_inputs -->
<g id="edge36" class="edge">
<title>train_embedding_model&#45;&gt;build_transformed_inputs</title>
<path fill="none" stroke="black" d="M706.25,-510.29C725.07,-457.59 787.81,-303.39 897.85,-236.33 919.06,-223.4 943.74,-215.57 968.56,-211.05"/>
<polygon fill="black" stroke="black" points="969.14,-214.5 978.44,-209.42 968,-207.59 969.14,-214.5"/>
<text text-anchor="middle" x="907.35" y="-240.13" font-family="Times,serif" font-size="14.00">35</text>
</g>
<!-- train_embedding_model&#45;&gt;build_dnn_and_keras_inputs -->
<g id="edge37" class="edge">
<title>train_embedding_model&#45;&gt;build_dnn_and_keras_inputs</title>
<path fill="none" stroke="black" d="M708.67,-510.08C731.48,-463.64 799.04,-341.39 897.85,-295.33 1064.5,-217.64 1288.7,-249.62 1402.7,-274.08"/>
<polygon fill="black" stroke="black" points="1402.18,-277.55 1412.7,-276.27 1403.68,-270.71 1402.18,-277.55"/>
<text text-anchor="middle" x="1107.8" y="-283.13" font-family="Times,serif" font-size="14.00">36</text>
</g>
<!-- train_embedding_model&#45;&gt;get_transformed_dataset -->
<g id="edge38" class="edge">
<title>train_embedding_model&#45;&gt;get_transformed_dataset</title>
<path fill="none" stroke="black" d="M777.34,-514.43C813.75,-508.53 857.89,-502.34 897.85,-499.33 921.78,-497.52 947.29,-496.59 971.97,-496.19"/>
<polygon fill="black" stroke="black" points="972.17,-499.69 982.12,-496.05 972.07,-492.69 972.17,-499.69"/>
<text text-anchor="middle" x="907.35" y="-503.13" font-family="Times,serif" font-size="14.00">39</text>
</g>
<!-- build_embedding_model -->
<g id="node22" class="node">
<title>build_embedding_model</title>
<ellipse fill="none" stroke="black" cx="1107.8" cy="-365.33" rx="123" ry="18"/>
<text text-anchor="middle" x="1107.8" y="-361.63" font-family="Times,serif" font-size="14.00">build_embedding_model</text>
</g>
<!-- train_embedding_model&#45;&gt;build_embedding_model -->
<g id="edge39" class="edge">
<title>train_embedding_model&#45;&gt;build_embedding_model</title>
<path fill="none" stroke="black" d="M717.79,-510.38C750.13,-478.75 822.55,-413.74 897.85,-385.33 921.96,-376.23 948.7,-370.63 974.78,-367.29"/>
<polygon fill="black" stroke="black" points="975.21,-370.76 984.73,-366.12 974.39,-363.81 975.21,-370.76"/>
<text text-anchor="middle" x="907.35" y="-389.13" font-family="Times,serif" font-size="14.00">37</text>
</g>
<!-- train_and_predict_embedding_model&#45;&gt;check_prerequisites -->
<g id="edge40" class="edge">
<title>train_and_predict_embedding_model&#45;&gt;check_prerequisites</title>
<path fill="none" stroke="black" d="M749.4,-790.94C793.44,-775.25 859.67,-751.33 916.85,-729.33 964.92,-710.83 1019.4,-688.63 1057.6,-672.84"/>
<polygon fill="black" stroke="black" points="1059.09,-676.01 1067,-668.96 1056.42,-669.54 1059.09,-676.01"/>
<text text-anchor="middle" x="907.35" y="-740.13" font-family="Times,serif" font-size="14.00">44</text>
</g>
<!-- train_and_predict_embedding_model&#45;&gt;check_prerequisites -->
<g id="edge41" class="edge">
<title>train_and_predict_embedding_model&#45;&gt;check_prerequisites</title>
<path fill="none" stroke="black" d="M731.51,-790.46C769.81,-769.18 837.03,-733.6 897.85,-710.33 942.03,-693.42 993.19,-679.14 1033.8,-668.98"/>
<polygon fill="black" stroke="black" points="1034.82,-672.33 1043.7,-666.55 1033.15,-665.53 1034.82,-672.33"/>
<text text-anchor="middle" x="907.35" y="-714.13" font-family="Times,serif" font-size="14.00">45</text>
</g>
<!-- train_and_predict_embedding_model&#45;&gt;build_raw_inputs -->
<g id="edge42" class="edge">
<title>train_and_predict_embedding_model&#45;&gt;build_raw_inputs</title>
<path fill="none" stroke="black" d="M730.29,-826.22C768.19,-848.02 835.84,-884.63 897.85,-906.33 913.73,-911.88 918.35,-911.01 934.85,-914.33 966.01,-920.59 1000.4,-927.09 1030.3,-932.57"/>
<polygon fill="black" stroke="black" points="1029.73,-936.02 1040.2,-934.39 1031,-929.14 1029.73,-936.02"/>
<text text-anchor="middle" x="907.35" y="-915.13" font-family="Times,serif" font-size="14.00">46</text>
</g>
<!-- train_and_predict_embedding_model&#45;&gt;get_single_batched_example -->
<g id="edge43" class="edge">
<title>train_and_predict_embedding_model&#45;&gt;get_single_batched_example</title>
<path fill="none" stroke="black" d="M746.51,-825.84C790.57,-840.12 858.58,-856.03 916.85,-843.33 973.05,-831.07 1032.5,-800.62 1069.7,-779.22"/>
<polygon fill="black" stroke="black" points="1071.75,-782.07 1078.6,-773.99 1068.21,-776.04 1071.75,-782.07"/>
<text text-anchor="middle" x="907.35" y="-850.13" font-family="Times,serif" font-size="14.00">47</text>
</g>
<!-- train_and_predict_embedding_model&#45;&gt;get_tft_transform_output -->
<g id="edge44" class="edge">
<title>train_and_predict_embedding_model&#45;&gt;get_tft_transform_output</title>
<path fill="none" stroke="black" d="M735.59,-826.12C778.01,-845.43 851.51,-872.6 916.85,-865.33 1081.7,-846.99 1129.7,-851.52 1280.8,-783.33 1347.2,-753.38 1413.6,-698.84 1449.3,-667.08"/>
<polygon fill="black" stroke="black" points="1451.74,-669.6 1456.8,-660.29 1447.04,-664.41 1451.74,-669.6"/>
<text text-anchor="middle" x="1107.8" y="-867.13" font-family="Times,serif" font-size="14.00">49</text>
</g>
<!-- train_and_predict_embedding_model&#45;&gt;build_transformed_inputs -->
<g id="edge45" class="edge">
<title>train_and_predict_embedding_model&#45;&gt;build_transformed_inputs</title>
<path fill="none" stroke="black" d="M717.73,-790.17C754.54,-750.94 839.68,-653.86 879.85,-555.33 899.21,-507.83 882.92,-490.4 897.85,-441.33 903.69,-422.11 911.34,-419.64 916.85,-400.33 925.87,-368.68 912.98,-277.93 934.85,-253.33 947.34,-239.27 963.68,-229.54 981.32,-222.86"/>
<polygon fill="black" stroke="black" points="982.92,-226.01 991.24,-219.45 980.65,-219.39 982.92,-226.01"/>
<text text-anchor="middle" x="907.35" y="-445.13" font-family="Times,serif" font-size="14.00">50</text>
</g>
<!-- train_and_predict_embedding_model&#45;&gt;get_transformed_dataset -->
<g id="edge46" class="edge">
<title>train_and_predict_embedding_model&#45;&gt;get_transformed_dataset</title>
<path fill="none" stroke="black" d="M723.4,-790.37C773.89,-750.92 891.09,-656.75 916.85,-613.33 934.55,-583.47 910.18,-561.75 934.85,-537.33 948.06,-524.24 964.69,-515.16 982.37,-508.94"/>
<polygon fill="black" stroke="black" points="983.83,-512.15 992.28,-505.76 981.69,-505.48 983.83,-512.15"/>
<text text-anchor="middle" x="907.35" y="-641.13" font-family="Times,serif" font-size="14.00">53</text>
</g>
<!-- train_and_predict_embedding_model&#45;&gt;build_embedding_model -->
<g id="edge47" class="edge">
<title>train_and_predict_embedding_model&#45;&gt;build_embedding_model</title>
<path fill="none" stroke="black" d="M716.88,-790.22C752.43,-750.71 835.86,-652.51 879.85,-555.33 894.16,-523.7 876.78,-506.92 897.85,-479.33 933.74,-432.3 994.84,-402.22 1041.7,-384.84"/>
<polygon fill="black" stroke="black" points="1042.97,-388.1 1051.2,-381.43 1040.61,-381.51 1042.97,-388.1"/>
<text text-anchor="middle" x="907.35" y="-483.13" font-family="Times,serif" font-size="14.00">51</text>
</g>
<!-- build_end_to_end_model -->
<g id="node23" class="node">
<title>build_end_to_end_model</title>
<ellipse fill="none" stroke="black" cx="1107.8" cy="-1000.33" rx="123.5" ry="18"/>
<text text-anchor="middle" x="1107.8" y="-996.63" font-family="Times,serif" font-size="14.00">build_end_to_end_model</text>
</g>
<!-- train_and_predict_embedding_model&#45;&gt;build_end_to_end_model -->
<g id="edge48" class="edge">
<title>train_and_predict_embedding_model&#45;&gt;build_end_to_end_model</title>
<path fill="none" stroke="black" d="M729.65,-826.07C768.93,-851.06 838.26,-900.14 879.85,-958.33 892.85,-976.53 879.42,-992.65 897.85,-1005.33 941.08,-1035.11 1002.1,-1029.61 1047.1,-1019.25"/>
<polygon fill="black" stroke="black" points="1048.12,-1022.6 1057,-1016.82 1046.45,-1015.8 1048.12,-1022.6"/>
<text text-anchor="middle" x="907.35" y="-1018.13" font-family="Times,serif" font-size="14.00">56</text>
</g>
<!-- get_single_batched_example&#45;&gt;get_tft_transform_output -->
<g id="edge49" class="edge">
<title>get_single_batched_example&#45;&gt;get_tft_transform_output</title>
<path fill="none" stroke="black" d="M1147.5,-738.96C1185.4,-722.43 1245.3,-697.69 1298.8,-681.33 1327.7,-672.53 1359.7,-664.86 1388.5,-658.7"/>
<polygon fill="black" stroke="black" points="1389.44,-662.08 1398.5,-656.59 1387.99,-655.23 1389.44,-662.08"/>
<text text-anchor="middle" x="1308.3" y="-685.13" font-family="Times,serif" font-size="14.00">14</text>
</g>
<!-- get_single_batched_example&#45;&gt;get_tft_transform_output -->
<g id="edge50" class="edge">
<title>get_single_batched_example&#45;&gt;get_tft_transform_output</title>
<path fill="none" stroke="black" d="M1169,-739.91C1210.9,-728.27 1268,-712 1317.8,-696.33 1351.7,-685.7 1389.2,-672.91 1419.2,-662.44"/>
<polygon fill="black" stroke="black" points="1420.41,-665.72 1428.7,-659.13 1418.11,-659.11 1420.41,-665.72"/>
<text text-anchor="middle" x="1308.3" y="-706.13" font-family="Times,serif" font-size="14.00">48</text>
</g>
<!-- get_transformed_dataset&#45;&gt;get_tft_transform_output -->
<g id="edge51" class="edge">
<title>get_transformed_dataset&#45;&gt;get_tft_transform_output</title>
<path fill="none" stroke="black" d="M1194.3,-485.13C1233.2,-482.51 1279.1,-484.3 1317.8,-499.33 1378.6,-522.9 1430.5,-581.69 1457.1,-616.11"/>
<polygon fill="black" stroke="black" points="1454.42,-618.37 1463.2,-624.3 1460.03,-614.19 1454.42,-618.37"/>
<text text-anchor="middle" x="1308.3" y="-503.13" font-family="Times,serif" font-size="14.00">27</text>
</g>
<!-- get_transformed_dataset&#45;&gt;get_tft_transform_output -->
<g id="edge52" class="edge">
<title>get_transformed_dataset&#45;&gt;get_tft_transform_output</title>
<path fill="none" stroke="black" d="M1151.9,-481.44C1195.5,-467.08 1264,-452.16 1317.8,-475.33 1384.4,-503.96 1436,-575.91 1460.4,-615.38"/>
<polygon fill="black" stroke="black" points="1457.59,-617.5 1465.8,-624.2 1463.56,-613.84 1457.59,-617.5"/>
<text text-anchor="middle" x="1308.3" y="-479.13" font-family="Times,serif" font-size="14.00">40</text>
</g>
<!-- get_transformed_dataset&#45;&gt;get_tft_transform_output -->
<g id="edge53" class="edge">
<title>get_transformed_dataset&#45;&gt;get_tft_transform_output</title>
<path fill="none" stroke="black" d="M1210.6,-508.93C1245.4,-514.73 1284.2,-523.66 1317.8,-537.33 1367,-557.25 1416.7,-593.6 1447,-617.86"/>
<polygon fill="black" stroke="black" points="1445.03,-620.77 1455,-624.36 1449.45,-615.34 1445.03,-620.77"/>
<text text-anchor="middle" x="1308.3" y="-541.13" font-family="Times,serif" font-size="14.00">54</text>
</g>
<!-- build_embedding_model&#45;&gt;build_dnn_and_keras_inputs -->
<g id="edge54" class="edge">
<title>build_embedding_model&#45;&gt;build_dnn_and_keras_inputs</title>
<path fill="none" stroke="black" d="M1155.9,-348.74C1193.9,-335.97 1249.2,-318.93 1298.8,-309.33 1313,-306.59 1327.9,-304.28 1342.8,-302.34"/>
<polygon fill="black" stroke="black" points="1343.61,-305.76 1353.1,-301.05 1342.74,-298.82 1343.61,-305.76"/>
<text text-anchor="middle" x="1308.3" y="-313.13" font-family="Times,serif" font-size="14.00">38</text>
</g>
<!-- build_embedding_model&#45;&gt;build_dnn_and_keras_inputs -->
<g id="edge55" class="edge">
<title>build_embedding_model&#45;&gt;build_dnn_and_keras_inputs</title>
<path fill="none" stroke="black" d="M1182.9,-350.92C1222.8,-343.11 1273.1,-333.25 1317.8,-324.33 1341.6,-319.59 1367.4,-314.39 1391.1,-309.59"/>
<polygon fill="black" stroke="black" points="1392,-312.98 1401.1,-307.56 1390.6,-306.12 1392,-312.98"/>
<text text-anchor="middle" x="1308.3" y="-332.13" font-family="Times,serif" font-size="14.00">52</text>
</g>
<!-- build_end_to_end_model&#45;&gt;get_tft_transform_output -->
<g id="edge56" class="edge">
<title>build_end_to_end_model&#45;&gt;get_tft_transform_output</title>
<path fill="none" stroke="black" d="M1227.4,-995.79C1246.4,-991.22 1265,-984.12 1280.8,-973.33 1392.1,-897.67 1449.2,-735.66 1468.3,-670.41"/>
<polygon fill="black" stroke="black" points="1471.76,-671.03 1471.2,-660.45 1465.04,-669.07 1471.76,-671.03"/>
<text text-anchor="middle" x="1308.3" y="-959.13" font-family="Times,serif" font-size="14.00">57</text>
</g>
<!-- converted_call -->
<g id="node24" class="node">
<title>converted_call</title>
<ellipse fill="none" stroke="orange" cx="77.5" cy="-1175.31" rx="77.5" ry="18"/>
<text text-anchor="middle" x="77.5" y="-1171.61" font-family="Times,serif" font-size="14.00">converted_call</text>
</g>
<!-- map_features_and_labels -->
<g id="node25" class="node">
<title>map_features_and_labels</title>
<ellipse fill="none" stroke="black" cx="336.74" cy="-1175.31" rx="126.98" ry="18"/>
<text text-anchor="middle" x="336.74" y="-1171.61" font-family="Times,serif" font-size="14.00">map_features_and_labels</text>
</g>
<!-- converted_call&#45;&gt;map_features_and_labels -->
<g id="edge57" class="edge">
<title>converted_call&#45;&gt;map_features_and_labels</title>
<path fill="none" stroke="black" d="M137.29,-1186.81C149.07,-1188.71 161.39,-1190.31 173,-1191.31 196.16,-1193.31 221.16,-1192.31 244.44,-1190.21"/>
<polygon fill="black" stroke="black" points="245.09,-1193.66 254.66,-1189.11 244.34,-1186.7 245.09,-1193.66"/>
<text text-anchor="middle" x="182.5" y="-1195.11" font-family="Times,serif" font-size="14.00">28</text>
</g>
<!-- converted_call&#45;&gt;map_features_and_labels -->
<g id="edge58" class="edge">
<title>converted_call&#45;&gt;map_features_and_labels</title>
<path fill="none" stroke="black" d="M154.32,-1172.71C160.64,-1172.51 166.93,-1172.41 173,-1172.31 182.33,-1172.21 191.96,-1172.11 201.66,-1172.11"/>
<polygon fill="black" stroke="black" points="201.79,-1175.61 211.79,-1172.11 201.79,-1168.61 201.79,-1175.61"/>
<text text-anchor="middle" x="182.5" y="-1176.11" font-family="Times,serif" font-size="14.00">41</text>
</g>
<!-- converted_call&#45;&gt;map_features_and_labels -->
<g id="edge59" class="edge">
<title>converted_call&#45;&gt;map_features_and_labels</title>
<path fill="none" stroke="black" d="M126.65,-1161.21C141.39,-1157.61 157.74,-1154.11 173,-1152.31 203.66,-1148.61 237.49,-1152.21 266.32,-1157.51"/>
<polygon fill="black" stroke="black" points="265.82,-1160.98 276.3,-1159.41 267.13,-1154.1 265.82,-1160.98"/>
<text text-anchor="middle" x="182.5" y="-1156.11" font-family="Times,serif" font-size="14.00">55</text>
</g>
</g>
</svg>
