<?xml version="1.0" encoding="UTF-8" standalone="no"?>
<!DOCTYPE svg PUBLIC "-//W3C//DTD SVG 1.1//EN"
 "http://www.w3.org/Graphics/SVG/1.1/DTD/svg11.dtd">
<!-- Generated by graphviz version 2.48.0 (0)
 -->
<!-- Pages: 1 -->
<svg width="1557pt" height="473pt"
 viewBox="0.00 0.00 1556.94 473.00" xmlns="http://www.w3.org/2000/svg" xmlns:xlink="http://www.w3.org/1999/xlink">
<g id="graph0" class="graph" transform="scale(1 1) rotate(0) translate(4 469)">
<polygon fill="white" stroke="transparent" points="-4,4 -4,-469 1552.94,-469 1552.94,4 -4,4"/>
<!-- main -->
<g id="node1" class="node">
<title>main</title>
<ellipse fill="none" stroke="black" cx="77.5" cy="-117" rx="34" ry="18"/>
<text text-anchor="middle" x="77.5" y="-113.3" font-family="Times,serif" font-size="14.00">main</text>
</g>
<!-- perform_task -->
<g id="node2" class="node">
<title>perform_task</title>
<ellipse fill="none" stroke="black" cx="336.74" cy="-152" rx="72.29" ry="18"/>
<text text-anchor="middle" x="336.74" y="-148.3" font-family="Times,serif" font-size="14.00">perform_task</text>
</g>
<!-- main&#45;&gt;perform_task -->
<g id="edge1" class="edge">
<title>main&#45;&gt;perform_task</title>
<path fill="none" stroke="black" d="M110.56,-121.36C148.42,-126.51 212.6,-135.25 262.77,-142.07"/>
<polygon fill="black" stroke="black" points="262.55,-145.57 272.93,-143.45 263.49,-138.64 262.55,-145.57"/>
<text text-anchor="middle" x="182.5" y="-136.8" font-family="Times,serif" font-size="14.00">0</text>
</g>
<!-- closeout_task -->
<g id="node3" class="node">
<title>closeout_task</title>
<ellipse fill="none" stroke="black" cx="336.74" cy="-98" rx="73.5" ry="18"/>
<text text-anchor="middle" x="336.74" y="-94.3" font-family="Times,serif" font-size="14.00">closeout_task</text>
</g>
<!-- main&#45;&gt;closeout_task -->
<g id="edge2" class="edge">
<title>main&#45;&gt;closeout_task</title>
<path fill="none" stroke="black" d="M110.83,-113.17C129.06,-111.12 152.28,-108.67 173,-107 199.27,-104.89 227.96,-103.12 253.84,-101.73"/>
<polygon fill="black" stroke="black" points="254.19,-105.22 263.99,-101.19 253.82,-98.23 254.19,-105.22"/>
<text text-anchor="middle" x="182.5" y="-110.8" font-family="Times,serif" font-size="14.00">22</text>
</g>
<!-- train_and_predict_embedding_model -->
<g id="node4" class="node">
<title>train_and_predict_embedding_model</title>
<ellipse fill="none" stroke="black" cx="690.16" cy="-228" rx="180.87" ry="18"/>
<text text-anchor="middle" x="690.16" y="-224.3" font-family="Times,serif" font-size="14.00">train_and_predict_embedding_model</text>
</g>
<!-- perform_task&#45;&gt;train_and_predict_embedding_model -->
<g id="edge3" class="edge">
<title>perform_task&#45;&gt;train_and_predict_embedding_model</title>
<path fill="none" stroke="black" d="M406.17,-156.95C425.93,-160.86 446.68,-167.58 463.48,-179 475.4,-187.11 469.14,-198.53 481.48,-206 490.03,-211.17 499.14,-215.49 508.61,-219.07"/>
<polygon fill="black" stroke="black" points="507.58,-222.42 518.17,-222.41 509.88,-215.81 507.58,-222.42"/>
<text text-anchor="middle" x="486.48" y="-214.8" font-family="Times,serif" font-size="14.00">1</text>
</g>
<!-- write_raw_tfrecords -->
<g id="node5" class="node">
<title>write_raw_tfrecords</title>
<ellipse fill="none" stroke="black" cx="690.16" cy="-89" rx="104" ry="18"/>
<text text-anchor="middle" x="690.16" y="-85.3" font-family="Times,serif" font-size="14.00">write_raw_tfrecords</text>
</g>
<!-- perform_task&#45;&gt;write_raw_tfrecords -->
<g id="edge4" class="edge">
<title>perform_task&#45;&gt;write_raw_tfrecords</title>
<path fill="none" stroke="black" d="M398.58,-142.7C419.53,-138.51 442.89,-132.73 463.48,-125 472.04,-121.78 472.78,-117.84 481.48,-115 512.41,-104.89 547.12,-98.67 579.17,-94.86"/>
<polygon fill="black" stroke="black" points="579.93,-98.3 589.48,-93.71 579.15,-91.34 579.93,-98.3"/>
<text text-anchor="middle" x="486.48" y="-118.8" font-family="Times,serif" font-size="14.00">4</text>
</g>
<!-- transform_tfrecords -->
<g id="node6" class="node">
<title>transform_tfrecords</title>
<ellipse fill="none" stroke="black" cx="690.16" cy="-25" rx="104" ry="18"/>
<text text-anchor="middle" x="690.16" y="-21.3" font-family="Times,serif" font-size="14.00">transform_tfrecords</text>
</g>
<!-- perform_task&#45;&gt;transform_tfrecords -->
<g id="edge5" class="edge">
<title>perform_task&#45;&gt;transform_tfrecords</title>
<path fill="none" stroke="black" d="M406.84,-147.48C426.51,-143.57 447.04,-136.76 463.48,-125 476.12,-115.95 472.42,-107.64 481.48,-95 492.69,-79.37 492.93,-71.81 509.48,-62 532.19,-48.53 559.04,-39.91 584.96,-34.4"/>
<polygon fill="black" stroke="black" points="585.71,-37.82 594.84,-32.44 584.35,-30.96 585.71,-37.82"/>
<text text-anchor="middle" x="486.48" y="-98.8" font-family="Times,serif" font-size="14.00">7</text>
</g>
<!-- train_and_predict_embedding_model&#45;&gt;perform_task -->
<g id="edge6" class="edge">
<title>train_and_predict_embedding_model&#45;&gt;perform_task</title>
<path fill="none" stroke="black" d="M613.94,-211.62C570.06,-202.08 513.64,-189.83 463.48,-179 443.41,-174.67 421.53,-169.96 401.74,-165.71"/>
<polygon fill="black" stroke="black" points="402.41,-162.27 391.9,-163.6 400.94,-169.12 402.41,-162.27"/>
<text text-anchor="middle" x="486.48" y="-187.8" font-family="Times,serif" font-size="14.00">3</text>
</g>
<!-- train_and_predict_embedding_model&#45;&gt;perform_task -->
<g id="edge7" class="edge">
<title>train_and_predict_embedding_model&#45;&gt;perform_task</title>
<path fill="none" stroke="black" d="M646.02,-210.39C606.51,-195.09 546.06,-173.76 491.48,-163 468.26,-158.43 442.75,-155.7 419.29,-154.09"/>
<polygon fill="black" stroke="black" points="419.22,-150.58 409.02,-153.45 418.78,-157.57 419.22,-150.58"/>
<text text-anchor="middle" x="486.48" y="-166.8" font-family="Times,serif" font-size="14.00">6</text>
</g>
<!-- check_prerequisites -->
<g id="node7" class="node">
<title>check_prerequisites</title>
<ellipse fill="none" stroke="black" cx="1068.8" cy="-339" rx="103.5" ry="18"/>
<text text-anchor="middle" x="1068.8" y="-335.3" font-family="Times,serif" font-size="14.00">check_prerequisites</text>
</g>
<!-- train_and_predict_embedding_model&#45;&gt;check_prerequisites -->
<g id="edge8" class="edge">
<title>train_and_predict_embedding_model&#45;&gt;check_prerequisites</title>
<path fill="none" stroke="black" d="M721.11,-245.78C758.83,-267.25 826.29,-302.64 888.85,-320 911.11,-326.18 935.45,-330.37 958.8,-333.21"/>
<polygon fill="black" stroke="black" points="958.41,-336.69 968.74,-334.35 959.2,-329.73 958.41,-336.69"/>
<text text-anchor="middle" x="898.35" y="-327.8" font-family="Times,serif" font-size="14.00">2</text>
</g>
<!-- train_and_predict_embedding_model&#45;&gt;check_prerequisites -->
<g id="edge9" class="edge">
<title>train_and_predict_embedding_model&#45;&gt;check_prerequisites</title>
<path fill="none" stroke="black" d="M753.29,-244.9C797.4,-257.86 857.49,-277.49 907.85,-301 916.34,-304.97 917.1,-308.63 925.85,-312 941.4,-318 958.46,-322.71 975.17,-326.39"/>
<polygon fill="black" stroke="black" points="974.47,-329.82 984.97,-328.44 975.9,-322.97 974.47,-329.82"/>
<text text-anchor="middle" x="898.35" y="-304.8" font-family="Times,serif" font-size="14.00">9</text>
</g>
<!-- build_raw_inputs -->
<g id="node8" class="node">
<title>build_raw_inputs</title>
<ellipse fill="none" stroke="black" cx="1068.8" cy="-285" rx="89.88" ry="18"/>
<text text-anchor="middle" x="1068.8" y="-281.3" font-family="Times,serif" font-size="14.00">build_raw_inputs</text>
</g>
<!-- train_and_predict_embedding_model&#45;&gt;build_raw_inputs -->
<g id="edge10" class="edge">
<title>train_and_predict_embedding_model&#45;&gt;build_raw_inputs</title>
<path fill="none" stroke="black" d="M790.62,-243.05C851.8,-252.31 929.2,-264.02 986.66,-272.72"/>
<polygon fill="black" stroke="black" points="986.38,-276.22 996.79,-274.25 987.42,-269.3 986.38,-276.22"/>
<text text-anchor="middle" x="898.35" y="-262.8" font-family="Times,serif" font-size="14.00">10</text>
</g>
<!-- get_single_batched_example -->
<g id="node9" class="node">
<title>get_single_batched_example</title>
<ellipse fill="none" stroke="black" cx="1068.8" cy="-231" rx="143" ry="18"/>
<text text-anchor="middle" x="1068.8" y="-227.3" font-family="Times,serif" font-size="14.00">get_single_batched_example</text>
</g>
<!-- train_and_predict_embedding_model&#45;&gt;get_single_batched_example -->
<g id="edge11" class="edge">
<title>train_and_predict_embedding_model&#45;&gt;get_single_batched_example</title>
<path fill="none" stroke="black" d="M870.89,-228.72C883.39,-228.8 895.81,-228.9 907.85,-229 910.61,-229.02 913.41,-229.05 916.23,-229.07"/>
<polygon fill="black" stroke="black" points="916.48,-232.57 926.51,-229.17 916.54,-225.57 916.48,-232.57"/>
<text text-anchor="middle" x="898.35" y="-232.8" font-family="Times,serif" font-size="14.00">11</text>
</g>
<!-- get_tft_transform_output -->
<g id="node10" class="node">
<title>get_tft_transform_output</title>
<ellipse fill="none" stroke="black" cx="1407.9" cy="-327" rx="127.5" ry="18"/>
<text text-anchor="middle" x="1407.9" y="-323.3" font-family="Times,serif" font-size="14.00">get_tft_transform_output</text>
</g>
<!-- train_and_predict_embedding_model&#45;&gt;get_tft_transform_output -->
<g id="edge12" class="edge">
<title>train_and_predict_embedding_model&#45;&gt;get_tft_transform_output</title>
<path fill="none" stroke="black" d="M745.55,-210.82C842.03,-183.2 1048.4,-137.01 1211.8,-189 1281.7,-211.2 1348,-268.47 1382.4,-301.84"/>
<polygon fill="black" stroke="black" points="1380.1,-304.49 1389.7,-308.97 1384.99,-299.48 1380.1,-304.49"/>
<text text-anchor="middle" x="1068.8" y="-192.8" font-family="Times,serif" font-size="14.00">13</text>
</g>
<!-- build_transformed_inputs -->
<g id="node11" class="node">
<title>build_transformed_inputs</title>
<ellipse fill="none" stroke="black" cx="1068.8" cy="-126" rx="130" ry="18"/>
<text text-anchor="middle" x="1068.8" y="-122.3" font-family="Times,serif" font-size="14.00">build_transformed_inputs</text>
</g>
<!-- train_and_predict_embedding_model&#45;&gt;build_transformed_inputs -->
<g id="edge13" class="edge">
<title>train_and_predict_embedding_model&#45;&gt;build_transformed_inputs</title>
<path fill="none" stroke="black" d="M728.56,-210.41C767.68,-192.73 831.29,-166.01 888.85,-151 909.29,-145.67 931.36,-141.41 952.8,-138.03"/>
<polygon fill="black" stroke="black" points="953.56,-141.45 962.92,-136.49 952.51,-134.53 953.56,-141.45"/>
<text text-anchor="middle" x="898.35" y="-154.8" font-family="Times,serif" font-size="14.00">14</text>
</g>
<!-- build_embedding_model -->
<g id="node12" class="node">
<title>build_embedding_model</title>
<ellipse fill="none" stroke="black" cx="1068.8" cy="-72" rx="123" ry="18"/>
<text text-anchor="middle" x="1068.8" y="-68.3" font-family="Times,serif" font-size="14.00">build_embedding_model</text>
</g>
<!-- train_and_predict_embedding_model&#45;&gt;build_embedding_model -->
<g id="edge14" class="edge">
<title>train_and_predict_embedding_model&#45;&gt;build_embedding_model</title>
<path fill="none" stroke="black" d="M717.31,-210C759.33,-181.93 845.35,-127.95 925.85,-99 939.56,-94.07 954.37,-89.98 969.06,-86.61"/>
<polygon fill="black" stroke="black" points="970.18,-89.95 979.2,-84.4 968.68,-83.11 970.18,-89.95"/>
<text text-anchor="middle" x="898.35" y="-116.8" font-family="Times,serif" font-size="14.00">15</text>
</g>
<!-- get_transformed_dataset -->
<g id="node13" class="node">
<title>get_transformed_dataset</title>
<ellipse fill="none" stroke="black" cx="1068.8" cy="-447" rx="126.98" ry="18"/>
<text text-anchor="middle" x="1068.8" y="-443.3" font-family="Times,serif" font-size="14.00">get_transformed_dataset</text>
</g>
<!-- train_and_predict_embedding_model&#45;&gt;get_transformed_dataset -->
<g id="edge15" class="edge">
<title>train_and_predict_embedding_model&#45;&gt;get_transformed_dataset</title>
<path fill="none" stroke="black" d="M707.03,-246.02C742.21,-284.71 831.16,-375.8 925.85,-420 937.06,-425.24 949.22,-429.46 961.55,-432.86"/>
<polygon fill="black" stroke="black" points="960.9,-436.31 971.46,-435.41 962.65,-429.53 960.9,-436.31"/>
<text text-anchor="middle" x="898.35" y="-411.8" font-family="Times,serif" font-size="14.00">17</text>
</g>
<!-- build_end_to_end_model -->
<g id="node14" class="node">
<title>build_end_to_end_model</title>
<ellipse fill="none" stroke="black" cx="1068.8" cy="-393" rx="123.5" ry="18"/>
<text text-anchor="middle" x="1068.8" y="-389.3" font-family="Times,serif" font-size="14.00">build_end_to_end_model</text>
</g>
<!-- train_and_predict_embedding_model&#45;&gt;build_end_to_end_model -->
<g id="edge16" class="edge">
<title>train_and_predict_embedding_model&#45;&gt;build_end_to_end_model</title>
<path fill="none" stroke="black" d="M715.09,-245.89C756.03,-275.59 843.12,-334.89 925.85,-366 939.2,-371.02 953.64,-375.15 968.01,-378.53"/>
<polygon fill="black" stroke="black" points="967.41,-381.98 977.93,-380.75 968.94,-375.15 967.41,-381.98"/>
<text text-anchor="middle" x="898.35" y="-360.8" font-family="Times,serif" font-size="14.00">20</text>
</g>
<!-- pipeline_function -->
<g id="node15" class="node">
<title>pipeline_function</title>
<ellipse fill="none" stroke="black" cx="1068.8" cy="-18" rx="90.5" ry="18"/>
<text text-anchor="middle" x="1068.8" y="-14.3" font-family="Times,serif" font-size="14.00">pipeline_function</text>
</g>
<!-- write_raw_tfrecords&#45;&gt;pipeline_function -->
<g id="edge17" class="edge">
<title>write_raw_tfrecords&#45;&gt;pipeline_function</title>
<path fill="none" stroke="black" d="M761.13,-75.81C826.9,-63.41 925.06,-44.91 992.52,-32.2"/>
<polygon fill="black" stroke="black" points="993.52,-35.57 1002.7,-30.29 992.23,-28.69 993.52,-35.57"/>
<text text-anchor="middle" x="898.35" y="-55.8" font-family="Times,serif" font-size="14.00">5</text>
</g>
<!-- transform_tfrecords&#45;&gt;pipeline_function -->
<g id="edge18" class="edge">
<title>transform_tfrecords&#45;&gt;pipeline_function</title>
<path fill="none" stroke="black" d="M792.22,-21.45C823.22,-20.49 857.43,-19.56 888.85,-19 914.49,-18.54 942.21,-18.27 968,-18.12"/>
<polygon fill="black" stroke="black" points="968.17,-21.62 978.15,-18.07 968.13,-14.62 968.17,-21.62"/>
<text text-anchor="middle" x="898.35" y="-22.8" font-family="Times,serif" font-size="14.00">8</text>
</g>
<!-- get_single_batched_example&#45;&gt;get_tft_transform_output -->
<g id="edge19" class="edge">
<title>get_single_batched_example&#45;&gt;get_tft_transform_output</title>
<path fill="none" stroke="black" d="M1156.3,-245.26C1174.8,-248.91 1194,-253.19 1211.8,-258 1261.4,-271.39 1316.4,-291.33 1355.3,-306.34"/>
<polygon fill="black" stroke="black" points="1354.31,-309.71 1364.9,-310.04 1356.83,-303.18 1354.31,-309.71"/>
<text text-anchor="middle" x="1239.3" y="-270.8" font-family="Times,serif" font-size="14.00">12</text>
</g>
<!-- build_dnn_and_keras_inputs -->
<g id="node16" class="node">
<title>build_dnn_and_keras_inputs</title>
<ellipse fill="none" stroke="black" cx="1407.9" cy="-72" rx="141.07" ry="18"/>
<text text-anchor="middle" x="1407.9" y="-68.3" font-family="Times,serif" font-size="14.00">build_dnn_and_keras_inputs</text>
</g>
<!-- build_embedding_model&#45;&gt;build_dnn_and_keras_inputs -->
<g id="edge20" class="edge">
<title>build_embedding_model&#45;&gt;build_dnn_and_keras_inputs</title>
<path fill="none" stroke="black" d="M1192,-72C1213,-72 1235,-72 1256.6,-72"/>
<polygon fill="black" stroke="black" points="1256.8,-75.5 1266.8,-72 1256.8,-68.5 1256.8,-75.5"/>
<text text-anchor="middle" x="1239.3" y="-75.8" font-family="Times,serif" font-size="14.00">16</text>
</g>
<!-- get_transformed_dataset&#45;&gt;get_tft_transform_output -->
<g id="edge21" class="edge">
<title>get_transformed_dataset&#45;&gt;get_tft_transform_output</title>
<path fill="none" stroke="black" d="M1157.1,-434.07C1175.4,-430.35 1194.4,-425.7 1211.8,-420 1268.1,-401.57 1329.1,-370.51 1367.7,-349.41"/>
<polygon fill="black" stroke="black" points="1369.45,-352.44 1376.5,-344.53 1366.06,-346.32 1369.45,-352.44"/>
<text text-anchor="middle" x="1239.3" y="-415.8" font-family="Times,serif" font-size="14.00">18</text>
</g>
<!-- build_end_to_end_model&#45;&gt;get_tft_transform_output -->
<g id="edge22" class="edge">
<title>build_end_to_end_model&#45;&gt;get_tft_transform_output</title>
<path fill="none" stroke="black" d="M1145.4,-378.77C1166.9,-374.69 1190.3,-370.2 1211.8,-366 1248.7,-358.81 1289.5,-350.69 1324.1,-343.73"/>
<polygon fill="black" stroke="black" points="1325.09,-347.1 1334.2,-341.7 1323.71,-340.24 1325.09,-347.1"/>
<text text-anchor="middle" x="1239.3" y="-364.8" font-family="Times,serif" font-size="14.00">21</text>
</g>
<!-- converted_call -->
<g id="node17" class="node">
<title>converted_call</title>
<ellipse fill="none" stroke="orange" cx="77.5" cy="-206" rx="77.5" ry="18"/>
<text text-anchor="middle" x="77.5" y="-202.3" font-family="Times,serif" font-size="14.00">converted_call</text>
</g>
<!-- map_features_and_labels -->
<g id="node18" class="node">
<title>map_features_and_labels</title>
<ellipse fill="none" stroke="black" cx="336.74" cy="-206" rx="126.98" ry="18"/>
<text text-anchor="middle" x="336.74" y="-202.3" font-family="Times,serif" font-size="14.00">map_features_and_labels</text>
</g>
<!-- converted_call&#45;&gt;map_features_and_labels -->
<g id="edge23" class="edge">
<title>converted_call&#45;&gt;map_features_and_labels</title>
<path fill="none" stroke="black" d="M155.33,-206C169.42,-206 184.5,-206 199.72,-206"/>
<polygon fill="black" stroke="black" points="199.74,-209.5 209.74,-206 199.74,-202.5 199.74,-209.5"/>
<text text-anchor="middle" x="182.5" y="-209.8" font-family="Times,serif" font-size="14.00">19</text>
</g>
</g>
</svg>
