<?xml version="1.0" encoding="UTF-8" standalone="no"?>
<!DOCTYPE svg PUBLIC "-//W3C//DTD SVG 1.1//EN"
 "http://www.w3.org/Graphics/SVG/1.1/DTD/svg11.dtd">
<!-- Generated by graphviz version 2.48.0 (0)
 -->
<!-- Pages: 1 -->
<svg width="1721pt" height="271pt"
 viewBox="0.00 0.00 1720.80 271.00" xmlns="http://www.w3.org/2000/svg" xmlns:xlink="http://www.w3.org/1999/xlink">
<g id="graph0" class="graph" transform="scale(1 1) rotate(0) translate(4 267)">
<polygon fill="white" stroke="transparent" points="-4,4 -4,-267 1716.8,-267 1716.8,4 -4,4"/>
<!-- main -->
<g id="node1" class="node">
<title>main</title>
<ellipse fill="none" stroke="black" cx="77.5" cy="-126" rx="34" ry="18"/>
<text text-anchor="middle" x="77.5" y="-122.3" font-family="Times,serif" font-size="14.00">main</text>
</g>
<!-- perform_task -->
<g id="node2" class="node">
<title>perform_task</title>
<ellipse fill="none" stroke="black" cx="336.74" cy="-126" rx="72.29" ry="18"/>
<text text-anchor="middle" x="336.74" y="-122.3" font-family="Times,serif" font-size="14.00">perform_task</text>
</g>
<!-- main&#45;&gt;perform_task -->
<g id="edge1" class="edge">
<title>main&#45;&gt;perform_task</title>
<path fill="none" stroke="black" d="M111.6,-126C147.45,-126 205.99,-126 254.25,-126"/>
<polygon fill="black" stroke="black" points="254.38,-129.5 264.38,-126 254.38,-122.5 254.38,-129.5"/>
<text text-anchor="middle" x="182.5" y="-129.8" font-family="Times,serif" font-size="14.00">0</text>
</g>
<!-- train_non_embedding_model -->
<g id="node3" class="node">
<title>train_non_embedding_model</title>
<ellipse fill="none" stroke="black" cx="653.11" cy="-126" rx="143.77" ry="18"/>
<text text-anchor="middle" x="653.11" y="-122.3" font-family="Times,serif" font-size="14.00">train_non_embedding_model</text>
</g>
<!-- perform_task&#45;&gt;train_non_embedding_model -->
<g id="edge2" class="edge">
<title>perform_task&#45;&gt;train_non_embedding_model</title>
<path fill="none" stroke="black" d="M409.08,-126C435.97,-126 467.69,-126 499.19,-126"/>
<polygon fill="black" stroke="black" points="499.4,-129.5 509.4,-126 499.4,-122.5 499.4,-129.5"/>
<text text-anchor="middle" x="486.48" y="-129.8" font-family="Times,serif" font-size="14.00">1</text>
</g>
<!-- perform_prerequisites -->
<g id="node4" class="node">
<title>perform_prerequisites</title>
<ellipse fill="none" stroke="black" cx="996.25" cy="-234" rx="114.5" ry="18"/>
<text text-anchor="middle" x="996.25" y="-230.3" font-family="Times,serif" font-size="14.00">perform_prerequisites</text>
</g>
<!-- train_non_embedding_model&#45;&gt;perform_prerequisites -->
<g id="edge3" class="edge">
<title>train_non_embedding_model&#45;&gt;perform_prerequisites</title>
<path fill="none" stroke="black" d="M690.46,-143.52C729.51,-161.71 793.79,-189.86 851.75,-207 868.21,-211.87 886,-216.05 903.27,-219.57"/>
<polygon fill="black" stroke="black" points="902.87,-223.06 913.36,-221.56 904.23,-216.19 902.87,-223.06"/>
<text text-anchor="middle" x="824.25" y="-203.8" font-family="Times,serif" font-size="14.00">2</text>
</g>
<!-- build_model_inputs -->
<g id="node5" class="node">
<title>build_model_inputs</title>
<ellipse fill="none" stroke="black" cx="996.25" cy="-180" rx="100.98" ry="18"/>
<text text-anchor="middle" x="996.25" y="-176.3" font-family="Times,serif" font-size="14.00">build_model_inputs</text>
</g>
<!-- train_non_embedding_model&#45;&gt;build_model_inputs -->
<g id="edge4" class="edge">
<title>train_non_embedding_model&#45;&gt;build_model_inputs</title>
<path fill="none" stroke="black" d="M743.3,-140.12C794.84,-148.28 859.34,-158.49 910.17,-166.53"/>
<polygon fill="black" stroke="black" points="909.73,-170 920.15,-168.11 910.82,-163.09 909.73,-170"/>
<text text-anchor="middle" x="824.25" y="-156.8" font-family="Times,serif" font-size="14.00">5</text>
</g>
<!-- build_dnn_and_keras_inputs -->
<g id="node6" class="node">
<title>build_dnn_and_keras_inputs</title>
<ellipse fill="none" stroke="black" cx="996.25" cy="-126" rx="141.07" ry="18"/>
<text text-anchor="middle" x="996.25" y="-122.3" font-family="Times,serif" font-size="14.00">build_dnn_and_keras_inputs</text>
</g>
<!-- train_non_embedding_model&#45;&gt;build_dnn_and_keras_inputs -->
<g id="edge5" class="edge">
<title>train_non_embedding_model&#45;&gt;build_dnn_and_keras_inputs</title>
<path fill="none" stroke="black" d="M796.81,-126C812.61,-126 828.74,-126 844.64,-126"/>
<polygon fill="black" stroke="black" points="845.04,-129.5 855.04,-126 845.04,-122.5 845.04,-129.5"/>
<text text-anchor="middle" x="824.25" y="-129.8" font-family="Times,serif" font-size="14.00">9</text>
</g>
<!-- build_non_embedding_model -->
<g id="node7" class="node">
<title>build_non_embedding_model</title>
<ellipse fill="none" stroke="black" cx="996.25" cy="-72" rx="144.5" ry="18"/>
<text text-anchor="middle" x="996.25" y="-68.3" font-family="Times,serif" font-size="14.00">build_non_embedding_model</text>
</g>
<!-- train_non_embedding_model&#45;&gt;build_non_embedding_model -->
<g id="edge6" class="edge">
<title>train_non_embedding_model&#45;&gt;build_non_embedding_model</title>
<path fill="none" stroke="black" d="M743.3,-111.88C790.11,-104.47 847.61,-95.37 895.85,-87.73"/>
<polygon fill="black" stroke="black" points="896.67,-91.15 906,-86.13 895.58,-84.23 896.67,-91.15"/>
<text text-anchor="middle" x="824.25" y="-102.8" font-family="Times,serif" font-size="14.00">10</text>
</g>
<!-- get_dataset_with_subset -->
<g id="node8" class="node">
<title>get_dataset_with_subset</title>
<ellipse fill="none" stroke="black" cx="996.25" cy="-18" rx="125" ry="18"/>
<text text-anchor="middle" x="996.25" y="-14.3" font-family="Times,serif" font-size="14.00">get_dataset_with_subset</text>
</g>
<!-- train_non_embedding_model&#45;&gt;get_dataset_with_subset -->
<g id="edge7" class="edge">
<title>train_non_embedding_model&#45;&gt;get_dataset_with_subset</title>
<path fill="none" stroke="black" d="M690.46,-108.48C729.51,-90.29 793.79,-62.14 851.75,-45 867.15,-40.45 883.72,-36.49 899.93,-33.12"/>
<polygon fill="black" stroke="black" points="900.86,-36.51 909.97,-31.1 899.48,-29.64 900.86,-36.51"/>
<text text-anchor="middle" x="824.25" y="-59.8" font-family="Times,serif" font-size="14.00">11</text>
</g>
<!-- check_prerequisites -->
<g id="node9" class="node">
<title>check_prerequisites</title>
<ellipse fill="none" stroke="black" cx="1299.3" cy="-245" rx="103.5" ry="18"/>
<text text-anchor="middle" x="1299.3" y="-241.3" font-family="Times,serif" font-size="14.00">check_prerequisites</text>
</g>
<!-- perform_prerequisites&#45;&gt;check_prerequisites -->
<g id="edge8" class="edge">
<title>perform_prerequisites&#45;&gt;check_prerequisites</title>
<path fill="none" stroke="black" d="M1099,-226.04C1124.7,-225.13 1152.3,-225.11 1177.8,-227 1190,-227.91 1202.9,-229.33 1215.5,-230.98"/>
<polygon fill="black" stroke="black" points="1215.12,-234.46 1225.5,-232.36 1216.07,-227.53 1215.12,-234.46"/>
<text text-anchor="middle" x="1168.3" y="-230.8" font-family="Times,serif" font-size="14.00">3</text>
</g>
<!-- perform_prerequisites&#45;&gt;check_prerequisites -->
<g id="edge9" class="edge">
<title>perform_prerequisites&#45;&gt;check_prerequisites</title>
<path fill="none" stroke="black" d="M1105,-239.76C1122.9,-240.59 1141.4,-241.38 1158.8,-242 1167.6,-242.32 1176.9,-242.6 1186.1,-242.86"/>
<polygon fill="black" stroke="black" points="1186.11,-246.36 1196.2,-243.13 1186.3,-239.36 1186.11,-246.36"/>
<text text-anchor="middle" x="1168.3" y="-245.8" font-family="Times,serif" font-size="14.00">4</text>
</g>
<!-- get_feature_spec -->
<g id="node10" class="node">
<title>get_feature_spec</title>
<ellipse fill="none" stroke="black" cx="1299.3" cy="-115" rx="89.08" ry="18"/>
<text text-anchor="middle" x="1299.3" y="-111.3" font-family="Times,serif" font-size="14.00">get_feature_spec</text>
</g>
<!-- build_model_inputs&#45;&gt;get_feature_spec -->
<g id="edge10" class="edge">
<title>build_model_inputs&#45;&gt;get_feature_spec</title>
<path fill="none" stroke="black" d="M1068.2,-167.39C1091.4,-163.07 1117.2,-158.05 1140.8,-153 1171.3,-146.45 1204.9,-138.45 1233.2,-131.47"/>
<polygon fill="black" stroke="black" points="1234.13,-134.85 1243,-129.05 1232.45,-128.05 1234.13,-134.85"/>
<text text-anchor="middle" x="1168.3" y="-151.8" font-family="Times,serif" font-size="14.00">6</text>
</g>
<!-- build_inputs -->
<g id="node11" class="node">
<title>build_inputs</title>
<ellipse fill="none" stroke="black" cx="1299.3" cy="-180" rx="67.69" ry="18"/>
<text text-anchor="middle" x="1299.3" y="-176.3" font-family="Times,serif" font-size="14.00">build_inputs</text>
</g>
<!-- build_model_inputs&#45;&gt;build_inputs -->
<g id="edge11" class="edge">
<title>build_model_inputs&#45;&gt;build_inputs</title>
<path fill="none" stroke="black" d="M1097.1,-180C1137.4,-180 1183.3,-180 1221,-180"/>
<polygon fill="black" stroke="black" points="1221.4,-183.5 1231.4,-180 1221.4,-176.5 1221.4,-183.5"/>
<text text-anchor="middle" x="1168.3" y="-183.8" font-family="Times,serif" font-size="14.00">8</text>
</g>
<!-- get_dataset_with_subset&#45;&gt;get_feature_spec -->
<g id="edge12" class="edge">
<title>get_dataset_with_subset&#45;&gt;get_feature_spec</title>
<path fill="none" stroke="black" d="M1083.8,-30.92C1102.8,-34.68 1122.6,-39.34 1140.8,-45 1181.5,-57.71 1225.8,-78 1257,-93.48"/>
<polygon fill="black" stroke="black" points="1255.69,-96.74 1266.2,-98.11 1258.84,-90.49 1255.69,-96.74"/>
<text text-anchor="middle" x="1168.3" y="-61.8" font-family="Times,serif" font-size="14.00">12</text>
</g>
<!-- get_tft_transform_output -->
<g id="node12" class="node">
<title>get_tft_transform_output</title>
<ellipse fill="none" stroke="black" cx="1585.3" cy="-115" rx="127.5" ry="18"/>
<text text-anchor="middle" x="1585.3" y="-111.3" font-family="Times,serif" font-size="14.00">get_tft_transform_output</text>
</g>
<!-- get_feature_spec&#45;&gt;get_tft_transform_output -->
<g id="edge13" class="edge">
<title>get_feature_spec&#45;&gt;get_tft_transform_output</title>
<path fill="none" stroke="black" d="M1388.6,-115C1407.3,-115 1427.5,-115 1447.5,-115"/>
<polygon fill="black" stroke="black" points="1447.7,-118.5 1457.7,-115 1447.7,-111.5 1447.7,-118.5"/>
<text text-anchor="middle" x="1430.3" y="-118.8" font-family="Times,serif" font-size="14.00">7</text>
</g>
<!-- get_feature_spec&#45;&gt;get_tft_transform_output -->
<g id="edge14" class="edge">
<title>get_feature_spec&#45;&gt;get_tft_transform_output</title>
<path fill="none" stroke="black" d="M1365.1,-102.87C1383,-100.03 1402.6,-97.42 1420.8,-96 1446.8,-93.96 1475.1,-95.8 1500.7,-99"/>
<polygon fill="black" stroke="black" points="1500.32,-102.48 1510.7,-100.35 1501.26,-95.55 1500.32,-102.48"/>
<text text-anchor="middle" x="1430.3" y="-99.8" font-family="Times,serif" font-size="14.00">13</text>
</g>
<!-- converted_call -->
<g id="node13" class="node">
<title>converted_call</title>
<ellipse fill="none" stroke="orange" cx="77.5" cy="-207" rx="77.5" ry="18"/>
<text text-anchor="middle" x="77.5" y="-203.3" font-family="Times,serif" font-size="14.00">converted_call</text>
</g>
<!-- get_subset -->
<g id="node14" class="node">
<title>get_subset</title>
<ellipse fill="none" stroke="black" cx="336.74" cy="-234" rx="61.19" ry="18"/>
<text text-anchor="middle" x="336.74" y="-230.3" font-family="Times,serif" font-size="14.00">get_subset</text>
</g>
<!-- converted_call&#45;&gt;get_subset -->
<g id="edge15" class="edge">
<title>converted_call&#45;&gt;get_subset</title>
<path fill="none" stroke="black" d="M148.45,-214.34C185.85,-218.27 231.67,-223.08 268.63,-226.96"/>
<polygon fill="black" stroke="black" points="268.49,-230.46 278.8,-228.02 269.22,-223.5 268.49,-230.46"/>
<text text-anchor="middle" x="182.5" y="-221.8" font-family="Times,serif" font-size="14.00">14</text>
</g>
<!-- map_features_and_labels -->
<g id="node15" class="node">
<title>map_features_and_labels</title>
<ellipse fill="none" stroke="black" cx="336.74" cy="-180" rx="126.98" ry="18"/>
<text text-anchor="middle" x="336.74" y="-176.3" font-family="Times,serif" font-size="14.00">map_features_and_labels</text>
</g>
<!-- converted_call&#45;&gt;map_features_and_labels -->
<g id="edge16" class="edge">
<title>converted_call&#45;&gt;map_features_and_labels</title>
<path fill="none" stroke="black" d="M148.45,-199.66C171.83,-197.2 198.5,-194.4 224.24,-191.7"/>
<polygon fill="black" stroke="black" points="224.85,-195.16 234.43,-190.63 224.12,-188.19 224.85,-195.16"/>
<text text-anchor="middle" x="182.5" y="-199.8" font-family="Times,serif" font-size="14.00">15</text>
</g>
</g>
</svg>
