<?xml version="1.0" encoding="UTF-8" standalone="no"?>
<!DOCTYPE svg PUBLIC "-//W3C//DTD SVG 1.1//EN"
 "http://www.w3.org/Graphics/SVG/1.1/DTD/svg11.dtd">
<!-- Generated by graphviz version 2.48.0 (0)
 -->
<!-- Pages: 1 -->
<svg width="1486pt" height="416pt"
 viewBox="0.00 0.00 1485.84 416.00" xmlns="http://www.w3.org/2000/svg" xmlns:xlink="http://www.w3.org/1999/xlink">
<g id="graph0" class="graph" transform="scale(1 1) rotate(0) translate(4 412)">
<polygon fill="white" stroke="transparent" points="-4,4 -4,-412 1481.84,-412 1481.84,4 -4,4"/>
<!-- main -->
<g id="node1" class="node">
<title>main</title>
<ellipse fill="none" stroke="black" cx="77.5" cy="-158" rx="34" ry="18"/>
<text text-anchor="middle" x="77.5" y="-154.3" font-family="Times,serif" font-size="14.00">main</text>
</g>
<!-- perform_task -->
<g id="node2" class="node">
<title>perform_task</title>
<ellipse fill="none" stroke="black" cx="336.74" cy="-193" rx="72.29" ry="18"/>
<text text-anchor="middle" x="336.74" y="-189.3" font-family="Times,serif" font-size="14.00">perform_task</text>
</g>
<!-- main&#45;&gt;perform_task -->
<g id="edge1" class="edge">
<title>main&#45;&gt;perform_task</title>
<path fill="none" stroke="black" d="M110.56,-162.36C148.42,-167.51 212.6,-176.25 262.77,-183.07"/>
<polygon fill="black" stroke="black" points="262.55,-186.57 272.93,-184.45 263.49,-179.64 262.55,-186.57"/>
<text text-anchor="middle" x="182.5" y="-177.8" font-family="Times,serif" font-size="14.00">0</text>
</g>
<!-- closeout_task -->
<g id="node3" class="node">
<title>closeout_task</title>
<ellipse fill="none" stroke="black" cx="336.74" cy="-139" rx="73.5" ry="18"/>
<text text-anchor="middle" x="336.74" y="-135.3" font-family="Times,serif" font-size="14.00">closeout_task</text>
</g>
<!-- main&#45;&gt;closeout_task -->
<g id="edge2" class="edge">
<title>main&#45;&gt;closeout_task</title>
<path fill="none" stroke="black" d="M110.83,-154.17C129.06,-152.12 152.28,-149.67 173,-148 199.27,-145.89 227.96,-144.12 253.84,-142.73"/>
<polygon fill="black" stroke="black" points="254.19,-146.22 263.99,-142.19 253.82,-139.23 254.19,-146.22"/>
<text text-anchor="middle" x="182.5" y="-151.8" font-family="Times,serif" font-size="14.00">16</text>
</g>
<!-- train_non_embedding_model -->
<g id="node4" class="node">
<title>train_non_embedding_model</title>
<ellipse fill="none" stroke="black" cx="653.11" cy="-231" rx="143.77" ry="18"/>
<text text-anchor="middle" x="653.11" y="-227.3" font-family="Times,serif" font-size="14.00">train_non_embedding_model</text>
</g>
<!-- perform_task&#45;&gt;train_non_embedding_model -->
<g id="edge3" class="edge">
<title>perform_task&#45;&gt;train_non_embedding_model</title>
<path fill="none" stroke="black" d="M402.12,-200.78C441.53,-205.55 493.07,-211.78 539.11,-217.34"/>
<polygon fill="black" stroke="black" points="538.8,-220.83 549.15,-218.55 539.64,-213.88 538.8,-220.83"/>
<text text-anchor="middle" x="486.48" y="-213.8" font-family="Times,serif" font-size="14.00">1</text>
</g>
<!-- transform_tfrecords -->
<g id="node5" class="node">
<title>transform_tfrecords</title>
<ellipse fill="none" stroke="black" cx="653.11" cy="-53" rx="104" ry="18"/>
<text text-anchor="middle" x="653.11" y="-49.3" font-family="Times,serif" font-size="14.00">transform_tfrecords</text>
</g>
<!-- perform_task&#45;&gt;transform_tfrecords -->
<g id="edge4" class="edge">
<title>perform_task&#45;&gt;transform_tfrecords</title>
<path fill="none" stroke="black" d="M399.36,-183.95C420.16,-179.81 443.23,-173.99 463.48,-166 522.49,-142.73 584.38,-102.05 620.54,-76.38"/>
<polygon fill="black" stroke="black" points="622.64,-79.18 628.73,-70.51 618.56,-73.49 622.64,-79.18"/>
<text text-anchor="middle" x="486.48" y="-160.8" font-family="Times,serif" font-size="14.00">4</text>
</g>
<!-- train_non_embedding_model&#45;&gt;perform_task -->
<g id="edge5" class="edge">
<title>train_non_embedding_model&#45;&gt;perform_task</title>
<path fill="none" stroke="black" d="M598.82,-214.25C567.84,-205.4 527.85,-195.46 491.48,-191 487.07,-190.46 485.92,-190.97 481.48,-191 461.3,-191.14 439.54,-191.39 419.19,-191.67"/>
<polygon fill="black" stroke="black" points="418.97,-188.17 409.02,-191.81 419.07,-195.17 418.97,-188.17"/>
<text text-anchor="middle" x="486.48" y="-194.8" font-family="Times,serif" font-size="14.00">3</text>
</g>
<!-- check_prerequisites -->
<g id="node6" class="node">
<title>check_prerequisites</title>
<ellipse fill="none" stroke="black" cx="996.25" cy="-336" rx="103.5" ry="18"/>
<text text-anchor="middle" x="996.25" y="-332.3" font-family="Times,serif" font-size="14.00">check_prerequisites</text>
</g>
<!-- train_non_embedding_model&#45;&gt;check_prerequisites -->
<g id="edge6" class="edge">
<title>train_non_embedding_model&#45;&gt;check_prerequisites</title>
<path fill="none" stroke="black" d="M679.41,-248.86C709.92,-269.39 763.51,-302.27 814.75,-318 836.65,-324.72 860.68,-329.08 883.85,-331.87"/>
<polygon fill="black" stroke="black" points="883.75,-335.38 894.08,-333.01 884.53,-328.42 883.75,-335.38"/>
<text text-anchor="middle" x="824.25" y="-326.8" font-family="Times,serif" font-size="14.00">2</text>
</g>
<!-- train_non_embedding_model&#45;&gt;check_prerequisites -->
<g id="edge7" class="edge">
<title>train_non_embedding_model&#45;&gt;check_prerequisites</title>
<path fill="none" stroke="black" d="M704.48,-247.86C740.94,-260.59 791.1,-279.21 833.75,-299 842.05,-302.85 843.14,-305.89 851.75,-309 868,-314.87 885.76,-319.52 903.08,-323.2"/>
<polygon fill="black" stroke="black" points="902.71,-326.7 913.21,-325.25 904.1,-319.84 902.71,-326.7"/>
<text text-anchor="middle" x="824.25" y="-302.8" font-family="Times,serif" font-size="14.00">6</text>
</g>
<!-- build_raw_inputs -->
<g id="node7" class="node">
<title>build_raw_inputs</title>
<ellipse fill="none" stroke="black" cx="996.25" cy="-282" rx="89.88" ry="18"/>
<text text-anchor="middle" x="996.25" y="-278.3" font-family="Times,serif" font-size="14.00">build_raw_inputs</text>
</g>
<!-- train_non_embedding_model&#45;&gt;build_raw_inputs -->
<g id="edge8" class="edge">
<title>train_non_embedding_model&#45;&gt;build_raw_inputs</title>
<path fill="none" stroke="black" d="M745.98,-244.73C798.34,-252.56 863.37,-262.28 913.88,-269.83"/>
<polygon fill="black" stroke="black" points="913.37,-273.29 923.78,-271.31 914.41,-266.37 913.37,-273.29"/>
<text text-anchor="middle" x="824.25" y="-259.8" font-family="Times,serif" font-size="14.00">7</text>
</g>
<!-- get_tft_transform_output -->
<g id="node8" class="node">
<title>get_tft_transform_output</title>
<ellipse fill="none" stroke="black" cx="1336.8" cy="-247" rx="127.5" ry="18"/>
<text text-anchor="middle" x="1336.8" y="-243.3" font-family="Times,serif" font-size="14.00">get_tft_transform_output</text>
</g>
<!-- train_non_embedding_model&#45;&gt;get_tft_transform_output -->
<g id="edge9" class="edge">
<title>train_non_embedding_model&#45;&gt;get_tft_transform_output</title>
<path fill="none" stroke="black" d="M796,-232.97C893.08,-234.48 1024.7,-236.84 1140.8,-240 1161,-240.55 1182.4,-241.22 1203.3,-241.94"/>
<polygon fill="black" stroke="black" points="1203.49,-245.45 1213.6,-242.29 1203.72,-238.45 1203.49,-245.45"/>
<text text-anchor="middle" x="996.25" y="-243.8" font-family="Times,serif" font-size="14.00">8</text>
</g>
<!-- build_transformed_inputs -->
<g id="node9" class="node">
<title>build_transformed_inputs</title>
<ellipse fill="none" stroke="black" cx="996.25" cy="-177" rx="130" ry="18"/>
<text text-anchor="middle" x="996.25" y="-173.3" font-family="Times,serif" font-size="14.00">build_transformed_inputs</text>
</g>
<!-- train_non_embedding_model&#45;&gt;build_transformed_inputs -->
<g id="edge10" class="edge">
<title>train_non_embedding_model&#45;&gt;build_transformed_inputs</title>
<path fill="none" stroke="black" d="M733.26,-216.05C759.19,-211.33 788.17,-206.24 814.75,-202 839.33,-198.08 865.84,-194.21 890.78,-190.73"/>
<polygon fill="black" stroke="black" points="891.57,-194.15 900.99,-189.31 890.6,-187.22 891.57,-194.15"/>
<text text-anchor="middle" x="824.25" y="-205.8" font-family="Times,serif" font-size="14.00">9</text>
</g>
<!-- build_dnn_and_keras_inputs -->
<g id="node10" class="node">
<title>build_dnn_and_keras_inputs</title>
<ellipse fill="none" stroke="black" cx="1336.8" cy="-111" rx="141.07" ry="18"/>
<text text-anchor="middle" x="1336.8" y="-107.3" font-family="Times,serif" font-size="14.00">build_dnn_and_keras_inputs</text>
</g>
<!-- train_non_embedding_model&#45;&gt;build_dnn_and_keras_inputs -->
<g id="edge11" class="edge">
<title>train_non_embedding_model&#45;&gt;build_dnn_and_keras_inputs</title>
<path fill="none" stroke="black" d="M681.53,-213.23C718.47,-190.35 787.09,-151.57 851.75,-135 912.63,-119.4 1067.3,-113.83 1185.6,-111.9"/>
<polygon fill="black" stroke="black" points="1185.86,-115.4 1195.8,-111.74 1185.75,-108.4 1185.86,-115.4"/>
<text text-anchor="middle" x="996.25" y="-138.8" font-family="Times,serif" font-size="14.00">10</text>
</g>
<!-- build_non_embedding_model -->
<g id="node11" class="node">
<title>build_non_embedding_model</title>
<ellipse fill="none" stroke="black" cx="996.25" cy="-72" rx="144.5" ry="18"/>
<text text-anchor="middle" x="996.25" y="-68.3" font-family="Times,serif" font-size="14.00">build_non_embedding_model</text>
</g>
<!-- train_non_embedding_model&#45;&gt;build_non_embedding_model -->
<g id="edge12" class="edge">
<title>train_non_embedding_model&#45;&gt;build_non_embedding_model</title>
<path fill="none" stroke="black" d="M669.3,-213.03C695.56,-183.31 752.64,-124.47 814.75,-97 828.52,-90.91 843.4,-86.22 858.51,-82.62"/>
<polygon fill="black" stroke="black" points="859.46,-86 868.46,-80.41 857.94,-79.16 859.46,-86"/>
<text text-anchor="middle" x="824.25" y="-100.8" font-family="Times,serif" font-size="14.00">11</text>
</g>
<!-- get_transformed_dataset -->
<g id="node12" class="node">
<title>get_transformed_dataset</title>
<ellipse fill="none" stroke="black" cx="996.25" cy="-390" rx="126.98" ry="18"/>
<text text-anchor="middle" x="996.25" y="-386.3" font-family="Times,serif" font-size="14.00">get_transformed_dataset</text>
</g>
<!-- train_non_embedding_model&#45;&gt;get_transformed_dataset -->
<g id="edge13" class="edge">
<title>train_non_embedding_model&#45;&gt;get_transformed_dataset</title>
<path fill="none" stroke="black" d="M673.66,-248.82C707.24,-278.26 779.3,-336.46 851.75,-363 865.19,-367.92 879.69,-371.99 894.12,-375.33"/>
<polygon fill="black" stroke="black" points="893.56,-378.79 904.08,-377.54 895.08,-371.96 893.56,-378.79"/>
<text text-anchor="middle" x="824.25" y="-356.8" font-family="Times,serif" font-size="14.00">13</text>
</g>
<!-- pipeline_function -->
<g id="node13" class="node">
<title>pipeline_function</title>
<ellipse fill="none" stroke="black" cx="996.25" cy="-18" rx="90.5" ry="18"/>
<text text-anchor="middle" x="996.25" y="-14.3" font-family="Times,serif" font-size="14.00">pipeline_function</text>
</g>
<!-- transform_tfrecords&#45;&gt;pipeline_function -->
<g id="edge14" class="edge">
<title>transform_tfrecords&#45;&gt;pipeline_function</title>
<path fill="none" stroke="black" d="M742.85,-43.9C792.81,-38.77 855.05,-32.38 905.22,-27.24"/>
<polygon fill="black" stroke="black" points="905.82,-30.69 915.41,-26.19 905.11,-23.73 905.82,-30.69"/>
<text text-anchor="middle" x="824.25" y="-39.8" font-family="Times,serif" font-size="14.00">5</text>
</g>
<!-- build_non_embedding_model&#45;&gt;build_dnn_and_keras_inputs -->
<g id="edge15" class="edge">
<title>build_non_embedding_model&#45;&gt;build_dnn_and_keras_inputs</title>
<path fill="none" stroke="black" d="M1103,-84.18C1140.6,-88.51 1183,-93.4 1221.3,-97.81"/>
<polygon fill="black" stroke="black" points="1221.06,-101.31 1231.4,-98.98 1221.87,-94.35 1221.06,-101.31"/>
<text text-anchor="middle" x="1168.3" y="-96.8" font-family="Times,serif" font-size="14.00">12</text>
</g>
<!-- get_transformed_dataset&#45;&gt;get_tft_transform_output -->
<g id="edge16" class="edge">
<title>get_transformed_dataset&#45;&gt;get_tft_transform_output</title>
<path fill="none" stroke="black" d="M1089.3,-377.64C1106.7,-373.92 1124.5,-369.14 1140.8,-363 1202.3,-339.73 1266.6,-297.41 1303.8,-270.83"/>
<polygon fill="black" stroke="black" points="1306.2,-273.42 1312.3,-264.76 1302.13,-267.72 1306.2,-273.42"/>
<text text-anchor="middle" x="1168.3" y="-356.8" font-family="Times,serif" font-size="14.00">14</text>
</g>
<!-- converted_call -->
<g id="node14" class="node">
<title>converted_call</title>
<ellipse fill="none" stroke="orange" cx="77.5" cy="-247" rx="77.5" ry="18"/>
<text text-anchor="middle" x="77.5" y="-243.3" font-family="Times,serif" font-size="14.00">converted_call</text>
</g>
<!-- map_features_and_labels -->
<g id="node15" class="node">
<title>map_features_and_labels</title>
<ellipse fill="none" stroke="black" cx="336.74" cy="-247" rx="126.98" ry="18"/>
<text text-anchor="middle" x="336.74" y="-243.3" font-family="Times,serif" font-size="14.00">map_features_and_labels</text>
</g>
<!-- converted_call&#45;&gt;map_features_and_labels -->
<g id="edge17" class="edge">
<title>converted_call&#45;&gt;map_features_and_labels</title>
<path fill="none" stroke="black" d="M155.33,-247C169.42,-247 184.5,-247 199.72,-247"/>
<polygon fill="black" stroke="black" points="199.74,-250.5 209.74,-247 199.74,-243.5 199.74,-250.5"/>
<text text-anchor="middle" x="182.5" y="-250.8" font-family="Times,serif" font-size="14.00">15</text>
</g>
</g>
</svg>
