<?xml version="1.0" encoding="UTF-8" standalone="no"?>
<!DOCTYPE svg PUBLIC "-//W3C//DTD SVG 1.1//EN"
 "http://www.w3.org/Graphics/SVG/1.1/DTD/svg11.dtd">
<!-- Generated by graphviz version 2.48.0 (0)
 -->
<!-- Pages: 1 -->
<svg width="1459pt" height="375pt"
 viewBox="0.00 0.00 1458.80 375.00" xmlns="http://www.w3.org/2000/svg" xmlns:xlink="http://www.w3.org/1999/xlink">
<g id="graph0" class="graph" transform="scale(1 1) rotate(0) translate(4 371)">
<polygon fill="white" stroke="transparent" points="-4,4 -4,-371 1454.8,-371 1454.8,4 -4,4"/>
<!-- main -->
<g id="node1" class="node">
<title>main</title>
<ellipse fill="none" stroke="black" cx="77.5" cy="-134" rx="34" ry="18"/>
<text text-anchor="middle" x="77.5" y="-130.3" font-family="Times,serif" font-size="14.00">main</text>
</g>
<!-- perform_task -->
<g id="node2" class="node">
<title>perform_task</title>
<ellipse fill="none" stroke="black" cx="336.74" cy="-169" rx="72.29" ry="18"/>
<text text-anchor="middle" x="336.74" y="-165.3" font-family="Times,serif" font-size="14.00">perform_task</text>
</g>
<!-- main&#45;&gt;perform_task -->
<g id="edge1" class="edge">
<title>main&#45;&gt;perform_task</title>
<path fill="none" stroke="black" d="M110.56,-138.36C148.42,-143.51 212.6,-152.25 262.77,-159.07"/>
<polygon fill="black" stroke="black" points="262.55,-162.57 272.93,-160.45 263.49,-155.64 262.55,-162.57"/>
<text text-anchor="middle" x="182.5" y="-153.8" font-family="Times,serif" font-size="14.00">0</text>
</g>
<!-- closeout_task -->
<g id="node3" class="node">
<title>closeout_task</title>
<ellipse fill="none" stroke="black" cx="336.74" cy="-115" rx="73.5" ry="18"/>
<text text-anchor="middle" x="336.74" y="-111.3" font-family="Times,serif" font-size="14.00">closeout_task</text>
</g>
<!-- main&#45;&gt;closeout_task -->
<g id="edge2" class="edge">
<title>main&#45;&gt;closeout_task</title>
<path fill="none" stroke="black" d="M110.83,-130.17C129.06,-128.12 152.28,-125.67 173,-124 199.27,-121.89 227.96,-120.12 253.84,-118.73"/>
<polygon fill="black" stroke="black" points="254.19,-122.22 263.99,-118.19 253.82,-115.23 254.19,-122.22"/>
<text text-anchor="middle" x="182.5" y="-127.8" font-family="Times,serif" font-size="14.00">14</text>
</g>
<!-- train_non_embedding_model -->
<g id="node4" class="node">
<title>train_non_embedding_model</title>
<ellipse fill="none" stroke="black" cx="653.11" cy="-207" rx="143.77" ry="18"/>
<text text-anchor="middle" x="653.11" y="-203.3" font-family="Times,serif" font-size="14.00">train_non_embedding_model</text>
</g>
<!-- perform_task&#45;&gt;train_non_embedding_model -->
<g id="edge3" class="edge">
<title>perform_task&#45;&gt;train_non_embedding_model</title>
<path fill="none" stroke="black" d="M402.12,-176.78C441.53,-181.55 493.07,-187.78 539.11,-193.34"/>
<polygon fill="black" stroke="black" points="538.8,-196.83 549.15,-194.55 539.64,-189.88 538.8,-196.83"/>
<text text-anchor="middle" x="486.48" y="-189.8" font-family="Times,serif" font-size="14.00">1</text>
</g>
<!-- transform_tfrecords -->
<g id="node5" class="node">
<title>transform_tfrecords</title>
<ellipse fill="none" stroke="black" cx="653.11" cy="-67" rx="104" ry="18"/>
<text text-anchor="middle" x="653.11" y="-63.3" font-family="Times,serif" font-size="14.00">transform_tfrecords</text>
</g>
<!-- perform_task&#45;&gt;transform_tfrecords -->
<g id="edge4" class="edge">
<title>perform_task&#45;&gt;transform_tfrecords</title>
<path fill="none" stroke="black" d="M395.84,-158.63C417.3,-154.25 441.69,-148.62 463.48,-142 513.22,-126.89 568.26,-104.29 605.99,-87.85"/>
<polygon fill="black" stroke="black" points="607.44,-91.04 615.19,-83.81 604.63,-84.63 607.44,-91.04"/>
<text text-anchor="middle" x="486.48" y="-139.8" font-family="Times,serif" font-size="14.00">4</text>
</g>
<!-- train_non_embedding_model&#45;&gt;perform_task -->
<g id="edge5" class="edge">
<title>train_non_embedding_model&#45;&gt;perform_task</title>
<path fill="none" stroke="black" d="M598.82,-190.25C567.84,-181.4 527.85,-171.46 491.48,-167 487.07,-166.46 485.92,-166.97 481.48,-167 461.3,-167.14 439.54,-167.39 419.19,-167.67"/>
<polygon fill="black" stroke="black" points="418.97,-164.17 409.02,-167.81 419.07,-171.17 418.97,-164.17"/>
<text text-anchor="middle" x="486.48" y="-170.8" font-family="Times,serif" font-size="14.00">3</text>
</g>
<!-- check_prerequisites -->
<g id="node6" class="node">
<title>check_prerequisites</title>
<ellipse fill="none" stroke="black" cx="996.25" cy="-349" rx="103.5" ry="18"/>
<text text-anchor="middle" x="996.25" y="-345.3" font-family="Times,serif" font-size="14.00">check_prerequisites</text>
</g>
<!-- train_non_embedding_model&#45;&gt;check_prerequisites -->
<g id="edge6" class="edge">
<title>train_non_embedding_model&#45;&gt;check_prerequisites</title>
<path fill="none" stroke="black" d="M669.22,-224.91C695.36,-254.44 752.28,-312.53 814.75,-337 836.76,-345.62 861.42,-350.21 885.28,-352.39"/>
<polygon fill="black" stroke="black" points="885.21,-355.89 895.45,-353.19 885.76,-348.92 885.21,-355.89"/>
<text text-anchor="middle" x="824.25" y="-346.8" font-family="Times,serif" font-size="14.00">2</text>
</g>
<!-- train_non_embedding_model&#45;&gt;check_prerequisites -->
<g id="edge7" class="edge">
<title>train_non_embedding_model&#45;&gt;check_prerequisites</title>
<path fill="none" stroke="black" d="M680.34,-224.77C711.31,-245.09 764.92,-278.21 814.75,-299 848.34,-313.01 887.06,-324.33 920,-332.63"/>
<polygon fill="black" stroke="black" points="919.48,-336.11 930.03,-335.11 921.16,-329.31 919.48,-336.11"/>
<text text-anchor="middle" x="824.25" y="-309.8" font-family="Times,serif" font-size="14.00">6</text>
</g>
<!-- get_tft_transform_output -->
<g id="node7" class="node">
<title>get_tft_transform_output</title>
<ellipse fill="none" stroke="black" cx="1323.3" cy="-180" rx="127.5" ry="18"/>
<text text-anchor="middle" x="1323.3" y="-176.3" font-family="Times,serif" font-size="14.00">get_tft_transform_output</text>
</g>
<!-- train_non_embedding_model&#45;&gt;get_tft_transform_output -->
<g id="edge8" class="edge">
<title>train_non_embedding_model&#45;&gt;get_tft_transform_output</title>
<path fill="none" stroke="black" d="M702.1,-223.99C741.67,-237.05 799.58,-254 851.75,-261 979.06,-278.08 1015.1,-287.76 1140.8,-261 1193,-249.88 1248.3,-222.63 1284,-202.8"/>
<polygon fill="black" stroke="black" points="1286.11,-205.63 1293.1,-197.67 1282.67,-199.53 1286.11,-205.63"/>
<text text-anchor="middle" x="996.25" y="-280.8" font-family="Times,serif" font-size="14.00">7</text>
</g>
<!-- build_transformed_inputs -->
<g id="node8" class="node">
<title>build_transformed_inputs</title>
<ellipse fill="none" stroke="black" cx="996.25" cy="-234" rx="130" ry="18"/>
<text text-anchor="middle" x="996.25" y="-230.3" font-family="Times,serif" font-size="14.00">build_transformed_inputs</text>
</g>
<!-- train_non_embedding_model&#45;&gt;build_transformed_inputs -->
<g id="edge9" class="edge">
<title>train_non_embedding_model&#45;&gt;build_transformed_inputs</title>
<path fill="none" stroke="black" d="M774.87,-216.56C806.6,-219.07 840.86,-221.78 872.69,-224.3"/>
<polygon fill="black" stroke="black" points="872.7,-227.81 882.94,-225.11 873.25,-220.83 872.7,-227.81"/>
<text text-anchor="middle" x="824.25" y="-223.8" font-family="Times,serif" font-size="14.00">8</text>
</g>
<!-- build_dnn_and_keras_inputs -->
<g id="node9" class="node">
<title>build_dnn_and_keras_inputs</title>
<ellipse fill="none" stroke="black" cx="996.25" cy="-180" rx="141.07" ry="18"/>
<text text-anchor="middle" x="996.25" y="-176.3" font-family="Times,serif" font-size="14.00">build_dnn_and_keras_inputs</text>
</g>
<!-- train_non_embedding_model&#45;&gt;build_dnn_and_keras_inputs -->
<g id="edge10" class="edge">
<title>train_non_embedding_model&#45;&gt;build_dnn_and_keras_inputs</title>
<path fill="none" stroke="black" d="M774.87,-197.44C804.4,-195.11 836.12,-192.6 866.03,-190.23"/>
<polygon fill="black" stroke="black" points="866.41,-193.71 876.1,-189.43 865.85,-186.73 866.41,-193.71"/>
<text text-anchor="middle" x="824.25" y="-196.8" font-family="Times,serif" font-size="14.00">9</text>
</g>
<!-- build_non_embedding_model -->
<g id="node10" class="node">
<title>build_non_embedding_model</title>
<ellipse fill="none" stroke="black" cx="996.25" cy="-126" rx="144.5" ry="18"/>
<text text-anchor="middle" x="996.25" y="-122.3" font-family="Times,serif" font-size="14.00">build_non_embedding_model</text>
</g>
<!-- train_non_embedding_model&#45;&gt;build_non_embedding_model -->
<g id="edge11" class="edge">
<title>train_non_embedding_model&#45;&gt;build_non_embedding_model</title>
<path fill="none" stroke="black" d="M710.03,-190.42C749.45,-179.06 803.57,-164.1 851.75,-153 867.61,-149.35 884.53,-145.83 900.99,-142.61"/>
<polygon fill="black" stroke="black" points="902.02,-145.98 911.17,-140.64 900.69,-139.1 902.02,-145.98"/>
<text text-anchor="middle" x="824.25" y="-164.8" font-family="Times,serif" font-size="14.00">10</text>
</g>
<!-- get_transformed_dataset -->
<g id="node11" class="node">
<title>get_transformed_dataset</title>
<ellipse fill="none" stroke="black" cx="996.25" cy="-72" rx="126.98" ry="18"/>
<text text-anchor="middle" x="996.25" y="-68.3" font-family="Times,serif" font-size="14.00">get_transformed_dataset</text>
</g>
<!-- train_non_embedding_model&#45;&gt;get_transformed_dataset -->
<g id="edge12" class="edge">
<title>train_non_embedding_model&#45;&gt;get_transformed_dataset</title>
<path fill="none" stroke="black" d="M680.34,-189.14C717.05,-165 786.58,-122.28 851.75,-99 865.43,-94.12 880.17,-90.06 894.81,-86.72"/>
<polygon fill="black" stroke="black" points="895.89,-90.07 904.92,-84.52 894.4,-83.23 895.89,-90.07"/>
<text text-anchor="middle" x="824.25" y="-116.8" font-family="Times,serif" font-size="14.00">11</text>
</g>
<!-- pipeline_function -->
<g id="node12" class="node">
<title>pipeline_function</title>
<ellipse fill="none" stroke="black" cx="996.25" cy="-18" rx="90.5" ry="18"/>
<text text-anchor="middle" x="996.25" y="-14.3" font-family="Times,serif" font-size="14.00">pipeline_function</text>
</g>
<!-- transform_tfrecords&#45;&gt;pipeline_function -->
<g id="edge13" class="edge">
<title>transform_tfrecords&#45;&gt;pipeline_function</title>
<path fill="none" stroke="black" d="M732.12,-55.17C758.36,-51.24 787.82,-46.88 814.75,-43 846.12,-38.48 880.58,-33.67 910.9,-29.49"/>
<polygon fill="black" stroke="black" points="911.59,-32.93 921.02,-28.1 910.64,-26 911.59,-32.93"/>
<text text-anchor="middle" x="824.25" y="-46.8" font-family="Times,serif" font-size="14.00">5</text>
</g>
<!-- get_transformed_dataset&#45;&gt;get_tft_transform_output -->
<g id="edge14" class="edge">
<title>get_transformed_dataset&#45;&gt;get_tft_transform_output</title>
<path fill="none" stroke="black" d="M1084.2,-84.98C1103,-88.73 1122.7,-93.37 1140.8,-99 1190.2,-114.45 1244,-139.62 1280.1,-157.81"/>
<polygon fill="black" stroke="black" points="1278.9,-161.12 1289.4,-162.51 1282.05,-154.88 1278.9,-161.12"/>
<text text-anchor="middle" x="1168.3" y="-115.8" font-family="Times,serif" font-size="14.00">12</text>
</g>
<!-- converted_call -->
<g id="node13" class="node">
<title>converted_call</title>
<ellipse fill="none" stroke="orange" cx="77.5" cy="-223" rx="77.5" ry="18"/>
<text text-anchor="middle" x="77.5" y="-219.3" font-family="Times,serif" font-size="14.00">converted_call</text>
</g>
<!-- map_features_and_labels -->
<g id="node14" class="node">
<title>map_features_and_labels</title>
<ellipse fill="none" stroke="black" cx="336.74" cy="-223" rx="126.98" ry="18"/>
<text text-anchor="middle" x="336.74" y="-219.3" font-family="Times,serif" font-size="14.00">map_features_and_labels</text>
</g>
<!-- converted_call&#45;&gt;map_features_and_labels -->
<g id="edge15" class="edge">
<title>converted_call&#45;&gt;map_features_and_labels</title>
<path fill="none" stroke="black" d="M155.33,-223C169.42,-223 184.5,-223 199.72,-223"/>
<polygon fill="black" stroke="black" points="199.74,-226.5 209.74,-223 199.74,-219.5 199.74,-226.5"/>
<text text-anchor="middle" x="182.5" y="-226.8" font-family="Times,serif" font-size="14.00">13</text>
</g>
</g>
</svg>
