<?xml version="1.0" encoding="UTF-8" standalone="no"?>
<!DOCTYPE svg PUBLIC "-//W3C//DTD SVG 1.1//EN"
 "http://www.w3.org/Graphics/SVG/1.1/DTD/svg11.dtd">
<!-- Generated by graphviz version 2.48.0 (0)
 -->
<!-- Pages: 1 -->
<svg width="1599pt" height="333pt"
 viewBox="0.00 0.00 1598.60 333.00" xmlns="http://www.w3.org/2000/svg" xmlns:xlink="http://www.w3.org/1999/xlink">
<g id="graph0" class="graph" transform="scale(1 1) rotate(0) translate(4 329)">
<polygon fill="white" stroke="transparent" points="-4,4 -4,-329 1594.6,-329 1594.6,4 -4,4"/>
<!-- main -->
<g id="node1" class="node">
<title>main</title>
<ellipse fill="none" stroke="black" cx="34" cy="-134" rx="34" ry="18"/>
<text text-anchor="middle" x="34" y="-130.3" font-family="Times,serif" font-size="14.00">main</text>
</g>
<!-- perform_task -->
<g id="node2" class="node">
<title>perform_task</title>
<ellipse fill="none" stroke="black" cx="186.14" cy="-134" rx="72.29" ry="18"/>
<text text-anchor="middle" x="186.14" y="-130.3" font-family="Times,serif" font-size="14.00">perform_task</text>
</g>
<!-- main&#45;&gt;perform_task -->
<g id="edge1" class="edge">
<title>main&#45;&gt;perform_task</title>
<path fill="none" stroke="black" d="M68.32,-134C78.96,-134 91.23,-134 103.74,-134"/>
<polygon fill="black" stroke="black" points="103.8,-137.5 113.8,-134 103.8,-130.5 103.8,-137.5"/>
<text text-anchor="middle" x="91" y="-137.8" font-family="Times,serif" font-size="14.00">0</text>
</g>
<!-- view_transformed_sample_data -->
<g id="node3" class="node">
<title>view_transformed_sample_data</title>
<ellipse fill="none" stroke="black" cx="460.92" cy="-134" rx="156.77" ry="18"/>
<text text-anchor="middle" x="460.92" y="-130.3" font-family="Times,serif" font-size="14.00">view_transformed_sample_data</text>
</g>
<!-- perform_task&#45;&gt;view_transformed_sample_data -->
<g id="edge2" class="edge">
<title>perform_task&#45;&gt;view_transformed_sample_data</title>
<path fill="none" stroke="black" d="M258.46,-134C269.62,-134 281.54,-134 293.8,-134"/>
<polygon fill="black" stroke="black" points="294.16,-137.5 304.16,-134 294.16,-130.5 294.16,-137.5"/>
<text text-anchor="middle" x="281.29" y="-137.8" font-family="Times,serif" font-size="14.00">1</text>
</g>
<!-- perform_prerequisites -->
<g id="node4" class="node">
<title>perform_prerequisites</title>
<ellipse fill="none" stroke="black" cx="845.56" cy="-283" rx="114.5" ry="18"/>
<text text-anchor="middle" x="845.56" y="-279.3" font-family="Times,serif" font-size="14.00">perform_prerequisites</text>
</g>
<!-- view_transformed_sample_data&#45;&gt;perform_prerequisites -->
<g id="edge3" class="edge">
<title>view_transformed_sample_data&#45;&gt;perform_prerequisites</title>
<path fill="none" stroke="black" d="M489.76,-151.79C529.05,-176.16 603.67,-219.76 672.56,-245 698.9,-254.65 728.45,-262.27 755.52,-268.06"/>
<polygon fill="black" stroke="black" points="754.88,-271.5 765.38,-270.12 756.31,-264.65 754.88,-271.5"/>
<text text-anchor="middle" x="645.06" y="-238.8" font-family="Times,serif" font-size="14.00">2</text>
</g>
<!-- build_raw_inputs -->
<g id="node5" class="node">
<title>build_raw_inputs</title>
<ellipse fill="none" stroke="black" cx="845.56" cy="-218" rx="89.88" ry="18"/>
<text text-anchor="middle" x="845.56" y="-214.3" font-family="Times,serif" font-size="14.00">build_raw_inputs</text>
</g>
<!-- view_transformed_sample_data&#45;&gt;build_raw_inputs -->
<g id="edge4" class="edge">
<title>view_transformed_sample_data&#45;&gt;build_raw_inputs</title>
<path fill="none" stroke="black" d="M517.84,-150.91C560.06,-163.25 619.58,-179.71 672.56,-191 700.86,-197.03 732.05,-202.33 760.01,-206.6"/>
<polygon fill="black" stroke="black" points="759.75,-210.1 770.16,-208.12 760.79,-203.18 759.75,-210.1"/>
<text text-anchor="middle" x="645.06" y="-188.8" font-family="Times,serif" font-size="14.00">6</text>
</g>
<!-- get_single_batched_example -->
<g id="node6" class="node">
<title>get_single_batched_example</title>
<ellipse fill="none" stroke="black" cx="845.56" cy="-164" rx="143" ry="18"/>
<text text-anchor="middle" x="845.56" y="-160.3" font-family="Times,serif" font-size="14.00">get_single_batched_example</text>
</g>
<!-- view_transformed_sample_data&#45;&gt;get_single_batched_example -->
<g id="edge5" class="edge">
<title>view_transformed_sample_data&#45;&gt;get_single_batched_example</title>
<path fill="none" stroke="black" d="M590.67,-144.09C630.28,-147.2 673.92,-150.62 713.68,-153.74"/>
<polygon fill="black" stroke="black" points="713.46,-157.23 723.7,-154.52 714,-150.25 713.46,-157.23"/>
<text text-anchor="middle" x="645.06" y="-152.8" font-family="Times,serif" font-size="14.00">8</text>
</g>
<!-- get_tft_transform_output -->
<g id="node7" class="node">
<title>get_tft_transform_output</title>
<ellipse fill="none" stroke="black" cx="1463.1" cy="-134" rx="127.5" ry="18"/>
<text text-anchor="middle" x="1463.1" y="-130.3" font-family="Times,serif" font-size="14.00">get_tft_transform_output</text>
</g>
<!-- view_transformed_sample_data&#45;&gt;get_tft_transform_output -->
<g id="edge6" class="edge">
<title>view_transformed_sample_data&#45;&gt;get_tft_transform_output</title>
<path fill="none" stroke="black" d="M617.65,-134C811.73,-134 1140.3,-134 1325.2,-134"/>
<polygon fill="black" stroke="black" points="1325.2,-137.5 1335.2,-134 1325.2,-130.5 1325.2,-137.5"/>
<text text-anchor="middle" x="1046.1" y="-137.8" font-family="Times,serif" font-size="14.00">11</text>
</g>
<!-- build_raw_to_preprocessing_model -->
<g id="node8" class="node">
<title>build_raw_to_preprocessing_model</title>
<ellipse fill="none" stroke="black" cx="845.56" cy="-72" rx="173" ry="18"/>
<text text-anchor="middle" x="845.56" y="-68.3" font-family="Times,serif" font-size="14.00">build_raw_to_preprocessing_model</text>
</g>
<!-- view_transformed_sample_data&#45;&gt;build_raw_to_preprocessing_model -->
<g id="edge7" class="edge">
<title>view_transformed_sample_data&#45;&gt;build_raw_to_preprocessing_model</title>
<path fill="none" stroke="black" d="M516.92,-117.15C550.81,-107.42 595.33,-95.8 635.56,-89 651.69,-86.28 668.59,-83.98 685.51,-82.06"/>
<polygon fill="black" stroke="black" points="685.9,-85.53 695.46,-80.96 685.14,-78.58 685.9,-85.53"/>
<text text-anchor="middle" x="645.06" y="-92.8" font-family="Times,serif" font-size="14.00">12</text>
</g>
<!-- inspect_example -->
<g id="node9" class="node">
<title>inspect_example</title>
<ellipse fill="none" stroke="black" cx="845.56" cy="-18" rx="87.99" ry="18"/>
<text text-anchor="middle" x="845.56" y="-14.3" font-family="Times,serif" font-size="14.00">inspect_example</text>
</g>
<!-- view_transformed_sample_data&#45;&gt;inspect_example -->
<g id="edge8" class="edge">
<title>view_transformed_sample_data&#45;&gt;inspect_example</title>
<path fill="none" stroke="black" d="M496.38,-116.34C537.33,-96.09 608.23,-63.34 672.56,-45 699.61,-37.29 729.73,-31.61 757.11,-27.52"/>
<polygon fill="black" stroke="black" points="757.66,-30.97 767.06,-26.08 756.66,-24.04 757.66,-30.97"/>
<text text-anchor="middle" x="645.06" y="-60.8" font-family="Times,serif" font-size="14.00">13</text>
</g>
<!-- check_prerequisites -->
<g id="node10" class="node">
<title>check_prerequisites</title>
<ellipse fill="none" stroke="black" cx="1177.1" cy="-294" rx="103.5" ry="18"/>
<text text-anchor="middle" x="1177.1" y="-290.3" font-family="Times,serif" font-size="14.00">check_prerequisites</text>
</g>
<!-- perform_prerequisites&#45;&gt;check_prerequisites -->
<g id="edge9" class="edge">
<title>perform_prerequisites&#45;&gt;check_prerequisites</title>
<path fill="none" stroke="black" d="M910.85,-297.84C952.08,-305.74 1006.8,-313.22 1055.6,-310 1066.3,-309.29 1077.5,-308.23 1088.6,-306.99"/>
<polygon fill="black" stroke="black" points="1089.18,-310.45 1098.7,-305.8 1088.36,-303.49 1089.18,-310.45"/>
<text text-anchor="middle" x="1046.1" y="-313.8" font-family="Times,serif" font-size="14.00">3</text>
</g>
<!-- perform_prerequisites&#45;&gt;check_prerequisites -->
<g id="edge10" class="edge">
<title>perform_prerequisites&#45;&gt;check_prerequisites</title>
<path fill="none" stroke="black" d="M957.65,-286.71C992.26,-287.86 1030.4,-289.14 1065,-290.29"/>
<polygon fill="black" stroke="black" points="1064.99,-293.79 1075.1,-290.63 1065.22,-286.8 1064.99,-293.79"/>
<text text-anchor="middle" x="1046.1" y="-292.8" font-family="Times,serif" font-size="14.00">4</text>
</g>
<!-- perform_prerequisites&#45;&gt;check_prerequisites -->
<g id="edge11" class="edge">
<title>perform_prerequisites&#45;&gt;check_prerequisites</title>
<path fill="none" stroke="black" d="M933.36,-271.38C970.97,-267.95 1015.5,-266.05 1055.6,-270 1071.8,-271.6 1089.1,-274.4 1105.4,-277.52"/>
<polygon fill="black" stroke="black" points="1104.91,-280.99 1115.4,-279.51 1106.28,-274.13 1104.91,-280.99"/>
<text text-anchor="middle" x="1046.1" y="-273.8" font-family="Times,serif" font-size="14.00">5</text>
</g>
<!-- build_inputs -->
<g id="node11" class="node">
<title>build_inputs</title>
<ellipse fill="none" stroke="black" cx="1177.1" cy="-218" rx="67.69" ry="18"/>
<text text-anchor="middle" x="1177.1" y="-214.3" font-family="Times,serif" font-size="14.00">build_inputs</text>
</g>
<!-- build_raw_inputs&#45;&gt;build_inputs -->
<g id="edge12" class="edge">
<title>build_raw_inputs&#45;&gt;build_inputs</title>
<path fill="none" stroke="black" d="M935.29,-218C986.45,-218 1050.1,-218 1099.2,-218"/>
<polygon fill="black" stroke="black" points="1099.4,-221.5 1109.4,-218 1099.4,-214.5 1099.4,-221.5"/>
<text text-anchor="middle" x="1046.1" y="-221.8" font-family="Times,serif" font-size="14.00">7</text>
</g>
<!-- get_feature_spec -->
<g id="node12" class="node">
<title>get_feature_spec</title>
<ellipse fill="none" stroke="black" cx="1177.1" cy="-164" rx="89.08" ry="18"/>
<text text-anchor="middle" x="1177.1" y="-160.3" font-family="Times,serif" font-size="14.00">get_feature_spec</text>
</g>
<!-- get_single_batched_example&#45;&gt;get_feature_spec -->
<g id="edge13" class="edge">
<title>get_single_batched_example&#45;&gt;get_feature_spec</title>
<path fill="none" stroke="black" d="M988.69,-164C1018.6,-164 1049.6,-164 1077.5,-164"/>
<polygon fill="black" stroke="black" points="1077.6,-167.5 1087.6,-164 1077.6,-160.5 1077.6,-167.5"/>
<text text-anchor="middle" x="1046.1" y="-167.8" font-family="Times,serif" font-size="14.00">9</text>
</g>
<!-- get_feature_spec&#45;&gt;get_tft_transform_output -->
<g id="edge14" class="edge">
<title>get_feature_spec&#45;&gt;get_tft_transform_output</title>
<path fill="none" stroke="black" d="M1256.4,-155.72C1285.5,-152.66 1319,-149.12 1350.4,-145.79"/>
<polygon fill="black" stroke="black" points="1350.92,-149.25 1360.5,-144.73 1350.19,-142.29 1350.92,-149.25"/>
<text text-anchor="middle" x="1308.1" y="-153.8" font-family="Times,serif" font-size="14.00">10</text>
</g>
</g>
</svg>
