<?xml version="1.0" encoding="UTF-8" standalone="no"?>
<!DOCTYPE svg PUBLIC "-//W3C//DTD SVG 1.1//EN"
 "http://www.w3.org/Graphics/SVG/1.1/DTD/svg11.dtd">
<!-- Generated by graphviz version 2.48.0 (0)
 -->
<!-- Pages: 1 -->
<svg width="1348pt" height="371pt"
 viewBox="0.00 0.00 1348.30 371.00" xmlns="http://www.w3.org/2000/svg" xmlns:xlink="http://www.w3.org/1999/xlink">
<g id="graph0" class="graph" transform="scale(1 1) rotate(0) translate(4 367)">
<polygon fill="white" stroke="transparent" points="-4,4 -4,-367 1344.3,-367 1344.3,4 -4,4"/>
<!-- main -->
<g id="node1" class="node">
<title>main</title>
<ellipse fill="none" stroke="black" cx="34" cy="-75" rx="34" ry="18"/>
<text text-anchor="middle" x="34" y="-71.3" font-family="Times,serif" font-size="14.00">main</text>
</g>
<!-- perform_task -->
<g id="node2" class="node">
<title>perform_task</title>
<ellipse fill="none" stroke="black" cx="196.5" cy="-110" rx="72.29" ry="18"/>
<text text-anchor="middle" x="196.5" y="-106.3" font-family="Times,serif" font-size="14.00">perform_task</text>
</g>
<!-- main&#45;&gt;perform_task -->
<g id="edge1" class="edge">
<title>main&#45;&gt;perform_task</title>
<path fill="none" stroke="black" d="M65.95,-81.75C84.59,-85.81 109.04,-91.15 131.67,-96.08"/>
<polygon fill="black" stroke="black" points="131.05,-99.53 141.57,-98.24 132.55,-92.69 131.05,-99.53"/>
<text text-anchor="middle" x="95.5" y="-92.8" font-family="Times,serif" font-size="14.00">0</text>
</g>
<!-- closeout_task -->
<g id="node3" class="node">
<title>closeout_task</title>
<ellipse fill="none" stroke="black" cx="196.5" cy="-56" rx="73.5" ry="18"/>
<text text-anchor="middle" x="196.5" y="-52.3" font-family="Times,serif" font-size="14.00">closeout_task</text>
</g>
<!-- main&#45;&gt;closeout_task -->
<g id="edge2" class="edge">
<title>main&#45;&gt;closeout_task</title>
<path fill="none" stroke="black" d="M65.65,-68.41C72.33,-67.14 79.39,-65.92 86,-65 95.39,-63.7 105.27,-62.56 115.09,-61.58"/>
<polygon fill="black" stroke="black" points="115.65,-65.04 125.27,-60.6 114.98,-58.07 115.65,-65.04"/>
<text text-anchor="middle" x="95.5" y="-68.8" font-family="Times,serif" font-size="14.00">16</text>
</g>
<!-- view_transformed_sample_data -->
<g id="node4" class="node">
<title>view_transformed_sample_data</title>
<ellipse fill="none" stroke="black" cx="472.64" cy="-186" rx="156.77" ry="18"/>
<text text-anchor="middle" x="472.64" y="-182.3" font-family="Times,serif" font-size="14.00">view_transformed_sample_data</text>
</g>
<!-- perform_task&#45;&gt;view_transformed_sample_data -->
<g id="edge3" class="edge">
<title>perform_task&#45;&gt;view_transformed_sample_data</title>
<path fill="none" stroke="black" d="M219.99,-127.08C237.55,-139.47 263.06,-155.5 288,-164 300.84,-168.38 314.44,-171.91 328.21,-174.76"/>
<polygon fill="black" stroke="black" points="327.77,-178.24 338.25,-176.71 329.1,-171.37 327.77,-178.24"/>
<text text-anchor="middle" x="293" y="-170.8" font-family="Times,serif" font-size="14.00">1</text>
</g>
<!-- write_raw_tfrecords -->
<g id="node5" class="node">
<title>write_raw_tfrecords</title>
<ellipse fill="none" stroke="black" cx="472.64" cy="-72" rx="104" ry="18"/>
<text text-anchor="middle" x="472.64" y="-68.3" font-family="Times,serif" font-size="14.00">write_raw_tfrecords</text>
</g>
<!-- perform_task&#45;&gt;write_raw_tfrecords -->
<g id="edge4" class="edge">
<title>perform_task&#45;&gt;write_raw_tfrecords</title>
<path fill="none" stroke="black" d="M239.73,-95.5C249.77,-91.71 260.36,-87.44 270,-83 278.31,-79.17 279.15,-75.32 288,-73 314.12,-66.16 343.05,-63.73 370.08,-63.55"/>
<polygon fill="black" stroke="black" points="370.32,-67.05 380.33,-63.59 370.34,-60.05 370.32,-67.05"/>
<text text-anchor="middle" x="293" y="-76.8" font-family="Times,serif" font-size="14.00">4</text>
</g>
<!-- transform_tfrecords -->
<g id="node6" class="node">
<title>transform_tfrecords</title>
<ellipse fill="none" stroke="black" cx="472.64" cy="-18" rx="104" ry="18"/>
<text text-anchor="middle" x="472.64" y="-14.3" font-family="Times,serif" font-size="14.00">transform_tfrecords</text>
</g>
<!-- perform_task&#45;&gt;transform_tfrecords -->
<g id="edge5" class="edge">
<title>perform_task&#45;&gt;transform_tfrecords</title>
<path fill="none" stroke="black" d="M246.83,-96.9C255.12,-93.28 263.22,-88.72 270,-83 282.18,-72.73 275.27,-61.58 288,-52 308.47,-36.6 333.8,-27.47 359.04,-22.2"/>
<polygon fill="black" stroke="black" points="359.9,-25.6 369.07,-20.3 358.59,-18.72 359.9,-25.6"/>
<text text-anchor="middle" x="293" y="-55.8" font-family="Times,serif" font-size="14.00">7</text>
</g>
<!-- view_transformed_sample_data&#45;&gt;perform_task -->
<g id="edge6" class="edge">
<title>view_transformed_sample_data&#45;&gt;perform_task</title>
<path fill="none" stroke="black" d="M411.65,-169.37C365.2,-156.49 301.26,-138.77 255.36,-126.04"/>
<polygon fill="black" stroke="black" points="256.13,-122.62 245.56,-123.33 254.27,-129.37 256.13,-122.62"/>
<text text-anchor="middle" x="293" y="-139.8" font-family="Times,serif" font-size="14.00">3</text>
</g>
<!-- view_transformed_sample_data&#45;&gt;perform_task -->
<g id="edge7" class="edge">
<title>view_transformed_sample_data&#45;&gt;perform_task</title>
<path fill="none" stroke="black" d="M436.75,-168.41C402.4,-152 347.97,-128.38 298,-117 291.58,-115.54 284.88,-114.36 278.12,-113.4"/>
<polygon fill="black" stroke="black" points="278.55,-109.93 268.19,-112.16 277.68,-116.87 278.55,-109.93"/>
<text text-anchor="middle" x="293" y="-120.8" font-family="Times,serif" font-size="14.00">6</text>
</g>
<!-- check_prerequisites -->
<g id="node7" class="node">
<title>check_prerequisites</title>
<ellipse fill="none" stroke="black" cx="857.27" cy="-345" rx="103.5" ry="18"/>
<text text-anchor="middle" x="857.27" y="-341.3" font-family="Times,serif" font-size="14.00">check_prerequisites</text>
</g>
<!-- view_transformed_sample_data&#45;&gt;check_prerequisites -->
<g id="edge8" class="edge">
<title>view_transformed_sample_data&#45;&gt;check_prerequisites</title>
<path fill="none" stroke="black" d="M489.73,-204.1C518.11,-234.66 580.41,-295.79 647.27,-323 677.23,-335.19 711.51,-341.58 743.52,-344.72"/>
<polygon fill="black" stroke="black" points="743.55,-348.24 753.82,-345.62 744.16,-341.26 743.55,-348.24"/>
<text text-anchor="middle" x="656.77" y="-331.8" font-family="Times,serif" font-size="14.00">2</text>
</g>
<!-- view_transformed_sample_data&#45;&gt;check_prerequisites -->
<g id="edge9" class="edge">
<title>view_transformed_sample_data&#45;&gt;check_prerequisites</title>
<path fill="none" stroke="black" d="M505,-203.77C543.7,-226.01 611.12,-265.84 666.27,-304 674.61,-309.77 674.97,-313.98 684.27,-318 704.81,-326.89 727.86,-332.89 750.25,-336.94"/>
<polygon fill="black" stroke="black" points="749.69,-340.39 760.13,-338.61 750.85,-333.49 749.69,-340.39"/>
<text text-anchor="middle" x="656.77" y="-307.8" font-family="Times,serif" font-size="14.00">9</text>
</g>
<!-- build_raw_inputs -->
<g id="node8" class="node">
<title>build_raw_inputs</title>
<ellipse fill="none" stroke="black" cx="857.27" cy="-291" rx="89.88" ry="18"/>
<text text-anchor="middle" x="857.27" y="-287.3" font-family="Times,serif" font-size="14.00">build_raw_inputs</text>
</g>
<!-- view_transformed_sample_data&#45;&gt;build_raw_inputs -->
<g id="edge10" class="edge">
<title>view_transformed_sample_data&#45;&gt;build_raw_inputs</title>
<path fill="none" stroke="black" d="M513.64,-203.54C555.45,-221.22 623.33,-248.1 684.27,-264 711.49,-271.1 741.66,-276.61 769.02,-280.74"/>
<polygon fill="black" stroke="black" points="768.57,-284.21 778.97,-282.2 769.58,-277.29 768.57,-284.21"/>
<text text-anchor="middle" x="656.77" y="-260.8" font-family="Times,serif" font-size="14.00">10</text>
</g>
<!-- get_single_batched_example -->
<g id="node9" class="node">
<title>get_single_batched_example</title>
<ellipse fill="none" stroke="black" cx="857.27" cy="-237" rx="143" ry="18"/>
<text text-anchor="middle" x="857.27" y="-233.3" font-family="Times,serif" font-size="14.00">get_single_batched_example</text>
</g>
<!-- view_transformed_sample_data&#45;&gt;get_single_batched_example -->
<g id="edge11" class="edge">
<title>view_transformed_sample_data&#45;&gt;get_single_batched_example</title>
<path fill="none" stroke="black" d="M575.67,-199.6C629.03,-206.71 694.32,-215.41 748.5,-222.64"/>
<polygon fill="black" stroke="black" points="748.11,-226.12 758.48,-223.97 749.03,-219.18 748.11,-226.12"/>
<text text-anchor="middle" x="656.77" y="-214.8" font-family="Times,serif" font-size="14.00">11</text>
</g>
<!-- get_tft_transform_output -->
<g id="node10" class="node">
<title>get_tft_transform_output</title>
<ellipse fill="none" stroke="black" cx="1212.8" cy="-202" rx="127.5" ry="18"/>
<text text-anchor="middle" x="1212.8" y="-198.3" font-family="Times,serif" font-size="14.00">get_tft_transform_output</text>
</g>
<!-- view_transformed_sample_data&#45;&gt;get_tft_transform_output -->
<g id="edge12" class="edge">
<title>view_transformed_sample_data&#45;&gt;get_tft_transform_output</title>
<path fill="none" stroke="black" d="M628.72,-187.58C740.39,-188.94 894.65,-191.29 1030.3,-195 1046.3,-195.44 1063.2,-195.98 1079.9,-196.57"/>
<polygon fill="black" stroke="black" points="1080.08,-200.08 1090.2,-196.94 1080.33,-193.08 1080.08,-200.08"/>
<text text-anchor="middle" x="857.27" y="-198.8" font-family="Times,serif" font-size="14.00">13</text>
</g>
<!-- build_raw_to_preprocessing_model -->
<g id="node11" class="node">
<title>build_raw_to_preprocessing_model</title>
<ellipse fill="none" stroke="black" cx="857.27" cy="-132" rx="173" ry="18"/>
<text text-anchor="middle" x="857.27" y="-128.3" font-family="Times,serif" font-size="14.00">build_raw_to_preprocessing_model</text>
</g>
<!-- view_transformed_sample_data&#45;&gt;build_raw_to_preprocessing_model -->
<g id="edge13" class="edge">
<title>view_transformed_sample_data&#45;&gt;build_raw_to_preprocessing_model</title>
<path fill="none" stroke="black" d="M559.18,-170.9C587.21,-166.17 618.53,-161.12 647.27,-157 673.41,-153.26 701.45,-149.63 728.23,-146.36"/>
<polygon fill="black" stroke="black" points="728.92,-149.8 738.43,-145.13 728.08,-142.85 728.92,-149.8"/>
<text text-anchor="middle" x="656.77" y="-160.8" font-family="Times,serif" font-size="14.00">14</text>
</g>
<!-- inspect_example -->
<g id="node12" class="node">
<title>inspect_example</title>
<ellipse fill="none" stroke="black" cx="857.27" cy="-78" rx="87.99" ry="18"/>
<text text-anchor="middle" x="857.27" y="-74.3" font-family="Times,serif" font-size="14.00">inspect_example</text>
</g>
<!-- view_transformed_sample_data&#45;&gt;inspect_example -->
<g id="edge14" class="edge">
<title>view_transformed_sample_data&#45;&gt;inspect_example</title>
<path fill="none" stroke="black" d="M512.03,-168.4C553.63,-150 622.39,-121.56 684.27,-105 711.71,-97.66 742.18,-92.07 769.75,-87.94"/>
<polygon fill="black" stroke="black" points="770.38,-91.38 779.77,-86.48 769.37,-84.45 770.38,-91.38"/>
<text text-anchor="middle" x="656.77" y="-118.8" font-family="Times,serif" font-size="14.00">15</text>
</g>
<!-- pipeline_function -->
<g id="node13" class="node">
<title>pipeline_function</title>
<ellipse fill="none" stroke="black" cx="857.27" cy="-21" rx="90.5" ry="18"/>
<text text-anchor="middle" x="857.27" y="-17.3" font-family="Times,serif" font-size="14.00">pipeline_function</text>
</g>
<!-- write_raw_tfrecords&#45;&gt;pipeline_function -->
<g id="edge15" class="edge">
<title>write_raw_tfrecords&#45;&gt;pipeline_function</title>
<path fill="none" stroke="black" d="M555.72,-61.06C619.4,-52.57 707.36,-40.85 771.67,-32.28"/>
<polygon fill="black" stroke="black" points="772.33,-35.72 781.78,-30.93 771.41,-28.78 772.33,-35.72"/>
<text text-anchor="middle" x="656.77" y="-52.8" font-family="Times,serif" font-size="14.00">5</text>
</g>
<!-- transform_tfrecords&#45;&gt;pipeline_function -->
<g id="edge16" class="edge">
<title>transform_tfrecords&#45;&gt;pipeline_function</title>
<path fill="none" stroke="black" d="M576.61,-18.43C605.61,-18.58 637.18,-18.77 666.27,-19 695.63,-19.23 727.54,-19.54 756.68,-19.85"/>
<polygon fill="black" stroke="black" points="756.83,-23.35 766.87,-19.96 756.91,-16.35 756.83,-23.35"/>
<text text-anchor="middle" x="656.77" y="-22.8" font-family="Times,serif" font-size="14.00">8</text>
</g>
<!-- get_single_batched_example&#45;&gt;get_tft_transform_output -->
<g id="edge17" class="edge">
<title>get_single_batched_example&#45;&gt;get_tft_transform_output</title>
<path fill="none" stroke="black" d="M970.12,-225.93C1010.9,-221.89 1056.9,-217.33 1097.9,-213.28"/>
<polygon fill="black" stroke="black" points="1098.29,-216.76 1107.9,-212.29 1097.6,-209.79 1098.29,-216.76"/>
<text text-anchor="middle" x="1057.8" y="-220.8" font-family="Times,serif" font-size="14.00">12</text>
</g>
</g>
</svg>
