<?xml version="1.0" encoding="UTF-8" standalone="no"?>
<!DOCTYPE svg PUBLIC "-//W3C//DTD SVG 1.1//EN"
 "http://www.w3.org/Graphics/SVG/1.1/DTD/svg11.dtd">
<!-- Generated by graphviz version 2.48.0 (0)
 -->
<!-- Pages: 1 -->
<svg width="1226pt" height="209pt"
 viewBox="0.00 0.00 1226.10 209.00" xmlns="http://www.w3.org/2000/svg" xmlns:xlink="http://www.w3.org/1999/xlink">
<g id="graph0" class="graph" transform="scale(1 1) rotate(0) translate(4 205)">
<polygon fill="white" stroke="transparent" points="-4,4 -4,-205 1222.1,-205 1222.1,4 -4,4"/>
<!-- main -->
<g id="node1" class="node">
<title>main</title>
<ellipse fill="none" stroke="black" cx="34" cy="-37" rx="34" ry="18"/>
<text text-anchor="middle" x="34" y="-33.3" font-family="Times,serif" font-size="14.00">main</text>
</g>
<!-- perform_task -->
<g id="node2" class="node">
<title>perform_task</title>
<ellipse fill="none" stroke="black" cx="196.5" cy="-72" rx="72.29" ry="18"/>
<text text-anchor="middle" x="196.5" y="-68.3" font-family="Times,serif" font-size="14.00">perform_task</text>
</g>
<!-- main&#45;&gt;perform_task -->
<g id="edge1" class="edge">
<title>main&#45;&gt;perform_task</title>
<path fill="none" stroke="black" d="M65.95,-43.75C84.59,-47.81 109.04,-53.15 131.67,-58.08"/>
<polygon fill="black" stroke="black" points="131.05,-61.53 141.57,-60.24 132.55,-54.69 131.05,-61.53"/>
<text text-anchor="middle" x="95.5" y="-54.8" font-family="Times,serif" font-size="14.00">0</text>
</g>
<!-- closeout_task -->
<g id="node3" class="node">
<title>closeout_task</title>
<ellipse fill="none" stroke="black" cx="196.5" cy="-18" rx="73.5" ry="18"/>
<text text-anchor="middle" x="196.5" y="-14.3" font-family="Times,serif" font-size="14.00">closeout_task</text>
</g>
<!-- main&#45;&gt;closeout_task -->
<g id="edge2" class="edge">
<title>main&#45;&gt;closeout_task</title>
<path fill="none" stroke="black" d="M65.65,-30.41C72.33,-29.14 79.39,-27.92 86,-27 95.39,-25.7 105.27,-24.56 115.09,-23.57"/>
<polygon fill="black" stroke="black" points="115.65,-27.04 125.27,-22.6 114.98,-20.07 115.65,-27.04"/>
<text text-anchor="middle" x="95.5" y="-30.8" font-family="Times,serif" font-size="14.00">10</text>
</g>
<!-- view_original_sample_data -->
<g id="node4" class="node">
<title>view_original_sample_data</title>
<ellipse fill="none" stroke="black" cx="450.54" cy="-110" rx="134.58" ry="18"/>
<text text-anchor="middle" x="450.54" y="-106.3" font-family="Times,serif" font-size="14.00">view_original_sample_data</text>
</g>
<!-- perform_task&#45;&gt;view_original_sample_data -->
<g id="edge3" class="edge">
<title>perform_task&#45;&gt;view_original_sample_data</title>
<path fill="none" stroke="black" d="M255.38,-82.58C266.21,-84.47 277.44,-86.35 288,-88 305.9,-90.8 324.94,-93.57 343.44,-96.16"/>
<polygon fill="black" stroke="black" points="342.96,-99.63 353.35,-97.54 343.93,-92.7 342.96,-99.63"/>
<text text-anchor="middle" x="293" y="-92.8" font-family="Times,serif" font-size="14.00">1</text>
</g>
<!-- write_raw_tfrecords -->
<g id="node5" class="node">
<title>write_raw_tfrecords</title>
<ellipse fill="none" stroke="black" cx="450.54" cy="-22" rx="104" ry="18"/>
<text text-anchor="middle" x="450.54" y="-18.3" font-family="Times,serif" font-size="14.00">write_raw_tfrecords</text>
</g>
<!-- perform_task&#45;&gt;write_raw_tfrecords -->
<g id="edge4" class="edge">
<title>perform_task&#45;&gt;write_raw_tfrecords</title>
<path fill="none" stroke="black" d="M246.17,-58.84C259.67,-55.41 274.36,-51.87 288,-49 311.62,-44.03 337.33,-39.39 361.15,-35.41"/>
<polygon fill="black" stroke="black" points="361.94,-38.82 371.24,-33.74 360.8,-31.92 361.94,-38.82"/>
<text text-anchor="middle" x="293" y="-52.8" font-family="Times,serif" font-size="14.00">4</text>
</g>
<!-- view_original_sample_data&#45;&gt;perform_task -->
<g id="edge5" class="edge">
<title>view_original_sample_data&#45;&gt;perform_task</title>
<path fill="none" stroke="black" d="M400.73,-93.27C371.35,-84.09 332.99,-73.65 298,-69 293.59,-68.42 292.44,-68.93 288,-69 284.78,-69.05 281.49,-69.12 278.17,-69.19"/>
<polygon fill="black" stroke="black" points="278.05,-65.69 268.14,-69.43 278.22,-72.69 278.05,-65.69"/>
<text text-anchor="middle" x="293" y="-72.8" font-family="Times,serif" font-size="14.00">3</text>
</g>
<!-- check_prerequisites -->
<g id="node6" class="node">
<title>check_prerequisites</title>
<ellipse fill="none" stroke="black" cx="774.08" cy="-183" rx="103.5" ry="18"/>
<text text-anchor="middle" x="774.08" y="-179.3" font-family="Times,serif" font-size="14.00">check_prerequisites</text>
</g>
<!-- view_original_sample_data&#45;&gt;check_prerequisites -->
<g id="edge6" class="edge">
<title>view_original_sample_data&#45;&gt;check_prerequisites</title>
<path fill="none" stroke="black" d="M491.62,-127.15C521.74,-139.33 564.3,-155.05 603.08,-164 623.81,-168.79 646.26,-172.38 667.83,-175.08"/>
<polygon fill="black" stroke="black" points="667.66,-178.58 678,-176.29 668.48,-171.63 667.66,-178.58"/>
<text text-anchor="middle" x="608.08" y="-168.8" font-family="Times,serif" font-size="14.00">2</text>
</g>
<!-- view_original_sample_data&#45;&gt;check_prerequisites -->
<g id="edge7" class="edge">
<title>view_original_sample_data&#45;&gt;check_prerequisites</title>
<path fill="none" stroke="black" d="M532.93,-124.24C558.85,-129.68 587.44,-136.62 613.08,-145 621.4,-147.72 622.75,-150.3 631.08,-153 649.65,-159.02 669.99,-164.14 689.33,-168.36"/>
<polygon fill="black" stroke="black" points="688.82,-171.83 699.33,-170.48 690.27,-164.98 688.82,-171.83"/>
<text text-anchor="middle" x="608.08" y="-148.8" font-family="Times,serif" font-size="14.00">6</text>
</g>
<!-- get_single_batched_example -->
<g id="node7" class="node">
<title>get_single_batched_example</title>
<ellipse fill="none" stroke="black" cx="774.08" cy="-126" rx="143" ry="18"/>
<text text-anchor="middle" x="774.08" y="-122.3" font-family="Times,serif" font-size="14.00">get_single_batched_example</text>
</g>
<!-- view_original_sample_data&#45;&gt;get_single_batched_example -->
<g id="edge8" class="edge">
<title>view_original_sample_data&#45;&gt;get_single_batched_example</title>
<path fill="none" stroke="black" d="M585.11,-109.92C594.58,-110.19 603.97,-110.55 613.08,-111 626.31,-111.66 640.13,-112.59 653.88,-113.67"/>
<polygon fill="black" stroke="black" points="653.61,-117.16 663.86,-114.48 654.18,-110.18 653.61,-117.16"/>
<text text-anchor="middle" x="608.08" y="-114.8" font-family="Times,serif" font-size="14.00">7</text>
</g>
<!-- inspect_example -->
<g id="node8" class="node">
<title>inspect_example</title>
<ellipse fill="none" stroke="black" cx="774.08" cy="-72" rx="87.99" ry="18"/>
<text text-anchor="middle" x="774.08" y="-68.3" font-family="Times,serif" font-size="14.00">inspect_example</text>
</g>
<!-- view_original_sample_data&#45;&gt;inspect_example -->
<g id="edge9" class="edge">
<title>view_original_sample_data&#45;&gt;inspect_example</title>
<path fill="none" stroke="black" d="M548.52,-97.64C566.65,-95.39 585.43,-93.09 603.08,-91 630.01,-87.81 659.36,-84.47 685.98,-81.51"/>
<polygon fill="black" stroke="black" points="686.49,-84.97 696.04,-80.39 685.71,-78.01 686.49,-84.97"/>
<text text-anchor="middle" x="608.08" y="-94.8" font-family="Times,serif" font-size="14.00">9</text>
</g>
<!-- pipeline_function -->
<g id="node9" class="node">
<title>pipeline_function</title>
<ellipse fill="none" stroke="black" cx="774.08" cy="-18" rx="90.5" ry="18"/>
<text text-anchor="middle" x="774.08" y="-14.3" font-family="Times,serif" font-size="14.00">pipeline_function</text>
</g>
<!-- write_raw_tfrecords&#45;&gt;pipeline_function -->
<g id="edge10" class="edge">
<title>write_raw_tfrecords&#45;&gt;pipeline_function</title>
<path fill="none" stroke="black" d="M554.6,-20.72C592.55,-20.25 635.44,-19.71 673.11,-19.24"/>
<polygon fill="black" stroke="black" points="673.62,-22.74 683.58,-19.11 673.54,-15.74 673.62,-22.74"/>
<text text-anchor="middle" x="608.08" y="-23.8" font-family="Times,serif" font-size="14.00">5</text>
</g>
<!-- get_tft_transform_output -->
<g id="node10" class="node">
<title>get_tft_transform_output</title>
<ellipse fill="none" stroke="black" cx="1090.6" cy="-126" rx="127.5" ry="18"/>
<text text-anchor="middle" x="1090.6" y="-122.3" font-family="Times,serif" font-size="14.00">get_tft_transform_output</text>
</g>
<!-- get_single_batched_example&#45;&gt;get_tft_transform_output -->
<g id="edge11" class="edge">
<title>get_single_batched_example&#45;&gt;get_tft_transform_output</title>
<path fill="none" stroke="black" d="M917.14,-126C928.98,-126 940.93,-126 952.72,-126"/>
<polygon fill="black" stroke="black" points="953.04,-129.5 963.04,-126 953.04,-122.5 953.04,-129.5"/>
<text text-anchor="middle" x="940.08" y="-129.8" font-family="Times,serif" font-size="14.00">8</text>
</g>
</g>
</svg>
