<?xml version="1.0" encoding="UTF-8" standalone="no"?>
<!DOCTYPE svg PUBLIC "-//W3C//DTD SVG 1.1//EN"
 "http://www.w3.org/Graphics/SVG/1.1/DTD/svg11.dtd">
<!-- Generated by graphviz version 2.48.0 (0)
 -->
<!-- Pages: 1 -->
<svg width="1467pt" height="167pt"
 viewBox="0.00 0.00 1467.40 167.00" xmlns="http://www.w3.org/2000/svg" xmlns:xlink="http://www.w3.org/1999/xlink">
<g id="graph0" class="graph" transform="scale(1 1) rotate(0) translate(4 163)">
<polygon fill="white" stroke="transparent" points="-4,4 -4,-163 1463.4,-163 1463.4,4 -4,4"/>
<!-- main -->
<g id="node1" class="node">
<title>main</title>
<ellipse fill="none" stroke="black" cx="34" cy="-72" rx="34" ry="18"/>
<text text-anchor="middle" x="34" y="-68.3" font-family="Times,serif" font-size="14.00">main</text>
</g>
<!-- perform_task -->
<g id="node2" class="node">
<title>perform_task</title>
<ellipse fill="none" stroke="black" cx="186.14" cy="-72" rx="72.29" ry="18"/>
<text text-anchor="middle" x="186.14" y="-68.3" font-family="Times,serif" font-size="14.00">perform_task</text>
</g>
<!-- main&#45;&gt;perform_task -->
<g id="edge1" class="edge">
<title>main&#45;&gt;perform_task</title>
<path fill="none" stroke="black" d="M68.32,-72C78.96,-72 91.23,-72 103.74,-72"/>
<polygon fill="black" stroke="black" points="103.8,-75.5 113.8,-72 103.8,-68.5 103.8,-75.5"/>
<text text-anchor="middle" x="91" y="-75.8" font-family="Times,serif" font-size="14.00">0</text>
</g>
<!-- view_original_sample_data -->
<g id="node3" class="node">
<title>view_original_sample_data</title>
<ellipse fill="none" stroke="black" cx="438.83" cy="-72" rx="134.58" ry="18"/>
<text text-anchor="middle" x="438.83" y="-68.3" font-family="Times,serif" font-size="14.00">view_original_sample_data</text>
</g>
<!-- perform_task&#45;&gt;view_original_sample_data -->
<g id="edge2" class="edge">
<title>perform_task&#45;&gt;view_original_sample_data</title>
<path fill="none" stroke="black" d="M258.31,-72C269.5,-72 281.41,-72 293.57,-72"/>
<polygon fill="black" stroke="black" points="293.82,-75.5 303.82,-72 293.82,-68.5 293.82,-75.5"/>
<text text-anchor="middle" x="281.29" y="-75.8" font-family="Times,serif" font-size="14.00">1</text>
</g>
<!-- perform_prerequisites -->
<g id="node4" class="node">
<title>perform_prerequisites</title>
<ellipse fill="none" stroke="black" cx="762.36" cy="-126" rx="114.5" ry="18"/>
<text text-anchor="middle" x="762.36" y="-122.3" font-family="Times,serif" font-size="14.00">perform_prerequisites</text>
</g>
<!-- view_original_sample_data&#45;&gt;perform_prerequisites -->
<g id="edge3" class="edge">
<title>view_original_sample_data&#45;&gt;perform_prerequisites</title>
<path fill="none" stroke="black" d="M523.47,-86.05C569.49,-93.78 626.57,-103.36 673.28,-111.21"/>
<polygon fill="black" stroke="black" points="672.95,-114.7 683.39,-112.9 674.1,-107.8 672.95,-114.7"/>
<text text-anchor="middle" x="596.36" y="-102.8" font-family="Times,serif" font-size="14.00">2</text>
</g>
<!-- get_single_batched_example -->
<g id="node5" class="node">
<title>get_single_batched_example</title>
<ellipse fill="none" stroke="black" cx="762.36" cy="-72" rx="143" ry="18"/>
<text text-anchor="middle" x="762.36" y="-68.3" font-family="Times,serif" font-size="14.00">get_single_batched_example</text>
</g>
<!-- view_original_sample_data&#45;&gt;get_single_batched_example -->
<g id="edge4" class="edge">
<title>view_original_sample_data&#45;&gt;get_single_batched_example</title>
<path fill="none" stroke="black" d="M573.39,-72C585.19,-72 597.18,-72 609.12,-72"/>
<polygon fill="black" stroke="black" points="609.12,-75.5 619.12,-72 609.12,-68.5 609.12,-75.5"/>
<text text-anchor="middle" x="596.36" y="-75.8" font-family="Times,serif" font-size="14.00">5</text>
</g>
<!-- inspect_example -->
<g id="node6" class="node">
<title>inspect_example</title>
<ellipse fill="none" stroke="black" cx="762.36" cy="-18" rx="87.99" ry="18"/>
<text text-anchor="middle" x="762.36" y="-14.3" font-family="Times,serif" font-size="14.00">inspect_example</text>
</g>
<!-- view_original_sample_data&#45;&gt;inspect_example -->
<g id="edge5" class="edge">
<title>view_original_sample_data&#45;&gt;inspect_example</title>
<path fill="none" stroke="black" d="M523.47,-57.95C572.98,-49.64 635.27,-39.18 683.7,-31.04"/>
<polygon fill="black" stroke="black" points="684.53,-34.45 693.81,-29.34 683.37,-27.55 684.53,-34.45"/>
<text text-anchor="middle" x="596.36" y="-48.8" font-family="Times,serif" font-size="14.00">8</text>
</g>
<!-- check_prerequisites -->
<g id="node7" class="node">
<title>check_prerequisites</title>
<ellipse fill="none" stroke="black" cx="1054.9" cy="-141" rx="103.5" ry="18"/>
<text text-anchor="middle" x="1054.9" y="-137.3" font-family="Times,serif" font-size="14.00">check_prerequisites</text>
</g>
<!-- perform_prerequisites&#45;&gt;check_prerequisites -->
<g id="edge6" class="edge">
<title>perform_prerequisites&#45;&gt;check_prerequisites</title>
<path fill="none" stroke="black" d="M871.53,-131.59C895.53,-132.82 920.97,-134.14 945,-135.38"/>
<polygon fill="black" stroke="black" points="945.03,-138.89 955.2,-135.91 945.4,-131.9 945.03,-138.89"/>
<text text-anchor="middle" x="928.36" y="-137.8" font-family="Times,serif" font-size="14.00">3</text>
</g>
<!-- perform_prerequisites&#45;&gt;check_prerequisites -->
<g id="edge7" class="edge">
<title>perform_prerequisites&#45;&gt;check_prerequisites</title>
<path fill="none" stroke="black" d="M851.28,-114.59C877.71,-112.7 906.75,-112.16 933.36,-115 950.8,-116.86 969.41,-120.19 986.67,-123.86"/>
<polygon fill="black" stroke="black" points="986.13,-127.33 996.65,-126.06 987.64,-120.49 986.13,-127.33"/>
<text text-anchor="middle" x="928.36" y="-118.8" font-family="Times,serif" font-size="14.00">4</text>
</g>
<!-- get_feature_spec -->
<g id="node8" class="node">
<title>get_feature_spec</title>
<ellipse fill="none" stroke="black" cx="1054.9" cy="-72" rx="89.08" ry="18"/>
<text text-anchor="middle" x="1054.9" y="-68.3" font-family="Times,serif" font-size="14.00">get_feature_spec</text>
</g>
<!-- get_single_batched_example&#45;&gt;get_feature_spec -->
<g id="edge8" class="edge">
<title>get_single_batched_example&#45;&gt;get_feature_spec</title>
<path fill="none" stroke="black" d="M905.63,-72C922.38,-72 939.18,-72 955.14,-72"/>
<polygon fill="black" stroke="black" points="955.5,-75.5 965.5,-72 955.5,-68.5 955.5,-75.5"/>
<text text-anchor="middle" x="928.36" y="-75.8" font-family="Times,serif" font-size="14.00">6</text>
</g>
<!-- get_tft_transform_output -->
<g id="node9" class="node">
<title>get_tft_transform_output</title>
<ellipse fill="none" stroke="black" cx="1331.9" cy="-72" rx="127.5" ry="18"/>
<text text-anchor="middle" x="1331.9" y="-68.3" font-family="Times,serif" font-size="14.00">get_tft_transform_output</text>
</g>
<!-- get_feature_spec&#45;&gt;get_tft_transform_output -->
<g id="edge9" class="edge">
<title>get_feature_spec&#45;&gt;get_tft_transform_output</title>
<path fill="none" stroke="black" d="M1144,-72C1160,-72 1177.1,-72 1194.1,-72"/>
<polygon fill="black" stroke="black" points="1194.1,-75.5 1204.1,-72 1194.1,-68.5 1194.1,-75.5"/>
<text text-anchor="middle" x="1181.4" y="-75.8" font-family="Times,serif" font-size="14.00">7</text>
</g>
</g>
</svg>
